<?xml version="1.0" encoding="utf-8"?>
<!-- Generator: Adobe Illustrator 18.1.1, SVG Export Plug-In . SVG Version: 6.00 Build 0)  -->
<!DOCTYPE svg PUBLIC "-//W3C//DTD SVG 1.1//EN" "http://www.w3.org/Graphics/SVG/1.1/DTD/svg11.dtd">
<svg version="1.1" id="Layer_1" xmlns="http://www.w3.org/2000/svg" xmlns:xlink="http://www.w3.org/1999/xlink" x="0px" y="0px"
	 viewBox="0 0 2000 2000" enable-background="new 0 0 2000 2000" xml:space="preserve">
<g>
	<path d="M1989,687.2l-677-226c1-6.2,1.8-12.5,1.8-19c0-60.5-49-109.5-109.5-109.5s-109.5,49-109.5,109.5s49,109.5,109.5,109.5
		c42.8,0,79.5-24.5,97.5-60l631.8,210.8L1000,1014L66.5,702.5L1005,389.2c8.5-2.8,13-11.8,10-20.3c-2.8-8.5-11.8-13-20.2-10
		L11,687.2c-6.5,2.2-11,8.2-11,15.2s4.5,13,11,15.2L995,1046c1.8,0.5,3.2,0.8,5,0.8s3.5-0.2,5-0.8l984-328.5c6.5-2.2,11-8.2,11-15.2
		C2000,695.5,1995.5,689.5,1989,687.2z"/>
	<path d="M1944,1394V847.5c0-8.8-7.3-16-16-16s-16,7.2-16,16v546.8c-23.5,7-40.7,28.5-40.7,54.2c0,31.2,25.5,56.8,56.8,56.8
		s56.8-25.5,56.8-56.8C1984.8,1422.5,1967.5,1401,1944,1394z"/>
	<path d="M1574,952.2c-8.8,0-16,7.2-16,16V1635H442v-480c47.5-7.8,84-48.8,84-98.5c0-55.2-44.8-100-100-100s-100,44.8-100,100
		c0,49.8,36.2,90.8,84,98.5v496.2c0,8.8,7.2,16,16,16h1147.8c8.8,0,16-7.2,16-16v-683C1590,959.5,1582.8,952.2,1574,952.2z"/>
</g>
</svg>
