<?xml version="1.0" encoding="utf-8"?>
<!-- Generator: Adobe Illustrator 18.1.1, SVG Export Plug-In . SVG Version: 6.00 Build 0)  -->
<!DOCTYPE svg PUBLIC "-//W3C//DTD SVG 1.1//EN" "http://www.w3.org/Graphics/SVG/1.1/DTD/svg11.dtd">
<svg version="1.1" id="Layer_1" xmlns="http://www.w3.org/2000/svg" xmlns:xlink="http://www.w3.org/1999/xlink" x="0px" y="0px"
	 viewBox="0 0 1920 1899.1" enable-background="new 0 0 1920 1899.1" xml:space="preserve">
<circle opacity="0.98" fill="#467AA4" cx="958.6" cy="950" r="207.7"/>
<g>
	<path fill="#FFFFFF" d="M899.7,977.1h-6.1v-22.3h-19.5v22.3H868v-48.3h6.1v20.8h19.5v-20.8h6.1V977.1z"/>
	<path fill="#FFFFFF" d="M927.7,974c-1.9,2.5-4.8,3.8-8.5,3.8c-3.3,0-5.7-1.1-7.4-3.4c-1.7-2.2-2.5-5.5-2.5-9.8v-23.4h5.8v23
		c0,5.6,1.7,8.4,5,8.4c3.6,0,6-1.6,7.4-4.8v-26.6h5.9v35.9h-5.6L927.7,974z"/>
	<path fill="#FFFFFF" d="M947.8,941.2l0.1,3.3c2.2-2.7,5.1-4,8.7-4c4,0,6.8,1.7,8.4,5.2c2.3-3.5,5.4-5.2,9.4-5.2
		c6.6,0,10,4.1,10.2,12.4v24.2h-5.8v-23.6c0-2.6-0.5-4.6-1.4-5.8c-0.9-1.3-2.5-1.9-4.7-1.9c-1.8,0-3.2,0.7-4.3,2.1
		c-1.1,1.4-1.7,3.1-1.9,5.2v24.1h-5.9v-23.9c-0.1-5-2.1-7.5-6.1-7.5c-3,0-5.1,1.5-6.3,4.4v26.9h-5.8v-35.9H947.8z"/>
	<path fill="#FFFFFF" d="M1011.9,977.1c-0.4-0.8-0.6-2.1-0.8-3.9c-2.1,3.1-4.7,4.6-8,4.6c-3.3,0-5.8-0.9-7.6-2.7s-2.7-4.4-2.7-7.7
		c0-3.7,1.2-6.6,3.7-8.7c2.5-2.1,5.9-3.2,10.2-3.3h4.3v-3.8c0-2.1-0.5-3.7-1.4-4.6c-1-0.9-2.4-1.4-4.3-1.4c-1.8,0-3.2,0.5-4.3,1.6
		c-1.1,1.1-1.7,2.4-1.7,4h-5.9c0-1.8,0.5-3.6,1.6-5.3c1.1-1.7,2.5-3,4.4-3.9c1.8-1,3.9-1.4,6.1-1.4c3.7,0,6.5,0.9,8.4,2.7
		c1.9,1.8,2.9,4.5,2.9,8v18.1c0,2.8,0.4,5.2,1.1,7.2v0.5H1011.9z M1004,972.4c1.4,0,2.8-0.4,4.1-1.2c1.3-0.8,2.3-1.8,2.9-3v-8.6
		h-3.3c-2.8,0-5,0.7-6.6,1.9c-1.6,1.2-2.4,2.9-2.4,5.1c0,2,0.4,3.5,1.2,4.4C1000.7,972,1002.1,972.4,1004,972.4z"/>
	<path fill="#FFFFFF" d="M1031.5,941.2l0.2,3.9c2.3-3,5.2-4.5,8.7-4.5c6.4,0,9.6,4.2,9.7,12.7v23.9h-5.8v-23.6c0-2.8-0.5-4.8-1.4-6
		c-0.9-1.2-2.4-1.8-4.2-1.8c-1.5,0-2.8,0.5-3.9,1.5c-1.2,1-2.1,2.2-2.8,3.8v26.1h-5.9v-35.9H1031.5z"/>
</g>
<g opacity="5.000000e-02">
	<circle fill="#467AA4" cx="1685.5" cy="950" r="207.7"/>
</g>
<g>
	<path d="M1567.7,956.7c0,6.6-1.4,11.7-4.2,15.2c-2.8,3.6-6.8,5.3-12,5.3c-5,0-8.9-1.7-11.8-5.2c-2.9-3.5-4.4-8.4-4.5-14.7v-9.1
		c0-6.5,1.4-11.5,4.3-15.2c2.9-3.7,6.8-5.5,12-5.5c5.1,0,9.1,1.8,11.9,5.3c2.8,3.5,4.3,8.5,4.4,15V956.7z M1561.6,948.2
		c0-5.1-0.8-8.9-2.5-11.4c-1.7-2.5-4.2-3.7-7.7-3.7c-3.3,0-5.9,1.3-7.6,3.8c-1.7,2.5-2.6,6.2-2.6,11.2v8.7c0,4.9,0.9,8.7,2.6,11.3
		c1.7,2.6,4.3,3.9,7.7,3.9c3.4,0,5.9-1.2,7.6-3.6c1.6-2.4,2.5-6.1,2.6-11V948.2z"/>
	<path d="M1602.2,960.4c0,5.7-1,9.9-3.1,12.7c-2,2.8-4.9,4.2-8.7,4.2c-3.6,0-6.4-1.4-8.3-4.1v17.2h-5.8v-49.7h5.3l0.3,4
		c2-3.1,4.8-4.6,8.5-4.6c3.9,0,6.9,1.4,8.8,4.1c1.9,2.7,3,6.9,3,12.3V960.4z M1596.4,957c0-4-0.6-7-1.9-8.9c-1.2-1.9-3.2-2.9-6-2.9
		c-2.8,0-4.9,1.4-6.4,4.2v18.7c1.4,2.7,3.6,4.1,6.5,4.1c2.7,0,4.6-1,5.9-2.9c1.2-1.9,1.9-4.8,1.9-8.8V957z"/>
	<path d="M1622.6,977.3c-4.5,0-7.9-1.3-10.3-4c-2.4-2.7-3.6-6.6-3.7-11.7v-4.3c0-5.4,1.2-9.6,3.5-12.6c2.3-3,5.6-4.6,9.8-4.6
		c4.2,0,7.3,1.3,9.4,4c2.1,2.7,3.1,6.9,3.2,12.5v3.9h-20.1v0.8c0,3.9,0.7,6.7,2.2,8.4c1.4,1.7,3.5,2.6,6.3,2.6c1.7,0,3.2-0.3,4.6-1
		c1.3-0.7,2.6-1.7,3.7-3.1l3.1,3.7C1631.7,975.5,1627.9,977.3,1622.6,977.3z M1622,945.1c-2.4,0-4.2,0.8-5.4,2.5
		c-1.2,1.7-1.8,4.3-2,7.8h14.1v-0.8c-0.2-3.4-0.8-5.8-1.8-7.3C1625.8,945.8,1624.2,945.1,1622,945.1z"/>
	<path d="M1656.5,946.2c-0.8-0.2-1.7-0.2-2.7-0.2c-3,0-5.1,1.6-6.3,4.9v25.7h-5.9v-35.9h5.7l0.1,3.7c1.6-2.9,3.8-4.3,6.7-4.3
		c0.9,0,1.7,0.2,2.3,0.5L1656.5,946.2z"/>
	<path d="M1679.5,976.6c-0.4-0.8-0.6-2.1-0.8-3.9c-2.1,3.1-4.7,4.6-8,4.6c-3.3,0-5.8-0.9-7.6-2.7s-2.7-4.4-2.7-7.7
		c0-3.7,1.2-6.6,3.7-8.7c2.5-2.1,5.9-3.2,10.2-3.3h4.3V951c0-2.1-0.5-3.7-1.4-4.6c-1-0.9-2.4-1.4-4.3-1.4c-1.8,0-3.2,0.5-4.3,1.6
		c-1.1,1.1-1.7,2.4-1.7,4h-5.9c0-1.8,0.5-3.6,1.6-5.3c1.1-1.7,2.5-3,4.4-3.9c1.8-1,3.9-1.4,6.1-1.4c3.7,0,6.5,0.9,8.4,2.7
		c1.9,1.8,2.9,4.5,2.9,8v18.1c0,2.8,0.4,5.2,1.1,7.2v0.5H1679.5z M1671.6,971.9c1.4,0,2.8-0.4,4.1-1.2c1.3-0.8,2.3-1.8,2.9-3v-8.6
		h-3.3c-2.8,0-5,0.7-6.6,1.9c-1.6,1.2-2.4,2.9-2.4,5.1c0,2,0.4,3.5,1.2,4.4C1668.3,971.5,1669.7,971.9,1671.6,971.9z"/>
	<path d="M1701.3,932v8.7h5.4v4.7h-5.4v22.3c0,1.4,0.2,2.5,0.7,3.2s1.3,1.1,2.4,1.1c0.8,0,1.6-0.1,2.4-0.4l-0.1,5
		c-1.3,0.4-2.7,0.7-4.1,0.7c-2.3,0-4.1-0.8-5.3-2.5c-1.2-1.7-1.8-4-1.8-7v-22.3h-5.5v-4.7h5.5V932H1701.3z"/>
	<path d="M1720.4,931.2c0,1-0.3,1.8-0.8,2.5c-0.6,0.7-1.4,1-2.5,1c-1.1,0-1.9-0.3-2.5-1c-0.6-0.7-0.8-1.5-0.8-2.5s0.3-1.8,0.8-2.5
		c0.6-0.7,1.4-1,2.5-1c1.1,0,1.9,0.3,2.5,1S1720.4,930.2,1720.4,931.2z M1720,976.6h-5.9v-35.9h5.9V976.6z"/>
	<path d="M1728,957c0-5.2,1.3-9.4,3.8-12.4c2.5-3,5.9-4.6,10-4.6c4.2,0,7.5,1.5,10,4.4c2.5,3,3.8,7,3.9,12.1v3.8
		c0,5.2-1.3,9.3-3.8,12.4c-2.5,3-5.9,4.5-10.1,4.5c-4.2,0-7.5-1.5-10-4.4c-2.5-2.9-3.8-6.9-3.9-12V957z M1733.9,960.4
		c0,3.7,0.7,6.6,2.2,8.7c1.4,2.1,3.4,3.2,5.9,3.2c5.2,0,7.8-3.7,8-11.2V957c0-3.7-0.7-6.6-2.2-8.7c-1.5-2.1-3.4-3.2-5.9-3.2
		c-2.4,0-4.3,1.1-5.8,3.2c-1.5,2.1-2.2,5-2.2,8.7V960.4z"/>
	<path d="M1768.9,940.7l0.2,3.9c2.3-3,5.2-4.5,8.7-4.5c6.4,0,9.6,4.2,9.7,12.7v23.9h-5.8V953c0-2.8-0.5-4.8-1.4-6
		c-0.9-1.2-2.4-1.8-4.2-1.8c-1.5,0-2.8,0.5-3.9,1.5c-1.2,1-2.1,2.2-2.8,3.8v26.1h-5.9v-35.9H1768.9z"/>
	<path d="M1814.7,976.6c-0.4-0.8-0.6-2.1-0.8-3.9c-2.1,3.1-4.7,4.6-8,4.6c-3.3,0-5.8-0.9-7.6-2.7s-2.7-4.4-2.7-7.7
		c0-3.7,1.2-6.6,3.7-8.7c2.5-2.1,5.9-3.2,10.2-3.3h4.3V951c0-2.1-0.5-3.7-1.4-4.6c-1-0.9-2.4-1.4-4.3-1.4c-1.8,0-3.2,0.5-4.3,1.6
		c-1.1,1.1-1.7,2.4-1.7,4h-5.9c0-1.8,0.5-3.6,1.6-5.3c1.1-1.7,2.5-3,4.4-3.9c1.8-1,3.9-1.4,6.1-1.4c3.7,0,6.5,0.9,8.4,2.7
		c1.9,1.8,2.9,4.5,2.9,8v18.1c0,2.8,0.4,5.2,1.1,7.2v0.5H1814.7z M1806.9,971.9c1.4,0,2.8-0.4,4.1-1.2c1.3-0.8,2.3-1.8,2.9-3v-8.6
		h-3.3c-2.8,0-5,0.7-6.6,1.9c-1.6,1.2-2.4,2.9-2.4,5.1c0,2,0.4,3.5,1.2,4.4C1803.6,971.5,1805,971.9,1806.9,971.9z"/>
	<path d="M1835.2,976.6h-5.9v-51h5.9V976.6z"/>
</g>
<g opacity="5.000000e-02">
	<circle fill="#467AA4" cx="958.6" cy="1676.9" r="207.7"/>
</g>
<g>
	<path d="M873.4,1665.5v-48.3h13.8c4.4,0,7.7,1.1,9.9,3.2c2.2,2.1,3.3,5.4,3.3,9.7c0,2.3-0.6,4.2-1.7,6s-2.7,3.1-4.6,4
		c2.2,0.7,4,2,5.3,4.1s1.9,4.5,1.9,7.4c0,4.3-1.2,7.7-3.6,10.2c-2.4,2.5-5.8,3.7-10.2,3.7H873.4z M879.5,1637.7h7.8
		c2.1,0,3.8-0.7,5.1-2.1c1.3-1.4,1.9-3.3,1.9-5.7c0-2.7-0.6-4.6-1.8-5.8c-1.2-1.2-3-1.8-5.4-1.8h-7.7V1637.7z M879.5,1642.9v17.4
		h8.3c2.3,0,4.1-0.8,5.5-2.3c1.3-1.5,2-3.6,2-6.4c0-5.8-2.5-8.7-7.4-8.7H879.5z"/>
	<path d="M924.5,1635.1c-0.8-0.2-1.7-0.2-2.7-0.2c-3,0-5.1,1.6-6.3,4.9v25.7h-5.9v-35.9h5.7l0.1,3.7c1.6-2.9,3.8-4.3,6.7-4.3
		c0.9,0,1.7,0.2,2.3,0.5L924.5,1635.1z"/>
	<path d="M947.5,1665.5c-0.4-0.8-0.6-2.1-0.8-3.9c-2.1,3.1-4.7,4.6-8,4.6c-3.3,0-5.8-0.9-7.6-2.7s-2.7-4.4-2.7-7.7
		c0-3.7,1.2-6.6,3.7-8.7c2.5-2.1,5.9-3.2,10.2-3.3h4.3v-3.8c0-2.1-0.5-3.7-1.4-4.6c-1-0.9-2.4-1.4-4.3-1.4c-1.8,0-3.2,0.5-4.3,1.6
		c-1.1,1.1-1.7,2.4-1.7,4H929c0-1.8,0.5-3.6,1.6-5.3c1.1-1.7,2.5-3,4.4-3.9c1.8-1,3.9-1.4,6.1-1.4c3.7,0,6.5,0.9,8.4,2.7
		s2.9,4.5,2.9,8v18.1c0,2.8,0.4,5.2,1.1,7.2v0.5H947.5z M939.7,1660.8c1.4,0,2.8-0.4,4.1-1.2c1.3-0.8,2.3-1.8,2.9-3v-8.6h-3.3
		c-2.8,0-5,0.7-6.6,1.9c-1.6,1.2-2.4,2.9-2.4,5.1c0,2,0.4,3.5,1.2,4.4C936.4,1660.3,937.8,1660.8,939.7,1660.8z"/>
	<path d="M967.2,1629.5l0.2,3.9c2.3-3,5.2-4.5,8.7-4.5c6.4,0,9.6,4.2,9.7,12.7v23.9h-5.8v-23.6c0-2.8-0.5-4.8-1.4-6
		c-0.9-1.2-2.4-1.8-4.2-1.8c-1.5,0-2.8,0.5-3.9,1.5c-1.2,1-2.1,2.2-2.8,3.8v26.1h-5.9v-35.9H967.2z"/>
	<path d="M993.3,1645.9c0-5.5,1-9.8,3.1-12.7c2.1-2.9,5-4.3,8.9-4.3c3.4,0,6.1,1.4,8,4.2v-18.6h5.9v51h-5.4l-0.3-3.9
		c-1.9,3-4.7,4.5-8.3,4.5c-3.7,0-6.6-1.4-8.8-4.3s-3.2-7-3.2-12.2V1645.9z M999.2,1649.2c0,4,0.6,7,1.8,8.9c1.2,1.9,3.1,2.8,5.8,2.8
		c2.9,0,5.1-1.5,6.5-4.4v-18.1c-1.5-2.9-3.7-4.3-6.5-4.3c-2.7,0-4.6,0.9-5.8,2.8s-1.8,4.8-1.8,8.7V1649.2z"/>
	<path d="M1029.9,1669.6h-5l17-52.5h4.9L1029.9,1669.6z"/>
	<path d="M902.7,1734.9c0-2.4-0.7-4.3-2-5.5c-1.3-1.3-3.7-2.5-7.1-3.8c-3.4-1.2-6-2.5-7.8-3.8c-1.8-1.3-3.2-2.9-4.1-4.6
		c-0.9-1.7-1.3-3.7-1.3-5.9c0-3.8,1.3-7,3.8-9.5c2.6-2.5,5.9-3.7,10-3.7c2.8,0,5.4,0.6,7.6,1.9c2.2,1.3,3.9,3,5.1,5.3
		c1.2,2.3,1.8,4.7,1.8,7.4h-6.1c0-3-0.7-5.3-2.2-6.9c-1.4-1.6-3.5-2.5-6.2-2.5c-2.5,0-4.4,0.7-5.7,2.1c-1.3,1.4-2,3.3-2,5.8
		c0,2,0.7,3.7,2.2,5.1c1.5,1.4,3.7,2.6,6.8,3.7c4.8,1.6,8.2,3.5,10.2,5.8c2,2.3,3.1,5.3,3.1,9c0,3.9-1.3,7.1-3.8,9.4
		s-6,3.5-10.4,3.5c-2.8,0-5.4-0.6-7.8-1.8c-2.4-1.2-4.2-3-5.6-5.2s-2-4.8-2-7.7h6.1c0,3,0.8,5.3,2.5,7c1.7,1.7,3.9,2.5,6.8,2.5
		c2.7,0,4.7-0.7,6-2.1C902.1,1739.1,902.7,1737.2,902.7,1734.9z"/>
	<path d="M914.8,1727.4c0-5.2,1.3-9.4,3.8-12.4c2.5-3,5.9-4.6,10-4.6s7.5,1.5,10,4.4c2.5,3,3.8,7,3.9,12.1v3.8
		c0,5.2-1.3,9.3-3.8,12.4c-2.5,3-5.9,4.5-10.1,4.5c-4.2,0-7.5-1.5-10-4.4c-2.5-2.9-3.8-6.9-3.9-12V1727.4z M920.7,1730.8
		c0,3.7,0.7,6.6,2.2,8.7c1.4,2.1,3.4,3.2,5.9,3.2c5.2,0,7.8-3.7,8-11.2v-4.1c0-3.7-0.7-6.6-2.2-8.7c-1.5-2.1-3.4-3.2-5.9-3.2
		c-2.4,0-4.3,1.1-5.8,3.2c-1.5,2.1-2.2,5-2.2,8.7V1730.8z"/>
	<path d="M962.6,1742.7c1.9,0,3.5-0.6,4.7-1.8c1.2-1.2,1.8-2.9,1.9-5.2h5.5c-0.1,3.5-1.4,6.3-3.7,8.6c-2.3,2.3-5.1,3.4-8.5,3.4
		c-4.4,0-7.8-1.4-10.2-4.2c-2.3-2.8-3.5-7-3.5-12.5v-4c0-5.4,1.2-9.5,3.5-12.4s5.7-4.2,10.2-4.2c3.7,0,6.6,1.2,8.8,3.5
		s3.3,5.5,3.4,9.5h-5.5c-0.1-2.7-0.8-4.6-1.9-6c-1.1-1.3-2.7-2-4.7-2c-2.6,0-4.5,0.9-5.8,2.6c-1.3,1.7-1.9,4.5-2,8.5v4.6
		c0,4.2,0.6,7.2,1.9,9C958,1741.8,959.9,1742.7,962.6,1742.7z"/>
	<path d="M988.4,1701.6c0,1-0.3,1.8-0.8,2.5s-1.4,1-2.5,1c-1.1,0-1.9-0.3-2.5-1s-0.8-1.5-0.8-2.5s0.3-1.8,0.8-2.5
		c0.6-0.7,1.4-1,2.5-1s1.9,0.3,2.5,1S988.4,1700.6,988.4,1701.6z M987.9,1747.1H982v-35.9h5.9V1747.1z"/>
	<path d="M1015.6,1747.1c-0.4-0.8-0.6-2.1-0.8-3.9c-2.1,3.1-4.7,4.6-8,4.6c-3.3,0-5.8-0.9-7.6-2.7s-2.7-4.4-2.7-7.7
		c0-3.7,1.2-6.6,3.7-8.7c2.5-2.1,5.9-3.2,10.2-3.3h4.3v-3.8c0-2.1-0.5-3.7-1.4-4.6c-1-0.9-2.4-1.4-4.3-1.4c-1.8,0-3.2,0.5-4.3,1.6
		c-1.1,1.1-1.7,2.4-1.7,4h-5.9c0-1.8,0.5-3.6,1.6-5.3c1.1-1.7,2.5-3,4.4-3.9c1.8-1,3.9-1.4,6.1-1.4c3.7,0,6.5,0.9,8.4,2.7
		c1.9,1.8,2.9,4.5,2.9,8v18.1c0,2.8,0.4,5.2,1.1,7.2v0.5H1015.6z M1007.8,1742.4c1.4,0,2.8-0.4,4.1-1.2s2.3-1.8,2.9-3v-8.6h-3.3
		c-2.8,0-5,0.7-6.6,1.9c-1.6,1.2-2.4,2.9-2.4,5.1c0,2,0.4,3.5,1.2,4.4C1004.5,1741.9,1005.8,1742.4,1007.8,1742.4z"/>
	<path d="M1036,1747.1h-5.9v-51h5.9V1747.1z"/>
</g>
<g opacity="5.000000e-02">
	<circle fill="#467AA4" cx="231.8" cy="950" r="207.7"/>
</g>
<g>
	<path d="M94.7,942h-6.1v-48.3h6.1V942z"/>
	<path d="M110,906.1l0.2,3.9c2.3-3,5.2-4.5,8.7-4.5c6.4,0,9.6,4.2,9.7,12.7V942h-5.8v-23.6c0-2.8-0.5-4.8-1.4-6
		c-0.9-1.2-2.4-1.8-4.2-1.8c-1.5,0-2.8,0.5-3.9,1.5c-1.2,1-2.1,2.2-2.8,3.8V942h-5.9v-35.9H110z"/>
	<path d="M145.1,897.4v8.7h5.4v4.7h-5.4v22.3c0,1.4,0.2,2.5,0.7,3.2s1.3,1.1,2.4,1.1c0.8,0,1.6-0.1,2.4-0.4l-0.1,5
		c-1.3,0.4-2.7,0.7-4.1,0.7c-2.3,0-4.1-0.8-5.3-2.5c-1.2-1.7-1.8-4-1.8-7v-22.3h-5.5v-4.7h5.5v-8.7H145.1z"/>
	<path d="M170.3,942.7c-4.5,0-7.9-1.3-10.3-4c-2.4-2.7-3.6-6.6-3.7-11.7v-4.3c0-5.4,1.2-9.6,3.5-12.6c2.3-3,5.6-4.6,9.8-4.6
		c4.2,0,7.3,1.3,9.4,4c2.1,2.7,3.1,6.9,3.2,12.5v3.9h-20.1v0.8c0,3.9,0.7,6.7,2.2,8.4c1.4,1.7,3.5,2.6,6.3,2.6c1.7,0,3.2-0.3,4.6-1
		c1.3-0.7,2.6-1.7,3.7-3.1l3.1,3.7C179.4,940.9,175.5,942.7,170.3,942.7z M169.7,910.4c-2.4,0-4.2,0.8-5.4,2.5
		c-1.2,1.7-1.8,4.3-2,7.8h14.1v-0.8c-0.2-3.4-0.8-5.8-1.8-7.3C173.5,911.2,171.8,910.4,169.7,910.4z"/>
	<path d="M195.7,942h-5.9v-51h5.9V942z"/>
	<path d="M211.2,942h-5.9v-51h5.9V942z"/>
	<path d="M233.3,942.7c-4.5,0-7.9-1.3-10.3-4c-2.4-2.7-3.6-6.6-3.7-11.7v-4.3c0-5.4,1.2-9.6,3.5-12.6c2.3-3,5.6-4.6,9.8-4.6
		c4.2,0,7.3,1.3,9.4,4c2.1,2.7,3.1,6.9,3.2,12.5v3.9h-20.1v0.8c0,3.9,0.7,6.7,2.2,8.4c1.4,1.7,3.5,2.6,6.3,2.6c1.7,0,3.2-0.3,4.6-1
		c1.3-0.7,2.6-1.7,3.7-3.1l3.1,3.7C242.4,940.9,238.5,942.7,233.3,942.7z M232.6,910.4c-2.4,0-4.2,0.8-5.4,2.5
		c-1.2,1.7-1.8,4.3-2,7.8h14.1v-0.8c-0.2-3.4-0.8-5.8-1.8-7.3C236.5,911.2,234.8,910.4,232.6,910.4z"/>
	<path d="M264.8,937.6c1.9,0,3.5-0.6,4.7-1.8c1.2-1.2,1.8-2.9,1.9-5.2h5.5c-0.1,3.5-1.4,6.3-3.7,8.6c-2.3,2.3-5.1,3.4-8.5,3.4
		c-4.4,0-7.8-1.4-10.2-4.2c-2.3-2.8-3.5-7-3.5-12.5v-4c0-5.4,1.2-9.5,3.5-12.4c2.3-2.8,5.7-4.2,10.2-4.2c3.7,0,6.6,1.2,8.7,3.5
		s3.3,5.5,3.4,9.5h-5.5c-0.1-2.7-0.8-4.6-1.9-6c-1.1-1.3-2.7-2-4.7-2c-2.6,0-4.5,0.9-5.8,2.6c-1.3,1.7-1.9,4.5-2,8.5v4.6
		c0,4.2,0.6,7.2,1.9,9C260.1,936.8,262.1,937.6,264.8,937.6z"/>
	<path d="M291.4,897.4v8.7h5.4v4.7h-5.4v22.3c0,1.4,0.2,2.5,0.7,3.2s1.3,1.1,2.4,1.1c0.8,0,1.6-0.1,2.4-0.4l-0.1,5
		c-1.3,0.4-2.7,0.7-4.1,0.7c-2.3,0-4.1-0.8-5.3-2.5c-1.2-1.7-1.8-4-1.8-7v-22.3h-5.5v-4.7h5.5v-8.7H291.4z"/>
	<path d="M322.1,938.8c-1.9,2.5-4.8,3.8-8.5,3.8c-3.3,0-5.7-1.1-7.4-3.4c-1.7-2.2-2.5-5.5-2.5-9.8v-23.4h5.8v23c0,5.6,1.7,8.4,5,8.4
		c3.6,0,6-1.6,7.4-4.8v-26.6h5.9V942h-5.6L322.1,938.8z"/>
	<path d="M355.2,942c-0.4-0.8-0.6-2.1-0.8-3.9c-2.1,3.1-4.7,4.6-8,4.6c-3.3,0-5.8-0.9-7.6-2.7s-2.7-4.4-2.7-7.7
		c0-3.7,1.2-6.6,3.7-8.7c2.5-2.1,5.9-3.2,10.2-3.3h4.3v-3.8c0-2.1-0.5-3.7-1.4-4.6c-1-0.9-2.4-1.4-4.3-1.4c-1.8,0-3.2,0.5-4.3,1.6
		c-1.1,1.1-1.7,2.4-1.7,4h-5.9c0-1.8,0.5-3.6,1.6-5.3c1.1-1.7,2.5-3,4.4-3.9c1.8-1,3.9-1.4,6.1-1.4c3.7,0,6.5,0.9,8.4,2.7
		c1.9,1.8,2.9,4.5,2.9,8v18.1c0,2.8,0.4,5.2,1.1,7.2v0.5H355.2z M347.3,937.3c1.4,0,2.8-0.4,4.1-1.2c1.3-0.8,2.3-1.8,2.9-3v-8.6H351
		c-2.8,0-5,0.7-6.6,1.9c-1.6,1.2-2.4,2.9-2.4,5.1c0,2,0.4,3.5,1.2,4.4C344,936.8,345.4,937.3,347.3,937.3z"/>
	<path d="M375.6,942h-5.9v-51h5.9V942z"/>
	<path d="M129.1,1004.7v18.9H123v-48.3h15.4c4.5,0,8,1.3,10.6,4c2.6,2.7,3.9,6.3,3.9,10.7c0,4.6-1.2,8.2-3.7,10.7
		c-2.4,2.5-5.9,3.8-10.3,3.9H129.1z M129.1,999.5h9.3c2.7,0,4.8-0.8,6.2-2.4c1.4-1.6,2.2-3.9,2.2-7c0-2.9-0.7-5.2-2.2-7
		c-1.5-1.8-3.5-2.6-6.1-2.6h-9.4V999.5z"/>
	<path d="M174.7,993.2c-0.8-0.2-1.7-0.2-2.7-0.2c-3,0-5.1,1.6-6.3,4.9v25.7h-5.9v-35.9h5.7l0.1,3.7c1.6-2.9,3.8-4.3,6.7-4.3
		c0.9,0,1.7,0.2,2.3,0.5L174.7,993.2z"/>
	<path d="M178.6,1004c0-5.2,1.3-9.4,3.8-12.4c2.5-3,5.9-4.6,10-4.6c4.2,0,7.5,1.5,10,4.4c2.5,3,3.8,7,3.9,12.1v3.8
		c0,5.2-1.3,9.3-3.8,12.4c-2.5,3-5.9,4.5-10.1,4.5c-4.2,0-7.5-1.5-10-4.4c-2.5-2.9-3.8-6.9-3.9-12V1004z M184.5,1007.4
		c0,3.7,0.7,6.6,2.2,8.7c1.4,2.1,3.4,3.2,5.9,3.2c5.2,0,7.8-3.7,8-11.2v-4.1c0-3.7-0.7-6.6-2.2-8.7c-1.5-2.1-3.4-3.2-5.9-3.2
		c-2.4,0-4.3,1.1-5.8,3.2c-1.5,2.1-2.2,5-2.2,8.7V1007.4z"/>
	<path d="M240,1007.4c0,5.7-1,9.9-3.1,12.7c-2,2.8-4.9,4.2-8.7,4.2c-3.6,0-6.4-1.4-8.3-4.1v17.2H214v-49.7h5.3l0.3,4
		c2-3.1,4.8-4.6,8.5-4.6c3.9,0,6.9,1.4,8.8,4.1c1.9,2.7,3,6.9,3,12.3V1007.4z M234.1,1004c0-4-0.6-7-1.9-8.9c-1.2-1.9-3.2-2.9-6-2.9
		c-2.8,0-4.9,1.4-6.4,4.2v18.7c1.4,2.7,3.6,4.1,6.5,4.1c2.7,0,4.6-1,5.9-2.9c1.2-1.9,1.9-4.8,1.9-8.8V1004z"/>
	<path d="M260.4,1024.3c-4.5,0-7.9-1.3-10.3-4c-2.4-2.7-3.6-6.6-3.7-11.7v-4.3c0-5.4,1.2-9.6,3.5-12.6c2.3-3,5.6-4.6,9.8-4.6
		c4.2,0,7.3,1.3,9.4,4c2.1,2.7,3.1,6.9,3.2,12.5v3.9h-20.1v0.8c0,3.9,0.7,6.7,2.2,8.4c1.4,1.7,3.5,2.6,6.3,2.6c1.7,0,3.2-0.3,4.6-1
		c1.3-0.7,2.6-1.7,3.7-3.1l3.1,3.7C269.5,1022.5,265.6,1024.3,260.4,1024.3z M259.7,992c-2.4,0-4.2,0.8-5.4,2.5
		c-1.2,1.7-1.8,4.3-2,7.8h14.1v-0.8c-0.2-3.4-0.8-5.8-1.8-7.3C263.5,992.8,261.9,992,259.7,992z"/>
	<path d="M294.2,993.2c-0.8-0.2-1.7-0.2-2.7-0.2c-3,0-5.1,1.6-6.3,4.9v25.7h-5.9v-35.9h5.7l0.1,3.7c1.6-2.9,3.8-4.3,6.7-4.3
		c0.9,0,1.7,0.2,2.3,0.5L294.2,993.2z"/>
	<path d="M309.4,979v8.7h5.4v4.7h-5.4v22.3c0,1.4,0.2,2.5,0.7,3.2s1.3,1.1,2.4,1.1c0.8,0,1.6-0.1,2.4-0.4l-0.1,5
		c-1.3,0.4-2.7,0.7-4.1,0.7c-2.3,0-4.1-0.8-5.3-2.5c-1.2-1.7-1.8-4-1.8-7v-22.3h-5.5v-4.7h5.5V979H309.4z"/>
	<path d="M331.6,1013.8l6.5-26.2h6.2l-11.8,41c-0.9,3.1-2.1,5.4-3.8,7c-1.6,1.6-3.5,2.4-5.5,2.4c-0.8,0-1.8-0.2-3.1-0.5v-5l1.3,0.1
		c1.7,0,3-0.4,4-1.2c1-0.8,1.7-2.2,2.3-4.2l1.2-4l-10.6-35.6h6.4L331.6,1013.8z"/>
</g>
<g opacity="5.000000e-02">
	<circle fill="#467AA4" cx="958.6" cy="223.2" r="207.7"/>
</g>
<g>
	<path d="M865.4,228.7h-16.3v21.3H843v-48.3h25.2v5.2h-19.1v16.6h16.3V228.7z"/>
	<path d="M881.6,204.6c0,1-0.3,1.8-0.8,2.5c-0.6,0.7-1.4,1-2.5,1c-1.1,0-1.9-0.3-2.5-1c-0.6-0.7-0.8-1.5-0.8-2.5s0.3-1.8,0.8-2.5
		c0.6-0.7,1.4-1,2.5-1c1.1,0,1.9,0.3,2.5,1S881.6,203.6,881.6,204.6z M881.2,250.1h-5.9v-35.9h5.9V250.1z"/>
	<path d="M895.9,214.1l0.2,3.9c2.3-3,5.2-4.5,8.7-4.5c6.4,0,9.6,4.2,9.7,12.7v23.9h-5.8v-23.6c0-2.8-0.5-4.8-1.4-6
		c-0.9-1.2-2.4-1.8-4.2-1.8c-1.5,0-2.8,0.5-3.9,1.5c-1.2,1-2.1,2.2-2.8,3.8v26.1h-5.9v-35.9H895.9z"/>
	<path d="M941.8,250.1c-0.4-0.8-0.6-2.1-0.8-3.9c-2.1,3.1-4.7,4.6-8,4.6c-3.3,0-5.8-0.9-7.6-2.7s-2.7-4.4-2.7-7.7
		c0-3.7,1.2-6.6,3.7-8.7c2.5-2.1,5.9-3.2,10.2-3.3h4.3v-3.8c0-2.1-0.5-3.7-1.4-4.6c-1-0.9-2.4-1.4-4.3-1.4c-1.8,0-3.2,0.5-4.3,1.6
		c-1.1,1.1-1.7,2.4-1.7,4h-5.9c0-1.8,0.5-3.6,1.6-5.3c1.1-1.7,2.5-3,4.4-3.9c1.8-1,3.9-1.4,6.1-1.4c3.7,0,6.5,0.9,8.4,2.7
		c1.9,1.8,2.9,4.5,2.9,8v18.1c0,2.8,0.4,5.2,1.1,7.2v0.5H941.8z M934,245.4c1.4,0,2.8-0.4,4.1-1.2c1.3-0.8,2.3-1.8,2.9-3v-8.6h-3.3
		c-2.8,0-5,0.7-6.6,1.9c-1.6,1.2-2.4,2.9-2.4,5.1c0,2,0.4,3.5,1.2,4.4C930.6,244.9,932,245.4,934,245.4z"/>
	<path d="M961.4,214.1l0.2,3.9c2.3-3,5.2-4.5,8.7-4.5c6.4,0,9.6,4.2,9.7,12.7v23.9h-5.8v-23.6c0-2.8-0.5-4.8-1.4-6
		c-0.9-1.2-2.4-1.8-4.2-1.8c-1.5,0-2.8,0.5-3.9,1.5c-1.2,1-2.1,2.2-2.8,3.8v26.1h-5.9v-35.9H961.4z"/>
	<path d="M1001.3,245.7c1.9,0,3.5-0.6,4.7-1.8c1.2-1.2,1.8-2.9,1.9-5.2h5.5c-0.1,3.5-1.4,6.3-3.7,8.6c-2.3,2.3-5.1,3.4-8.5,3.4
		c-4.4,0-7.8-1.4-10.2-4.2c-2.3-2.8-3.5-7-3.5-12.5v-4c0-5.4,1.2-9.5,3.5-12.4s5.7-4.2,10.2-4.2c3.7,0,6.6,1.2,8.7,3.5
		s3.3,5.5,3.4,9.5h-5.5c-0.1-2.7-0.8-4.6-1.9-6c-1.1-1.3-2.7-2-4.7-2c-2.6,0-4.5,0.9-5.8,2.6c-1.3,1.7-1.9,4.5-2,8.5v4.6
		c0,4.2,0.6,7.2,1.9,9C996.6,244.8,998.6,245.7,1001.3,245.7z"/>
	<path d="M1027,204.6c0,1-0.3,1.8-0.8,2.5c-0.6,0.7-1.4,1-2.5,1c-1.1,0-1.9-0.3-2.5-1c-0.6-0.7-0.8-1.5-0.8-2.5s0.3-1.8,0.8-2.5
		c0.6-0.7,1.4-1,2.5-1c1.1,0,1.9,0.3,2.5,1S1027,203.6,1027,204.6z M1026.5,250.1h-5.9v-35.9h5.9V250.1z"/>
	<path d="M1054.3,250.1c-0.4-0.8-0.6-2.1-0.8-3.9c-2.1,3.1-4.7,4.6-8,4.6c-3.3,0-5.8-0.9-7.6-2.7s-2.7-4.4-2.7-7.7
		c0-3.7,1.2-6.6,3.7-8.7c2.5-2.1,5.9-3.2,10.2-3.3h4.3v-3.8c0-2.1-0.5-3.7-1.4-4.6c-1-0.9-2.4-1.4-4.3-1.4c-1.8,0-3.2,0.5-4.3,1.6
		c-1.1,1.1-1.7,2.4-1.7,4h-5.9c0-1.8,0.5-3.6,1.6-5.3c1.1-1.7,2.5-3,4.4-3.9c1.8-1,3.9-1.4,6.1-1.4c3.7,0,6.5,0.9,8.4,2.7
		c1.9,1.8,2.9,4.5,2.9,8v18.1c0,2.8,0.4,5.2,1.1,7.2v0.5H1054.3z M1046.4,245.4c1.4,0,2.8-0.4,4.1-1.2c1.3-0.8,2.3-1.8,2.9-3v-8.6
		h-3.3c-2.8,0-5,0.7-6.6,1.9c-1.6,1.2-2.4,2.9-2.4,5.1c0,2,0.4,3.5,1.2,4.4C1043.1,244.9,1044.5,245.4,1046.4,245.4z"/>
	<path d="M1074.7,250.1h-5.9v-51h5.9V250.1z"/>
</g>
<g>
	<g>
		<path fill="#2D3336" d="M1415.8,952.9h-192.4c-1.6,0-2.9-1.3-2.9-2.9s1.3-2.9,2.9-2.9h192.4c1.6,0,2.9,1.3,2.9,2.9
			S1417.4,952.9,1415.8,952.9z"/>
	</g>
</g>
<g>
	<g>
		<path fill="#2D3336" d="M958.6,688.2c-1.6,0-2.9-1.3-2.9-2.9V492.9c0-1.6,1.3-2.9,2.9-2.9c1.6,0,2.9,1.3,2.9,2.9v192.4
			C961.5,686.9,960.2,688.2,958.6,688.2z"/>
	</g>
</g>
<g>
	<path fill="#2D3336" d="M1655.5,682c-1.2,0-2.3-0.7-2.7-1.9c-76.5-196.5-233.5-351.9-430.7-426.5c-1.5-0.6-2.3-2.2-1.7-3.8
		c0.6-1.5,2.2-2.3,3.8-1.7c198.7,75.2,356.9,231.8,434,429.8c0.6,1.5-0.2,3.2-1.7,3.8C1656.2,681.9,1655.8,682,1655.5,682z"/>
</g>
<g opacity="0.5">
	<circle fill="#467AA4" cx="1257.2" cy="635.2" r="43.9"/>
</g>
<g opacity="0.75">
	<circle fill="#E1673F" cx="1477.8" cy="1478.8" r="43.9"/>
</g>
<g>
	<path fill="#2D3336" d="M1450.4,1513.1c-0.7-0.6-1.4-1.1-2-1.7c-64.5,56.3-138.8,101.7-220.1,133.3c-1.5,0.6-2.2,2.3-1.7,3.8
		c0.4,1.2,1.5,1.9,2.7,1.9c0.4,0,0.7-0.1,1.1-0.2c82.3-32,157.5-78,222.6-135.1C1452.1,1514.4,1451.2,1513.7,1450.4,1513.1z"/>
	<path fill="#2D3336" d="M1659.3,1211.6c-1.5-0.6-3.2,0.2-3.8,1.7c-33.3,88.1-82.7,168.2-144.7,236.6c1.3,1.5,2.5,3.1,3.6,4.7
		c62.8-69.2,112.9-150.2,146.5-239.3C1661.5,1213.9,1660.8,1212.2,1659.3,1211.6z"/>
</g>
<g opacity="0.7">
	<circle fill="#2D3336" cx="665.9" cy="1633.5" r="37.4"/>
</g>
<path fill="#2D3336" d="M631.3,1619.4c-167.5-82-299.4-224.8-367.3-400.1c-0.6-1.5-2.3-2.2-3.8-1.7c-1.5,0.6-2.2,2.3-1.7,3.8
	c68.6,177,201.8,321,370.9,403.6C630,1623.1,630.6,1621.2,631.3,1619.4z"/>
<g opacity="0.8">
	<circle fill="#467AA4" cx="522.1" cy="950" r="26.8"/>
</g>
<path fill="#2D3336" d="M693.9,947.1H548.7c0.2,1.9,0.2,3.9,0,5.8h145.1c1.6,0,2.9-1.3,2.9-2.9C696.8,948.4,695.5,947.1,693.9,947.1
	z"/>
<g opacity="0.85">
	<circle fill="#2D3336" cx="1382" cy="577.4" r="43.9"/>
</g>
<g opacity="0.45">
	<circle fill="#E1673F" cx="900.1" cy="1267.9" r="28.2"/>
</g>
<g opacity="0.4">
	<circle fill="#467AA4" cx="353.5" cy="1511.3" r="28.2"/>
</g>
<g opacity="0.2">
	<circle fill="#E1673F" cx="1366.4" cy="227.6" r="28.2"/>
</g>
<g opacity="0.85">
	<circle fill="#2D3336" cx="958.6" cy="1227.3" r="17.6"/>
</g>
<path fill="#2D3336" d="M955.7,1244.6v162.6c0,1.6,1.3,2.9,2.9,2.9s2.9-1.3,2.9-2.9v-162.6C959.6,1244.9,957.6,1244.9,955.7,1244.6z
	"/>
<g opacity="0.4">
	<circle fill="#E1673F" cx="585.1" cy="305.6" r="43.9"/>
</g>
<g>
	<path fill="#2D3336" d="M545.2,323.9c-130.4,86.2-232.1,211.9-288.4,360.2c-0.6,1.5,0.2,3.2,1.7,3.8c0.3,0.1,0.7,0.2,1,0.2
		c1.2,0,2.3-0.7,2.7-1.9C318,539.1,418.8,414.5,548,329C546.9,327.4,546,325.7,545.2,323.9z"/>
	<path fill="#2D3336" d="M691.1,252.1c-0.6-1.5-2.3-2.2-3.8-1.7c-22.8,8.8-45,18.7-66.6,29.7c1.1,1.6,2.2,3.3,3.1,5
		c21.3-10.7,43.2-20.5,65.6-29.2C690.9,255.3,691.6,253.6,691.1,252.1z"/>
</g>
</svg>
