<?xml version="1.0" encoding="utf-8"?>
<!-- Generator: Adobe Illustrator 18.1.1, SVG Export Plug-In . SVG Version: 6.00 Build 0)  -->
<!DOCTYPE svg PUBLIC "-//W3C//DTD SVG 1.1//EN" "http://www.w3.org/Graphics/SVG/1.1/DTD/svg11.dtd">
<svg version="1.1" id="Layer_1" xmlns="http://www.w3.org/2000/svg" xmlns:xlink="http://www.w3.org/1999/xlink" x="0px" y="0px"
	 viewBox="0 0 2000 2000" enable-background="new 0 0 2000 2000" xml:space="preserve">
<g>
	<g>
		<g opacity="0.6">
			<path fill="#3C3C3C" d="M984.3,456.7l-0.1-0.7L910.8,78.7l0.7,0.1l566.3,100.7l-1.2,0.7L984.3,456.7z M912.1,80L985,455.2
				l489.8-275.1L912.1,80z"/>
		</g>
		<g>
			<path fill="#45C5E6" d="M1543.5,1239.1l-0.5-0.3L1245.5,1065l0.1-0.4L1392,641.5l-469.9,508.4l0.1-1.5L984,457.1L777.4,628.3
				l-0.3-0.6L554.5,193.1l1.6,0.9l428.6,261.3l0.7-0.6l-0.1,0.9l407,179.5l83.7-456.4l0.7,0.7L1797,485.1l-0.1,0.3L1543.5,1239.1z
				 M1246.8,1064.5l296.2,173.1l252.8-752.2l-319.2-304.6L1393,636.6l-0.6-0.3L985.1,456.7L923.4,1147l471.2-509.8l-0.8,2.3
				L1246.8,1064.5z M557.1,195.8l220.6,430.9L983.8,456L557.1,195.8z"/>
		</g>
		<g>
			<polygon fill="#3C3C3C" points="1543.4,1238.9 1543,1237.9 1961,1070.7 1795.9,485.4 1796.9,485.1 1962.3,1071.3 1961.8,1071.5 
							"/>
		</g>
		<g opacity="0.6">
			<polygon fill="#3C3C3C" points="1961.4,1071.5 1649.6,897.8 1649.6,897.7 1393.8,632.2 1394.5,631.9 1796.2,484.8 1796.5,485.7 
				1395.6,632.6 1650.2,897 1961.9,1070.6 			"/>
		</g>
		<g opacity="0.6">
			
				<rect x="1450" y="763.1" transform="matrix(0.3691 0.9294 -0.9294 0.3691 1828.8601 -727.796)" fill="#3C3C3C" width="1" height="440"/>
		</g>
		<g>
			<path fill="#92BD76" d="M1199.8,1922.3l0.6-1.4l124.5-278.2l-370.5-4.2l242.7,282.5l-1.2-0.1l-465.5-23.1l219.9-256.9l-352.8-174
				l-0.4,0l1,11.9L722,1894.6l-1.3-1l-492.6-392l1.3-0.1l366.6-35.4l-59.5-691.2L85.7,1083.8l133.8,403.4l-1,0.3l-134-404.1l0.3-0.2
				L537.4,773l0.1,0.9L597,1466l0.7-0.1l0.1,0.1L952,1640.6l-0.4,0.5l-219,255.8l462.2,22.9l-242.6-282.4l1.1,0l372.1,4.2
				l220.1-398.2l0.4,1.1l150.2,408.8l256.8-582.5l0.9,0.4l-257,583l1.1,0l-1.5,0.8l-0.4,1l-0.2-0.6L1199.8,1922.3z M1326,1642.7
				l-124.1,277.3l492.1-264.8L1326,1642.7z M230.7,1502.4l489.4,389.4l-123-412.7l-1-12L230.7,1502.4z M1326.5,1641.7l368.7,12.5
				l-150-408.3L1326.5,1641.7z"/>
		</g>
		<g opacity="0.85">
			
				<rect x="21.7" y="1272.4" transform="matrix(0.7984 0.6021 -0.6021 0.7984 834.2205 54.2318)" fill="#3C3C3C" width="628.9" height="1"/>
		</g>
		<g opacity="0.6">
			<polygon fill="#3C3C3C" points="1325.2,1642.2 1245.7,1065.4 923.3,1148.8 953.8,1637.9 952.8,1638 922.2,1148 922.6,1147.9 
				1246.6,1064.1 1246.7,1064.7 1326.2,1642.1 			"/>
		</g>
		<g opacity="0.85">
			
				<rect x="1099.2" y="1029.5" transform="matrix(0.8908 0.4543 -0.4543 0.8908 734.0036 -352.1127)" fill="#3C3C3C" width="1" height="643.7"/>
		</g>
		<g>
			
				<rect x="759.7" y="1080" transform="matrix(0.6982 0.7159 -0.7159 0.6982 1165.507 -149.6249)" fill="#3C3C3C" width="1" height="454.8"/>
		</g>
		<g opacity="0.6">
			<path fill="#E2683F" d="M923.8,1150.1l-1.4-1.3L536.1,773.9l0.6-0.3l241.2-146.8L923.8,1150.1z M537.8,774l384,372.7L777.2,628.3
				L537.8,774z"/>
		</g>
		<g opacity="0.6">
			<polygon fill="#E2683F" points="85.6,1083.7 84.6,1083.4 233.3,498.9 234,499.5 537.3,773.6 536.6,774.3 233.9,500.8 			"/>
		</g>
		<g>
			
				<rect x="225.1" y="561.1" transform="matrix(0.9719 0.2352 -0.2352 0.9719 146.261 -103.0749)" fill="#3C3C3C" width="560.3" height="1"/>
		</g>
		<g opacity="0.6">
			
				<rect x="391.4" y="121.3" transform="matrix(0.6936 0.7203 -0.7203 0.6936 366.6234 -177.4385)" fill="#3C3C3C" width="1" height="441.9"/>
		</g>
		<g opacity="0.6">
			<path fill="#3C3C3C" d="M1210,1960l-0.1,0l-462.5-13.2l-0.1-0.1l-340.4-178.6l-0.1-0.1l-346-510.6l0-0.1L41.3,807.3l0.1-0.1
				l309.7-538.5l0.2-0.1l650.1-228.8l0.2,0l549,159l0.1,0.1L1875,551.3l0,0.2l78.1,661.2l-0.1,0.1l-200.9,429l-0.1,0.1L1210,1960z
				 M747.7,1945.7l462.1,13.2l541.6-317.8l200.7-428.6L1874,551.7l-324.1-351.9L1001.4,40.9L351.8,269.5L42.4,807.5L61.9,1257
				l345.7,510.2L747.7,1945.7z"/>
		</g>
		<g opacity="0.6">
			<polygon fill="#FAAF40" points="1209.5,1959.7 899.2,1470.6 1198.8,1526.6 1753.9,1624.8 1653.6,980.4 1521.9,592.9 
				1249.3,308.5 1001,40.7 1001.8,40 1250,307.8 1522.8,592.4 1522.8,592.5 1654.6,980.2 1755.2,1626 1754.4,1625.9 1198.7,1527.6 
				901.3,1472 1210.3,1959.2 			"/>
		</g>
		<g opacity="0.6">
			<polygon fill="#3C3C3C" points="1952.3,1213 1650.7,970 1650.9,969.7 1873.6,552.1 1521.8,593.2 1521.8,592.6 1549.7,199.3 
				1550.7,199.4 1522.9,592.1 1875.4,550.9 1874.9,551.7 1652,969.8 1952.9,1212.2 			"/>
		</g>
		<g>
			<path fill="#3C3C3C" d="M1198.4,1528.3l-0.2-1.1L1104.6,916l0.7,0.1l547.1,53.4L1198.4,1528.3z M1105.8,917.1l93.3,608.7
				l451.2-555.5L1105.8,917.1z"/>
		</g>
		<g opacity="0.6">
			<path fill="#3C3C3C" d="M1105.2,917.2l-0.3-0.2L882.3,787.7l1.1-0.3l641.4-196.1L1105.2,917.2z M884.8,788l220.3,127.9l414.6-322
				L884.8,788z"/>
		</g>
		<g opacity="0.85">
			<path fill="#3C3C3C" d="M442.6,1000l-0.7-0.3L40.6,807.4l1-0.5l417.3-186.7L350.6,268.1l1.1,0.5l398.7,193.1L1251,307.1l-1,1.3
				L883.9,788.2l-0.8-0.6l365.1-478.5L751,462.6L881,786.7l-1.1-0.4L460,621.3L442.6,1000z M43.1,807.4l398.6,191L459,621.3
				L43.1,807.4z M460.8,620.4l418.4,164.4L750.1,463L460.8,620.4z M352.3,270l107.6,349.7l289.4-157.5L352.3,270z"/>
		</g>
		<g>
			<path fill="#4579A2" d="M606.8,1471.5l-1-0.4L60.3,1257.3l0.8-0.5l382.2-253.9l0.1,0l665.9-85.4l0.1,1l-665.2,85.3L606.8,1471.5z
				 M62.5,1257.1l542.7,212.6l-161.9-465.5L62.5,1257.1z"/>
		</g>
		<g>
			
				<rect x="664.4" y="650.9" transform="matrix(0.4347 0.9006 -0.9006 0.4347 1180.8396 -93.5266)" fill="#3C3C3C" width="1" height="485.9"/>
		</g>
		<g opacity="0.6">
			<polygon fill="#3C3C3C" points="407.7,1768 406.8,1767.4 605.7,1470.1 606,1470.1 899.9,1470.8 1108.9,917.8 1109.9,918.1 
				900.6,1471.8 900.3,1471.8 606.3,1471.1 			"/>
		</g>
		<g opacity="0.6">
			<polygon fill="#3C3C3C" points="747.5,1947.9 747.1,1946.3 606.2,1473.5 607.2,1473.2 747.6,1944.5 899.8,1471.1 900.8,1471.5 
							"/>
		</g>
	</g>
	<g opacity="0.3">
		<circle fill="#3C3C3C" cx="1119.1" cy="929.8" r="41.8"/>
	</g>
	<g opacity="0.75">
		<circle fill="#45C5E6" cx="1415.6" cy="627.5" r="154.6"/>
	</g>
	<g opacity="0.85">
		<circle fill="#4579A2" cx="610.2" cy="1419.5" r="125"/>
	</g>
	<g opacity="0.9">
		<circle fill="#92BD76" cx="1708.5" cy="1606.6" r="96.2"/>
	</g>
	<g opacity="0.75">
		<circle fill="#E2683F" cx="459.6" cy="615.8" r="116"/>
	</g>
	<g>
		<circle fill="#3C3C3C" cx="64.2" cy="1273.2" r="60.7"/>
	</g>
	<g opacity="0.3">
		<circle fill="#3C3C3C" cx="1249.7" cy="290.7" r="60.7"/>
	</g>
	<g>
		<circle fill="#3C3C3C" cx="351.5" cy="251.7" r="60.7"/>
	</g>
	<g opacity="0.6">
		<circle fill="#3C3C3C" cx="398.9" cy="1741.2" r="60.7"/>
	</g>
	<g opacity="0.3">
		<circle fill="#3C3C3C" cx="922.8" cy="1148.4" r="60.7"/>
	</g>
	<g opacity="0.85">
		<circle fill="#3C3C3C" cx="85.1" cy="1083.6" r="41.8"/>
	</g>
	<g>
		<circle fill="#3C3C3C" cx="984.7" cy="456" r="41.8"/>
	</g>
	<g opacity="0.3">
		<circle fill="#3C3C3C" cx="41.8" cy="807.4" r="41.8"/>
	</g>
	<g opacity="0.85">
		<circle fill="#3C3C3C" cx="1958.2" cy="1228.6" r="41.8"/>
	</g>
	<g opacity="0.85">
		<circle fill="#3C3C3C" cx="1871.7" cy="567.5" r="41.8"/>
	</g>
	<g opacity="0.3">
		<circle fill="#3C3C3C" cx="1654.1" cy="980.4" r="41.8"/>
	</g>
	<g opacity="0.85">
		<circle fill="#3C3C3C" cx="446.3" cy="999.9" r="41.8"/>
	</g>
	<g opacity="0.3">
		<circle fill="#3C3C3C" cx="1808.9" cy="495.7" r="41.8"/>
	</g>
	<g opacity="0.6">
		<circle fill="#3C3C3C" cx="1953.3" cy="1071" r="41.8"/>
	</g>
	<g opacity="0.85">
		<circle fill="#FAAF40" cx="1282.8" cy="1101.7" r="111.4"/>
	</g>
	<g opacity="0.6">
		<circle fill="#3C3C3C" cx="1325.7" cy="1624.8" r="41.8"/>
	</g>
	<g opacity="0.3">
		<circle fill="#3C3C3C" cx="731.5" cy="1880" r="41.8"/>
	</g>
	<g>
		<circle fill="#3C3C3C" cx="953.3" cy="1620.6" r="31.4"/>
	</g>
	<g opacity="0.3">
		<circle fill="#3C3C3C" cx="1196" cy="1903" r="31.4"/>
	</g>
	<g opacity="0.3">
		<circle fill="#3C3C3C" cx="232.9" cy="497.8" r="31.4"/>
	</g>
	<g opacity="0.6">
		<circle fill="#3C3C3C" cx="900.3" cy="1471.3" r="31.4"/>
	</g>
	<g>
		<circle fill="#3C3C3C" cx="747.6" cy="1928.8" r="31.4"/>
	</g>
	<g opacity="0.85">
		<circle fill="#3C3C3C" cx="1198.7" cy="1527.1" r="31.4"/>
	</g>
	<g opacity="0.6">
		<circle fill="#3C3C3C" cx="883.5" cy="787.9" r="31.4"/>
	</g>
	<g opacity="0.3">
		<circle fill="#3C3C3C" cx="1543.2" cy="1238.4" r="31.4"/>
	</g>
	<g opacity="0.6">
		<circle fill="#3C3C3C" cx="229.4" cy="1502" r="31.4"/>
	</g>
	<g opacity="0.6">
		<circle fill="#3C3C3C" cx="777.5" cy="627.5" r="31.4"/>
	</g>
	<g opacity="0.6">
		<circle fill="#3C3C3C" cx="1652" cy="893.2" r="31.4"/>
	</g>
	<g>
		<circle fill="#3C3C3C" cx="1476.3" cy="170.8" r="60.7"/>
	</g>
	<g>
		<g>
			<g>
				<path fill="#F4F4F4" d="M1414.9,635.4c19.9,0,36-16,36-36s-16-36-36-36c-19.9,0-36,16-36,36S1395.2,635.4,1414.9,635.4z
					 M1414.9,570c16.3,0,29.4,13.1,29.4,29.4s-13.1,29.4-29.4,29.4c-16.3,0-29.4-13.1-29.4-29.4S1398.8,570,1414.9,570z"/>
			</g>
		</g>
		<g>
			<g>
				<path fill="#F4F4F4" d="M1488.8,606.3c14.4,0,26.5-11.8,26.5-26.5c0-14.7-11.8-26.5-26.5-26.5s-26.5,12.1-26.5,26.8
					S1474,606.3,1488.8,606.3z M1488.8,560.2c10.8,0,19.9,8.8,19.9,19.9c0,11.1-8.8,19.9-19.9,19.9c-11.1,0-19.9-9.2-19.9-19.9
					C1468.8,569.4,1477.6,560.2,1488.8,560.2z"/>
			</g>
		</g>
		<g>
			<g>
				<path fill="#F4F4F4" d="M1341.3,606.3c14.4,0,26.5-11.8,26.5-26.5c0-14.7-11.8-26.5-26.5-26.5s-26.5,11.8-26.5,26.5
					C1314.8,594.5,1326.9,606.3,1341.3,606.3z M1341.3,560.2c10.8,0,19.9,8.8,19.9,19.9c0,11.1-8.8,19.9-19.9,19.9
					s-19.9-8.8-19.9-19.9C1321.4,569,1330.5,560.2,1341.3,560.2z"/>
			</g>
		</g>
		<g>
			<g>
				<path fill="#F4F4F4" d="M1530.4,663.3h-49.1c-1.8,0-3.3-1.5-3.3-3.3s1.5-3.3,3.3-3.3h48.8c2.3-23.7-9.4-32.4-16.7-35.5
					c-2.3-1-5-1.6-7.8-1.7c-24.5-1.2-35.6,0.1-35.7,0.1c-13.4,0.6-20.3,18.2-20.4,18.3c-0.6,1.7-2.5,2.5-4.2,1.9
					c-1.7-0.6-2.5-2.5-1.9-4.2c0.3-0.9,8.5-21.7,25.9-22.5c0.2,0,11.4-1.4,36.5-0.2c3.7,0.2,7.1,0.9,10.1,2.2
					c8.9,3.8,23.5,14.4,20.6,42.6C1536.1,660.9,1533.5,663.3,1530.4,663.3z"/>
			</g>
		</g>
		<g>
			<g>
				<path fill="#F4F4F4" d="M1350,663.3h-49.1c-3.2,0-5.8-2.4-6.1-5.5c-2.9-28.2,11.6-38.8,20.6-42.6c3-1.3,6.4-2,10.1-2.2
					c25.2-1.2,36.3,0.1,36.8,0.2c17.1,0.7,25.3,21.6,25.7,22.5c0.6,1.7-0.2,3.6-1.9,4.2c-1.7,0.6-3.6-0.2-4.2-1.9
					c-0.1-0.2-7-17.7-20.1-18.3c-0.4,0-11.5-1.4-35.9-0.2c-2.9,0.1-5.5,0.7-7.8,1.7c-7.2,3.1-19,11.8-16.7,35.5h48.8
					c1.8,0,3.3,1.5,3.3,3.3S1351.8,663.3,1350,663.3z"/>
			</g>
		</g>
		<g>
			<g>
				<path fill="#F4F4F4" d="M1474.6,712h-118.3c-3.7,0-6.9-2.9-7.2-6.6c-0.4-5.5-0.9-19.9,4.2-33.6c6-16.2,18-25.9,34.6-28
					c0.7-0.1,16.4-2,52-0.2c4.8,0.2,9.3,1.2,13.4,2.9c12.4,5.2,32.5,19.7,28.5,58.8C1481.5,709.1,1478.4,712,1474.6,712z
					 M1412.5,649.4c-16.1,0-23.6,0.9-23.7,0.9c-35.2,4.5-33.8,46.2-33.1,54.5c0,0.3,0.3,0.6,0.7,0.6h118.3c0.4,0,0.7-0.3,0.8-0.8
					c3.6-34.9-13.8-47.7-24.5-52.1c-3.3-1.4-7.1-2.2-11.1-2.4C1428.8,649.6,1419.8,649.4,1412.5,649.4z"/>
			</g>
		</g>
	</g>
	<g>
		<path fill="#F4F4F4" d="M1676.1,1666c-0.9,0-1.6-0.7-1.6-1.6v-45.3c0-0.9,0.7-1.6,1.6-1.6h15.5v-4.1c0-4,3.2-7.2,7.2-7.2
			c4,0,7.2,3.2,7.2,7.2v4.1h13.9v-15.5c0-0.9,0.7-1.6,1.6-1.6h5.7c2.3,0,4.1-1.8,4.1-4.1c0-2.3-1.8-4.1-4.1-4.1h-5.7
			c-0.9,0-1.6-0.7-1.6-1.6v-17c0-0.9,0.7-1.6,1.6-1.6h45.3c0.9,0,1.6,0.7,1.6,1.6v17c0,0.9-0.7,1.6-1.6,1.6h-5.7
			c-2.3,0-4.1,1.8-4.1,4.1c0,2.3,1.8,4.1,4.1,4.1h5.7c0.9,0,1.6,0.7,1.6,1.6v34c0,0.9-0.7,1.6-1.6,1.6h-5.7c-2.3,0-4.1,1.8-4.1,4.1
			c0,2.3,1.8,4.1,4.1,4.1h5.7c0.9,0,1.6,0.7,1.6,1.6v17c0,0.9-0.7,1.6-1.6,1.6H1676.1z M1715.7,1637.6c-2.3,0-4.1,1.8-4.1,4.1
			c0,2.3,1.8,4.1,4.1,4.1h5.7c0.9,0,1.6,0.7,1.6,1.6v15.5h42.2V1649h-4.1c-4,0-7.2-3.2-7.2-7.2c0-4,3.2-7.2,7.2-7.2h4.1v-13.9h-13.9
			v4.1c0,4-3.2,7.2-7.2,7.2c-4,0-7.2-3.2-7.2-7.2v-4.1H1723v15.5c0,0.9-0.7,1.6-1.6,1.6H1715.7z M1677.6,1662.9h42.2V1649h-4.1
			c-4,0-7.2-3.2-7.2-7.2c0-4,3.2-7.2,7.2-7.2h4.1v-13.9h-15.5c-0.9,0-1.6-0.7-1.6-1.6v-5.7c0-2.3-1.8-4.1-4.1-4.1
			c-2.3,0-4.1,1.8-4.1,4.1v5.7c0,0.9-0.7,1.6-1.6,1.6h-15.5V1662.9z M1723,1617.5h15.5c0.9,0,1.6,0.7,1.6,1.6v5.7
			c0,2.3,1.8,4.1,4.1,4.1c2.3,0,4.1-1.8,4.1-4.1v-5.7c0-0.9,0.7-1.6,1.6-1.6h15.5v-13.9h-4.1c-4,0-7.2-3.2-7.2-7.2
			c0-4,3.2-7.2,7.2-7.2h4.1v-13.9H1723v13.9h4.1c4,0,7.2,3.2,7.2,7.2c0,4-3.2,7.2-7.2,7.2h-4.1L1723,1617.5z"/>
	</g>
	<g>
		<path fill="#F4F4F4" d="M1696.6,1587.3c-0.7,0.5-1.6,0.4-2.2-0.2l-3.4-4.3c-1.3-1.6-3.6-2.2-5.3-1.2c-2.3,1.3-2.8,4.2-1.2,6.2
			l3.5,4.4c0.5,0.7,0.4,1.6-0.2,2.2l-14.5,11.6l-29.2-36.7c-0.5-0.7-0.4-1.6,0.2-2.2l35.4-28.3c0.7-0.5,1.6-0.4,2.2,0.2l9.6,12.1
			l3-2.4c2.7-2.2,6.7-2.3,9.4-0.1c3.6,3,3.3,8.4-0.1,11.2l-3.2,2.6l9.6,12.1c0.5,0.7,0.4,1.7-0.2,2.2L1696.6,1587.3z M1647.4,1568.5
			l26.3,33l10.9-8.7l-2.6-3.2c-2.5-3.1-2-7.7,1.1-10.1c3.1-2.5,7.7-2,10.1,1.1l2.6,3.2l10.9-8.7l-9.6-12.1c-0.5-0.7-0.4-1.6,0.2-2.2
			l4.4-3.5c1.8-1.4,2.1-4,0.7-5.8c-1.4-1.8-4-2.1-5.8-0.7l-4.4,3.5c-0.7,0.5-1.6,0.4-2.2-0.2l-9.6-12.1L1647.4,1568.5z"/>
	</g>
	<g>
		<g>
			<g>
				<path fill="#F4F4F4" d="M517.1,582.2c-0.8,0-1.6-0.4-2-1.2c-0.6-1.1-0.2-2.5,0.8-3.1l8.8-5.1c0.3-0.2,0.7-0.3,1.1-0.3
					c0.8,0,1.6,0.4,2,1.1c0.3,0.5,0.4,1.1,0.2,1.7c-0.2,0.6-0.5,1.1-1.1,1.4l-8.8,5.1C517.8,582.1,517.5,582.2,517.1,582.2z"/>
			</g>
		</g>
		<g>
			<g>
				<path fill="#F4F4F4" d="M492.8,558c-0.4,0-0.8-0.1-1.1-0.3c-0.5-0.3-0.9-0.8-1.1-1.4c-0.2-0.6-0.1-1.2,0.2-1.7l5.1-8.8
					c0.4-0.7,1.1-1.1,2-1.1c0.4,0,0.8,0.1,1.1,0.3c0.5,0.3,0.9,0.8,1.1,1.4c0.2,0.6,0.1,1.2-0.2,1.7l-5.1,8.8
					C494.3,557.5,493.6,558,492.8,558z"/>
			</g>
		</g>
		<g>
			<g>
				<path fill="#F4F4F4" d="M459.6,549.1c-1.3,0-2.3-1-2.3-2.3l0-10.2c0-1.3,1-2.3,2.3-2.3c1.3,0,2.3,1,2.3,2.3l0,10.2
					C461.9,548.1,460.9,549.1,459.6,549.1z"/>
			</g>
		</g>
		<g>
			<g>
				<path fill="#F4F4F4" d="M426.5,558.1c-0.8,0-1.6-0.4-2-1.2l-5.1-8.8c-0.6-1.1-0.3-2.5,0.8-3.1c0.3-0.2,0.7-0.3,1.1-0.3
					c0.8,0,1.6,0.4,2,1.1l5.1,8.8c0.6,1.1,0.3,2.5-0.8,3.1C427.3,558,426.9,558.1,426.5,558.1z"/>
			</g>
		</g>
		<g>
			<g>
				<path fill="#F4F4F4" d="M383.3,615.5c-1.2,0-2.3-1-2.3-2.3s1-2.3,2.3-2.3l10.2,0c1.2,0,2.3,1,2.3,2.3c0,1.3-1,2.3-2.3,2.3
					L383.3,615.5z"/>
			</g>
		</g>
		<g>
			<g>
				<path fill="#F4F4F4" d="M393.6,653.7c-0.8,0-1.6-0.4-2-1.1c-0.3-0.5-0.4-1.1-0.2-1.7c0.2-0.6,0.5-1.1,1.1-1.4l8.8-5.1
					c0.3-0.2,0.7-0.3,1.1-0.3c0.8,0,1.6,0.4,2,1.1c0.6,1.1,0.2,2.5-0.8,3.1l-8.8,5.1C394.4,653.6,394,653.7,393.6,653.7z"/>
			</g>
		</g>
		<g>
			<g>
				<path fill="#F4F4F4" d="M402.3,582.4c-0.4,0-0.8-0.1-1.1-0.3l-8.8-5.1c-1.1-0.6-1.5-2-0.8-3.1c0.4-0.7,1.2-1.1,2-1.1
					c0.4,0,0.8,0.1,1.1,0.3l8.8,5.1c1.1,0.6,1.5,2,0.8,3.1C403.9,581.9,403.1,582.4,402.3,582.4z"/>
			</g>
		</g>
		<g>
			<g>
				<path fill="#F4F4F4" d="M526,653.5c-0.4,0-0.8-0.1-1.1-0.3l-8.8-5.1c-1.1-0.6-1.5-2-0.8-3.1c0.4-0.7,1.2-1.1,2-1.1
					c0.4,0,0.8,0.1,1.1,0.3l8.8,5.1c0.5,0.3,0.9,0.8,1.1,1.4c0.2,0.6,0.1,1.2-0.2,1.7C527.5,653.1,526.8,653.5,526,653.5z"/>
			</g>
		</g>
		<g>
			<g>
				<path fill="#F4F4F4" d="M526,615.3c-1.2,0-2.3-1-2.3-2.3c0-1.3,1-2.3,2.3-2.3l10.2,0c1.3,0,2.3,1,2.3,2.3s-1,2.3-2.3,2.3
					L526,615.3z"/>
			</g>
		</g>
		<g>
			<path fill="#F4F4F4" d="M448.8,699c-6.9,0-12.5-5.6-12.5-12.5l0-19.1c0.2-5.4-3.4-13.8-10.3-23.7c-2.2-2.4-4.4-5-6-7.9
				c-0.1-0.2-0.2-0.4-0.3-0.6c-0.1-0.1-0.1-0.2-0.2-0.4c-4.2-7.1-6.4-15.1-6.4-23.2c0-25.7,20.9-46.7,46.6-46.8l0.4,0
				c25.5,0,46.3,20.8,46.4,46.4c0,7.9-2.1,15.8-6.1,23c-0.2,0.7-0.4,0.9-0.6,1.2l-0.5,0.7c-1.7,2.6-3.2,4.8-5.1,6.7
				c-7.2,10.1-11,18.7-10.7,24.6c0,0.4,0,0.7,0.1,1c0,0.2,0.1,0.5,0.1,0.7l0,17.3c0,6.9-5.6,12.5-12.5,12.5L448.8,699z M441.4,686.9
				c0.5,4,3.6,6.7,7.4,6.7l22.3,0c3.8,0,6.9-2.8,7.3-6.6l0-2.7l-37,0.1L441.4,686.9z M441.4,679.2l37-0.1l0-9.1l-37,0.1L441.4,679.2
				z M424,632.7c1.6,2.6,3.5,5.1,5.6,7.4l0.4,0.4c6.4,9.1,10.2,17.1,11.2,23.5l0.1,1l37.1-0.1l0.1-1c1.2-8.2,7-17.7,11.6-24.2l0-0.1
				c0.1-0.1,0.2-0.1,0.2-0.2c1.8-1.8,3.5-4.1,4.8-6.5l0.1-0.1c0.1-0.1,0.2-0.2,0.2-0.4c0.1-0.1,0.1-0.2,0.2-0.4
				c3.6-6.1,5.5-13.2,5.4-20.7c0-22.9-18.7-41.5-41.6-41.4c-22.9,0-41.5,18.7-41.4,41.6c0,7.2,2,14.4,5.6,20.8L424,632.7z"/>
		</g>
		<g>
			<path fill="#F4F4F4" d="M477,602.5c-2.9-1.1-6.3-0.1-8.2,2.5c-1.7,2.4-2.8,5.8-3.2,10.2c0,0-0.1,0-0.1,0c-3.8,0.3-7.6,0.3-11.3,0
				c-0.1,0-0.2,0-0.3,0c-0.4-4.4-1.5-7.8-3.3-10.2c-1.9-2.6-5.3-3.6-8.2-2.5c-2.3,0.9-3.6,2.9-3.8,5.5c-0.1,1.6,0.4,3.2,1.4,4.5
				c2.1,2.8,5.7,4.6,10.8,5.5c0,0.5,0,1,0,1.5l0.1,47.8c0,0.9,0.7,1.6,1.6,1.6c0.9,0,1.6-0.7,1.6-1.6l-0.1-47.8c0-0.4,0-0.7,0-1.1
				c1.9,0.2,3.9,0.2,5.8,0.2c0.5,0,5.6-0.1,5.6-0.2c0,0.4,0,0.7,0,1.1l0.1,47.8c0,0.9,0.7,1.6,1.6,1.6c0.9,0,1.6-0.7,1.6-1.6
				l-0.1-47.8c0-0.5,0-1,0-1.4c3.7-0.6,8.2-2.1,10.8-5.6c1-1.3,1.4-2.9,1.4-4.5C480.6,605.4,479.3,603.4,477,602.5z M442.6,610.7
				c-0.5-0.7-0.8-1.6-0.7-2.4c0.1-2,1.3-2.5,1.7-2.7c0.4-0.2,0.8-0.2,1.3-0.2c1.2,0,2.4,0.6,3.1,1.6c1,1.3,2.1,3.7,2.6,7.8
				C447.4,614.1,444.3,613,442.6,610.7z M476.8,610.6c-1.8,2.4-5,3.6-7.9,4.1c0.5-4.1,1.6-6.5,2.6-7.9c0.7-1,1.9-1.6,3.1-1.6
				c0.4,0,0.9,0.1,1.3,0.2c0.4,0.2,1.6,0.6,1.7,2.7C477.6,609,477.3,609.9,476.8,610.6z"/>
		</g>
	</g>
	<g>
		<g>
			<g>
				<path fill="#FFFFFF" d="M551.5,1449.7c-0.7,0-1.5-0.1-2.2-0.4c-2.4-0.9-4-3.2-4-5.8v-12.4h-3.2c-12.1,0-22-9.9-22-22v-28.3
					c0-12.1,9.9-22,22-22h61.2c12.1,0,22,9.9,22,22v28.3c0,12.1-9.9,22-22,22h-33.6l-13.4,16.4C555,1449,553.3,1449.7,551.5,1449.7z
					 M542.1,1363.3c-9.6,0-17.5,7.8-17.5,17.5v28.3c0,9.6,7.8,17.5,17.5,17.5h7.7v16.9c0,1.1,0.8,1.5,1.1,1.6
					c0.3,0.1,1.2,0.4,1.9-0.5l14.7-18h35.7c9.6,0,17.5-7.8,17.5-17.5v-28.3c0-9.6-7.8-17.5-17.5-17.5H542.1z"/>
			</g>
		</g>
		<g>
			<circle fill="#FFFFFF" cx="556.6" cy="1394.5" r="3.8"/>
		</g>
		<g>
			<circle fill="#FFFFFF" cx="572.7" cy="1394.5" r="3.8"/>
		</g>
		<g>
			<circle fill="#FFFFFF" cx="588.8" cy="1394.5" r="3.8"/>
		</g>
	</g>
	<g>
		<g>
			<path fill="#FFFFFF" d="M669.1,1498.2c-1.8,0-3.5-0.8-4.7-2.3l-13.7-16.5h-34.5c-11.6,0-21.1-9.5-21.1-21.1v-20.2h12.3
				c6.7,0,13-2.6,17.8-7.4c4.7-4.8,7.3-11.1,7.2-17.8l-0.1-6h46.8c11.6,0,21.1,9.5,21.1,21.1v30.4c0,11.6-9.5,21.1-21.1,21.1h-3.9
				l0,12.5c0,2.7-1.6,5-4.1,5.9C670.6,1498.1,669.9,1498.2,669.1,1498.2z M599.7,1442.7v15.7c0,9.1,7.4,16.5,16.5,16.5h36.6l15,18.1
				c0.7,0.8,1.6,0.6,1.9,0.5c0.3-0.1,1.1-0.5,1.1-1.6l0-17.1h8.4c9.1,0,16.5-7.4,16.5-16.5V1428c0-9.1-7.4-16.5-16.5-16.5h-42.2
				l0,1.4c0.1,7.9-3,15.4-8.6,21.1c-5.6,5.6-13,8.7-21,8.7H599.7z"/>
		</g>
	</g>
	<g>
		<g>
			<path fill="#FFFFFF" d="M1263.4,1175.4c-0.6,0-1.1,0-1.6-0.1c-2.4-0.3-4-1.8-4.5-4.3c-0.3-1.5-0.2-2.9-0.2-4.1c0-0.3,0-0.7,0-1
				l0.3-10.4c0-0.6,0.1-1.1,0.1-1.7c0.1-2.2,0.3-4-0.7-5.3c-0.4-0.5-0.7-0.6-2.8-0.4c-0.7,0.1-1.6,0.2-2.5,0.1l-9.4,0l-1-0.1
				c-3.9-0.4-9.3-0.9-11.1-7.2l-0.1-0.3c-0.5-2.9-0.4-5.8-0.3-8.6c0-1.1,0.1-2.2,0-3.2c0-4.3,0-6.8-0.7-7.8c-0.7-1-2.9-1.8-6.6-3.2
				c-2.4-0.9-4.1-2.3-4.9-4.2c-0.8-2-0.6-4.3,0.6-7.1c2-4.5,3.9-9,5.8-13.5c1.6-3.8,3.2-7.6,4.8-11.3c0.8-1.8,1.3-3.8,1.4-6.2
				c1.6-20.5,11.4-35.9,29-45.8c9.4-5.3,19.6-8,29.6-7.6c9.8,0.3,19.9,3.3,28.5,8.3c4,2.4,7.5,5.7,10.7,9c2.9,3,5.5,6.3,7.7,9.7
				c4.3,6.6,7.2,14,8.5,21.5c1.3,7.4,0.9,15.2-0.9,22.5c-1.9,7.5-5.4,14.6-10.3,21.1c-2.8,3.6-6,7.1-9.7,10.2
				c-2.3,2-3.3,4.3-3.3,7.6c0.1,6.3,0,12.6,0,19c0,6.2,0,12.5,0,18.7c0,0.6,0,1.5-0.4,2.5c-1.3,3.4-5.9,3.2-8.9,3.1
				c-0.5,0-0.9,0-1.1,0l-24.6,0.1C1278,1175.3,1270.8,1175.4,1263.4,1175.4C1263.5,1175.4,1263.5,1175.4,1263.4,1175.4z
				 M1262.6,1170.1L1262.6,1170.1c0.3,0,0.6,0,0.9,0.1c7.2,0,14.5-0.1,21.7-0.1l24.5-0.1c0.3,0,0.8,0,1.5,0c0.8,0,2.8,0.1,3.8-0.1
				c0-0.1,0-0.1,0-0.2c-0.1-6.3,0-12.5,0-18.8c0-6.3,0-12.6,0-18.9c0-4.9,1.6-8.6,5.1-11.6c3.4-2.9,6.4-6.1,8.9-9.5
				c4.5-5.8,7.7-12.5,9.4-19.2c1.7-6.6,2-13.6,0.8-20.3c-1.2-6.8-3.8-13.5-7.7-19.5c-2-3.1-4.4-6.1-7.1-8.9c-2.9-3-6.1-6.1-9.6-8.1
				c-7.8-4.6-17.2-7.3-26-7.6c-9-0.3-18.2,2.1-26.8,7c-16,9-24.8,23-26.3,41.7c-0.2,3-0.8,5.5-1.9,7.8c-1.6,3.7-3.2,7.5-4.8,11.3
				c-1.9,4.5-3.8,9.1-5.8,13.6c-0.8,1.8-0.7,2.6-0.6,3c0.2,0.5,0.9,0.9,1.9,1.3c9.9,3.8,10.6,4.8,10.7,15.8c0,1.3,0,2.4,0,3.5
				c-0.1,2.6-0.1,5.1,0.3,7.5c0.8,2.5,2.4,2.9,6.5,3.3l0.7,0.1l9.3,0c0.6,0,1.3-0.1,1.8-0.1c2.1-0.2,5.3-0.6,7.5,2.5
				c2.1,2.8,1.9,6.1,1.7,8.8c0,0.5-0.1,1-0.1,1.5l-0.3,10.4c0,0.4,0,0.7-0.1,1.1c-0.1,1-0.1,2,0.1,2.8
				C1262.6,1170,1262.6,1170,1262.6,1170.1z"/>
		</g>
	</g>
	<g>
		<g>
			<path fill="#FFFFFF" d="M1283.9,1082.9c0,0.5,0.4,0.9,0.9,1l4.2,0.2c0.3,1.8,1,3.6,1.9,5.2l-3.2,2.9c-0.4,0.3-0.4,0.9-0.1,1.3
				l3.4,3.8c0.3,0.4,0.9,0.4,1.3,0.1l3.3-2.9c1.5,1.1,3.2,1.8,4.9,2.3l-0.2,4.4c0,0.5,0.4,0.9,0.9,1l5.1,0.3c0.5,0,0.9-0.4,1-0.9
				l0.2-4.5c1.7-0.3,3.4-0.9,5-1.8l3,3.4c0.3,0.4,0.9,0.4,1.3,0.1l3.8-3.4c0.4-0.3,0.4-0.9,0.1-1.3l-3-3.4c1.1-1.5,1.8-3.1,2.3-4.8
				l4.5,0.2c0.5,0,0.9-0.4,1-0.9l0.3-5.1c0-0.5-0.4-0.9-0.9-1l-4.5-0.2c-0.3-1.8-0.9-3.5-1.8-5.1l3.3-2.9c0.4-0.3,0.4-0.9,0.1-1.3
				l-3.4-3.8c-0.3-0.4-0.9-0.4-1.3-0.1l-3.2,2.9c-1.5-1.1-3.2-1.9-5-2.4l0.2-4.2c0-0.5-0.4-0.9-0.9-1l-5.1-0.3c-0.5,0-0.9,0.4-1,0.9
				l-0.2,4.2c-1.8,0.3-3.6,0.9-5.3,1.9l-2.8-3.1c-0.3-0.4-0.9-0.4-1.3-0.1l-3.8,3.4c-0.4,0.3-0.4,0.9-0.1,1.3l2.8,3.1
				c-1.1,1.6-1.9,3.3-2.4,5.1l-4.1-0.2c-0.5,0-0.9,0.4-1,0.9L1283.9,1082.9z M1298,1073.9c4.2-3.8,10.6-3.4,14.4,0.8
				c3.8,4.2,3.4,10.6-0.8,14.4c-4.2,3.8-10.6,3.4-14.4-0.8C1293.5,1084.1,1293.9,1077.6,1298,1073.9z"/>
		</g>
		<g>
			<path fill="#FFFFFF" d="M1257.5,1097.1c0,0.3,0.2,0.5,0.5,0.5l2.5,0c0.2,1,0.7,2,1.3,3l-1.8,1.8c-0.2,0.2-0.2,0.5,0,0.8l2.1,2.1
				c0.2,0.2,0.5,0.2,0.8,0l1.8-1.8c0.9,0.6,1.9,1,2.9,1.2l0,2.6c0,0.3,0.2,0.5,0.5,0.5l3,0c0.3,0,0.5-0.2,0.5-0.5l0-2.6
				c1-0.2,2-0.6,2.9-1.2l1.9,1.9c0.2,0.2,0.5,0.2,0.8,0l2.1-2.1c0.2-0.2,0.2-0.5,0-0.8l-1.9-1.9c0.6-0.9,1-1.9,1.2-2.9l2.6,0
				c0.3,0,0.5-0.2,0.5-0.5l0-3c0-0.3-0.2-0.5-0.5-0.5l-2.6,0c-0.2-1-0.6-2-1.2-2.9l1.8-1.8c0.2-0.2,0.2-0.5,0-0.8l-2.1-2.1
				c-0.2-0.2-0.5-0.2-0.8,0l-1.8,1.8c-0.9-0.6-1.9-1-3-1.3l0-2.5c0-0.3-0.2-0.5-0.5-0.5l-3,0c-0.3,0-0.5,0.2-0.5,0.5l0,2.4
				c-1.1,0.2-2.1,0.6-3,1.3l-1.7-1.7c-0.2-0.2-0.5-0.2-0.8,0l-2.1,2.1c-0.2,0.2-0.2,0.5,0,0.8l1.7,1.7c-0.6,0.9-1,2-1.2,3l-2.4,0
				c-0.3,0-0.5,0.2-0.5,0.5L1257.5,1097.1z M1265.4,1091.4c2.3-2.3,6.1-2.3,8.4,0c2.3,2.3,2.3,6.1,0,8.4c-2.3,2.3-6.1,2.3-8.4,0
				C1263.1,1097.5,1263.1,1093.8,1265.4,1091.4z"/>
		</g>
		<g>
			<path fill="#FFFFFF" d="M1254.7,1059.2c-0.2,0.3,0,0.7,0.3,0.9l2.9,1.3c-0.3,1.3-0.3,2.7-0.1,4.2l-3,1.1
				c-0.4,0.1-0.5,0.5-0.4,0.9l1.3,3.6c0.1,0.4,0.5,0.5,0.9,0.4l3.1-1.1c0.8,1.2,1.7,2.2,2.8,3l-1.4,3c-0.2,0.3,0,0.7,0.3,0.9
				l3.5,1.6c0.3,0.2,0.7,0,0.9-0.3l1.4-3.1c1.3,0.3,2.6,0.3,4,0.2l1.2,3.2c0.1,0.4,0.5,0.5,0.9,0.4l3.6-1.3c0.4-0.1,0.5-0.5,0.4-0.9
				l-1.2-3.2c1.1-0.7,2.1-1.6,3-2.7l3.1,1.4c0.3,0.2,0.7,0,0.9-0.3l1.6-3.5c0.2-0.3,0-0.7-0.3-0.9l-3-1.4c0.3-1.3,0.4-2.7,0.2-4.1
				l3.1-1.1c0.4-0.1,0.5-0.5,0.4-0.9l-1.3-3.6c-0.1-0.4-0.5-0.5-0.9-0.4l-3,1.1c-0.7-1.2-1.7-2.2-2.8-3.1l1.3-2.9
				c0.2-0.3,0-0.7-0.3-0.9l-3.5-1.6c-0.3-0.2-0.7,0-0.9,0.3l-1.3,2.8c-1.4-0.3-2.8-0.4-4.2-0.2l-1-2.9c-0.1-0.4-0.5-0.5-0.9-0.4
				l-3.6,1.3c-0.4,0.1-0.5,0.5-0.4,0.9l1.1,2.9c-1.2,0.8-2.3,1.8-3.1,2.9l-2.8-1.3c-0.3-0.2-0.7,0-0.9,0.3L1254.7,1059.2z
				 M1267,1056.9c3.9-1.4,8.3,0.6,9.7,4.6c1.4,3.9-0.6,8.3-4.6,9.7c-3.9,1.4-8.3-0.6-9.7-4.6C1261,1062.7,1263.1,1058.4,1267,1056.9
				z"/>
		</g>
	</g>
	<g opacity="0.85">
		<circle fill="#3C3C3C" cx="735.2" cy="976.7" r="26.7"/>
	</g>
</g>
</svg>
