<?xml version="1.0" encoding="utf-8"?>
<!-- Generator: Adobe Illustrator 18.1.1, SVG Export Plug-In . SVG Version: 6.00 Build 0)  -->
<!DOCTYPE svg PUBLIC "-//W3C//DTD SVG 1.1//EN" "http://www.w3.org/Graphics/SVG/1.1/DTD/svg11.dtd">
<svg version="1.1" id="Layer_1" xmlns="http://www.w3.org/2000/svg" xmlns:xlink="http://www.w3.org/1999/xlink" x="0px" y="0px"
	 viewBox="-465.5 903.8 2911.4 192.7" enable-background="new -465.5 903.8 2911.4 192.7" xml:space="preserve">
<g>
	<g>
		<g>
			<polygon fill="#FFFFFF" points="504.9,1007.9 452.6,968 452.8,967.8 505,1007.7 			"/>
		</g>
		<g>
			<polygon fill="#FFFFFF" points="585.2,999 504.9,1007.9 505,1007.7 585.3,998.8 			"/>
		</g>
		<g>
			
				<rect x="658.7" y="920" transform="matrix(-7.036093e-02 -0.9975 0.9975 -7.036093e-02 -286.1078 1720.97)" fill="#FFFFFF" width="0.3" height="147.7"/>
		</g>
		<g>
			
				<rect x="703.7" y="970.6" transform="matrix(-0.4325 -0.9016 0.9016 -0.4325 104.5032 2070.6531)" fill="#FFFFFF" width="0.3" height="63.6"/>
		</g>
		<g>
			
				<rect x="737.6" y="940.6" transform="matrix(-0.1847 -0.9828 0.9828 -0.1847 -113.029 1914.892)" fill="#FFFFFF" width="0.3" height="127.5"/>
		</g>
		<g>
			
				<rect x="732.5" y="990.4" transform="matrix(-0.9985 -5.487846e-02 5.487846e-02 -0.9985 1477.4003 2021.6855)" fill="#FFFFFF" width="67.9" height="0.3"/>
		</g>
		<g>
			<polygon fill="#FFFFFF" points="585.2,999 452.7,968 452.7,967.7 585.3,998.8 			"/>
		</g>
		<g>
			
				<rect x="584.4" y="1007.4" transform="matrix(-0.982 -0.189 0.189 -0.982 1058.6492 2116.1304)" fill="#FFFFFF" width="91.6" height="0.3"/>
		</g>
		<g>
			
				<rect x="832.5" y="944.4" transform="matrix(-0.3797 -0.9251 0.9251 -0.3797 242.8426 2121.2859)" fill="#FFFFFF" width="0.3" height="69.6"/>
		</g>
		<g>
			
				<rect x="799.3" y="1000.8" transform="matrix(-0.968 -0.2509 0.2509 -0.968 1388.8948 2179.0503)" fill="#FFFFFF" width="68.2" height="0.3"/>
		</g>
		<g>
			
				<rect x="860.9" y="980" transform="matrix(-0.8558 -0.5173 0.5173 -0.8558 1140.9932 2278.3911)" fill="#FFFFFF" width="54.2" height="0.3"/>
		</g>
		<g>
			<circle fill="#FFFFFF" cx="675.2" cy="1016.2" r="9.6"/>
		</g>
		<g opacity="0.3">
			<circle fill="#FFFFFF" cx="585.3" cy="996.9" r="26.5"/>
		</g>
		<g opacity="0.3">
			<circle fill="#FFFFFF" cx="732.5" cy="988.7" r="6.9"/>
		</g>
		<g opacity="0.3">
			<circle fill="#FFFFFF" cx="505" cy="1006.7" r="9.6"/>
		</g>
		<g>
			<circle fill="#FFFFFF" cx="456.3" cy="968" r="10.5"/>
		</g>
		<g opacity="0.6">
			<circle fill="#FFFFFF" cx="805.3" cy="991.5" r="13.9"/>
		</g>
		<g opacity="0.3">
			<circle fill="#FFFFFF" cx="864.8" cy="966.7" r="7.1"/>
		</g>
		<g>
			<circle fill="#FFFFFF" cx="867.3" cy="1009.8" r="9.4"/>
		</g>
	</g>
	<g opacity="0.6">
		<circle fill="#FFFFFF" cx="591.2" cy="1046.5" r="4.3"/>
	</g>
	<g opacity="0.6">
		<circle fill="#FFFFFF" cx="872" cy="1064.1" r="7.1"/>
	</g>
	<g opacity="0.6">
		<circle fill="#FFFFFF" cx="850" cy="906.8" r="2.9"/>
	</g>
	<g opacity="0.6">
		<circle fill="#FFFFFF" cx="461.7" cy="1080.3" r="7.1"/>
	</g>
	<g opacity="0.6">
		<circle fill="#FFFFFF" cx="586.9" cy="925.9" r="7.1"/>
	</g>
</g>
<g>
	<g>
		<g>
			<polygon fill="#FFFFFF" points="-406.5,1007.9 -458.7,968 -458.5,967.8 -406.3,1007.7 			"/>
		</g>
		<g>
			<polygon fill="#FFFFFF" points="-326.1,999 -406.4,1007.9 -406.3,1007.7 -326,998.8 			"/>
		</g>
		<g>
			
				<rect x="-252.6" y="920" transform="matrix(-7.036093e-02 -0.9975 0.9975 -7.036093e-02 -1261.5448 811.9127)" fill="#FFFFFF" width="0.3" height="147.7"/>
		</g>
		<g>
			
				<rect x="-207.6" y="970.6" transform="matrix(-0.4325 -0.9016 0.9016 -0.4325 -1200.9689 1248.9855)" fill="#FFFFFF" width="0.3" height="63.6"/>
		</g>
		<g>
			
				<rect x="-173.7" y="940.6" transform="matrix(-0.1847 -0.9828 0.9828 -0.1847 -1192.6642 1019.2551)" fill="#FFFFFF" width="0.3" height="127.5"/>
		</g>
		<g>
			
				<rect x="-178.8" y="990.4" transform="matrix(-0.9985 -5.487846e-02 5.487846e-02 -0.9985 -343.8583 1971.674)" fill="#FFFFFF" width="67.9" height="0.3"/>
		</g>
		<g>
			<polygon fill="#FFFFFF" points="-326.1,999 -458.6,968 -458.6,967.7 -326,998.8 			"/>
		</g>
		<g>
			
				<rect x="-326.9" y="1007.4" transform="matrix(-0.982 -0.189 0.189 -0.982 -747.5588 1943.8954)" fill="#FFFFFF" width="91.6" height="0.3"/>
		</g>
		<g>
			
				<rect x="-78.9" y="944.4" transform="matrix(-0.3797 -0.9251 0.9251 -0.3797 -1014.503 1278.22)" fill="#FFFFFF" width="0.3" height="69.6"/>
		</g>
		<g>
			
				<rect x="-112" y="1000.8" transform="matrix(-0.968 -0.2509 0.2509 -0.968 -404.5861 1950.3982)" fill="#FFFFFF" width="68.2" height="0.3"/>
		</g>
		<g>
			
				<rect x="-50.4" y="980" transform="matrix(-0.8558 -0.5173 0.5173 -0.8558 -550.2297 1806.9657)" fill="#FFFFFF" width="54.2" height="0.3"/>
		</g>
		<g>
			<circle fill="#FFFFFF" cx="-236.2" cy="1016.2" r="9.6"/>
		</g>
		<g opacity="0.3">
			<circle fill="#FFFFFF" cx="-326" cy="996.9" r="26.5"/>
		</g>
		<g opacity="0.3">
			<circle fill="#FFFFFF" cx="-178.8" cy="988.7" r="6.9"/>
		</g>
		<g opacity="0.3">
			<circle fill="#FFFFFF" cx="-406.3" cy="1006.7" r="9.6"/>
		</g>
		<g>
			<circle fill="#FFFFFF" cx="-455" cy="968" r="10.5"/>
		</g>
		<g opacity="0.6">
			<circle fill="#FFFFFF" cx="-106" cy="991.5" r="13.9"/>
		</g>
		<g opacity="0.3">
			<circle fill="#FFFFFF" cx="-46.5" cy="966.7" r="7.1"/>
		</g>
		<g>
			<circle fill="#FFFFFF" cx="-44" cy="1009.8" r="9.4"/>
		</g>
	</g>
	<g opacity="0.6">
		<circle fill="#FFFFFF" cx="-320.1" cy="1046.5" r="4.3"/>
	</g>
	<g opacity="0.6">
		<circle fill="#FFFFFF" cx="-39.3" cy="1064.1" r="7.1"/>
	</g>
	<g opacity="0.6">
		<circle fill="#FFFFFF" cx="-61.3" cy="906.8" r="2.9"/>
	</g>
	<g opacity="0.6">
		<circle fill="#FFFFFF" cx="-449.7" cy="1080.3" r="7.1"/>
	</g>
	<g opacity="0.6">
		<circle fill="#FFFFFF" cx="-324.5" cy="925.9" r="7.1"/>
	</g>
</g>
<g>
	<g>
		<g>
			<polygon fill="#FFFFFF" points="1593.6,1007.9 1541.4,968 1541.6,967.8 1593.8,1007.7 			"/>
		</g>
		<g>
			<polygon fill="#FFFFFF" points="1674,999 1593.7,1007.9 1593.8,1007.7 1674,998.8 			"/>
		</g>
		<g>
			
				<rect x="1747.5" y="919.9" transform="matrix(-7.036093e-02 -0.9975 0.9975 -7.036093e-02 879.2979 2807.021)" fill="#FFFFFF" width="0.3" height="147.7"/>
		</g>
		<g>
			
				<rect x="1792.5" y="970.6" transform="matrix(-0.4325 -0.9016 0.9016 -0.4325 1664.2438 3052.2722)" fill="#FFFFFF" width="0.3" height="63.6"/>
		</g>
		<g>
			
				<rect x="1826.3" y="940.6" transform="matrix(-0.1847 -0.9828 0.9828 -0.1847 1176.7769 2984.9082)" fill="#FFFFFF" width="0.3" height="127.5"/>
		</g>
		<g>
			
				<rect x="1821.3" y="990.4" transform="matrix(-0.9985 -5.487846e-02 5.487846e-02 -0.9985 3653.3245 2081.4363)" fill="#FFFFFF" width="67.9" height="0.3"/>
		</g>
		<g>
			<polygon fill="#FFFFFF" points="1674,999 1541.5,968 1541.5,967.7 1674,998.8 			"/>
		</g>
		<g>
			
				<rect x="1673.2" y="1007.5" transform="matrix(-0.982 -0.189 0.189 -0.982 3216.6106 2321.9631)" fill="#FFFFFF" width="91.6" height="0.3"/>
		</g>
		<g>
			
				<rect x="1921.2" y="944.4" transform="matrix(-0.3797 -0.9251 0.9251 -0.3797 1744.9663 3128.4915)" fill="#FFFFFF" width="0.3" height="69.6"/>
		</g>
		<g>
			
				<rect x="1888" y="1000.8" transform="matrix(-0.968 -0.2509 0.2509 -0.968 3531.5896 2452.2224)" fill="#FFFFFF" width="68.2" height="0.3"/>
		</g>
		<g>
			
				<rect x="1949.7" y="980.1" transform="matrix(-0.8558 -0.5173 0.5173 -0.8558 3161.4512 2841.6943)" fill="#FFFFFF" width="54.2" height="0.3"/>
		</g>
		<g>
			<circle fill="#FFFFFF" cx="1763.9" cy="1016.2" r="9.6"/>
		</g>
		<g opacity="0.3">
			<circle fill="#FFFFFF" cx="1674.1" cy="996.9" r="26.5"/>
		</g>
		<g opacity="0.3">
			<circle fill="#FFFFFF" cx="1821.3" cy="988.7" r="6.9"/>
		</g>
		<g opacity="0.3">
			<circle fill="#FFFFFF" cx="1593.8" cy="1006.7" r="9.6"/>
		</g>
		<g>
			<circle fill="#FFFFFF" cx="1545.1" cy="968" r="10.5"/>
		</g>
		<g opacity="0.6">
			<circle fill="#FFFFFF" cx="1894.1" cy="991.5" r="13.9"/>
		</g>
		<g opacity="0.3">
			<circle fill="#FFFFFF" cx="1953.6" cy="966.7" r="7.1"/>
		</g>
		<g>
			<circle fill="#FFFFFF" cx="1956.1" cy="1009.8" r="9.4"/>
		</g>
	</g>
	<g opacity="0.6">
		<circle fill="#FFFFFF" cx="1680" cy="1046.5" r="4.3"/>
	</g>
	<g opacity="0.6">
		<circle fill="#FFFFFF" cx="1960.8" cy="1064.1" r="7.1"/>
	</g>
	<g opacity="0.6">
		<circle fill="#FFFFFF" cx="1938.8" cy="906.8" r="2.9"/>
	</g>
	<g opacity="0.6">
		<circle fill="#FFFFFF" cx="1550.4" cy="1080.3" r="7.1"/>
	</g>
	<g opacity="0.6">
		<circle fill="#FFFFFF" cx="1675.6" cy="925.9" r="7.1"/>
	</g>
</g>
<g>
	<g>
		<path fill="#FFFFFF" d="M978.3,1031.1c-4.6,0-7.1-0.3-7.3-0.3c-0.5-0.1-0.8-0.3-0.9-0.8l-12.2-36.6c-0.2-0.5,0-0.9,0.3-1.2
			c23.5-19.7,61.9-30.5,62.3-30.6c15.1-3.7,37.3-7,56.8-2c11.8,3.1,17,7.7,17.2,7.9c0.3,0.2,0.4,0.6,0.3,1
			c-1.5,12.9-11.6,25.7-29.1,37.1c-13.2,8.6-26,13.4-26.1,13.4c-21.7,7.8-39.2,10.6-50,11.6C984.9,1030.9,981.2,1031.1,978.3,1031.1
			z M971.9,1028.5c4.4,0.4,29.5,1.7,66.9-11.7c0.5-0.2,49.6-18.9,53.7-48.1c-1.5-1.1-6.6-4.6-16-7c-19.1-4.8-40.7-1.6-55.5,2
			c-0.3,0.1-37.7,10.7-60.8,29.7L971.9,1028.5z"/>
	</g>
	<g opacity="0.6">
		<path fill="#FFFFFF" d="M968.3,986.1c-8.3-9.5-27-12.2-33.7-12.9c-0.8-0.1-1-1.1-0.3-1.5c7.8-4.6,36.8-19.2,65.7-1.8L968.3,986.1z
			"/>
	</g>
	<g opacity="0.6">
		<path fill="#FFFFFF" d="M982.8,1030.6c-1.1,12.6-14.6,25.9-19.5,30.4c-0.6,0.5-0.2,1.5,0.6,1.4c9.1-0.9,41-6.4,54-37.5
			L982.8,1030.6z"/>
	</g>
	<g>
		<path fill="#FFFFFF" d="M961.8,1063.7c-0.5,0-0.9-0.3-1.1-0.7c-0.2-0.5-0.1-1,0.3-1.3c0.2-0.2,19.5-16.6,20.6-31.4l2.3,0.2
			c-0.5,6.6-4.3,14.2-11.2,22.5c-2.9,3.5-5.7,6.3-7.6,8.1c4-0.5,11.1-1.8,18.8-5c10.9-4.5,25.4-13.7,32.9-32.2l2.1,0.9
			c-7.8,19.3-22.9,28.9-34.2,33.5C972.5,1063.2,962.3,1063.7,961.8,1063.7C961.9,1063.7,961.8,1063.7,961.8,1063.7z"/>
	</g>
	<g opacity="0.6">
		<circle fill="#FFFFFF" cx="1043.4" cy="985" r="12.1"/>
	</g>
	<g>
		<path fill="#FFFFFF" d="M932.5,1007.1c-0.5,0-0.9-0.3-1.1-0.8c-0.2-0.6,0.1-1.2,0.7-1.4l13.4-4.5c0.6-0.2,1.2,0.1,1.4,0.7
			c0.2,0.6-0.1,1.2-0.7,1.4l-13.4,4.5C932.8,1007.1,932.7,1007.1,932.5,1007.1z"/>
	</g>
	<g>
		<path fill="#FFFFFF" d="M930.6,1023.8c-0.5,0-0.9-0.3-1.1-0.8c-0.2-0.6,0.1-1.2,0.7-1.4l20.2-6.7c0.6-0.2,1.2,0.1,1.4,0.7
			c0.2,0.6-0.1,1.2-0.7,1.4l-20.2,6.7C930.8,1023.8,930.7,1023.8,930.6,1023.8z"/>
	</g>
	<g>
		<path fill="#FFFFFF" d="M942.2,1036c-0.5,0-0.9-0.3-1.1-0.8c-0.2-0.6,0.1-1.2,0.7-1.4l13.4-4.5c0.6-0.2,1.2,0.1,1.4,0.7
			c0.2,0.6-0.1,1.2-0.7,1.4l-13.4,4.5C942.5,1036,942.3,1036,942.2,1036z"/>
	</g>
	<g>
		<path fill="#FFFFFF" d="M967.4,986.8c-9.8-11.2-35-12.8-35.3-12.8c-0.5-0.1-0.9-0.3-1-0.9c-0.1-0.5,0.1-1,0.5-1.2
			c0.3-0.2,8.8-6,21.5-9.3c11.8-3.1,29.7-4.4,47.5,6.4l-1.2,1.9c-17.1-10.4-34.3-9-45.6-6.1c-8.1,2.1-14.6,5.3-18,7.3
			c7.5,0.9,25.2,3.9,33.4,13.3L967.4,986.8z"/>
	</g>
</g>
<g>
	<g opacity="0.6">
		<circle fill="#FFFFFF" cx="1170" cy="927.5" r="3.9"/>
	</g>
	<g opacity="0.6">
		<circle fill="#FFFFFF" cx="1287.6" cy="1057" r="7.1"/>
	</g>
	<g opacity="0.6">
		<circle fill="#FFFFFF" cx="1432.4" cy="931.4" r="5.1"/>
	</g>
	<g opacity="0.6">
		<circle fill="#FFFFFF" cx="1456.5" cy="1089.4" r="7.1"/>
	</g>
	<g>
		<g>
			<polygon fill="#FFFFFF" points="1096,1022.2 1095.9,1021.9 1186.4,996.4 1186.5,996.7 			"/>
		</g>
		<g>
			<polygon fill="#FFFFFF" points="1186.5,996.7 1120.2,975.7 1120.2,975.4 1186.5,996.4 			"/>
		</g>
		<g>
			
				<rect x="1243.7" y="934.7" transform="matrix(-7.353700e-02 -0.9973 0.9973 -7.353700e-02 345.6759 2305.7263)" fill="#FFFFFF" width="0.3" height="115.1"/>
		</g>
		<g>
			
				<rect x="1185.7" y="1007.2" transform="matrix(-0.9911 -0.1328 0.1328 -0.9911 2388.0894 2173.9329)" fill="#FFFFFF" width="161.7" height="0.3"/>
		</g>
		<g>
			<polygon fill="#FFFFFF" points="1346.8,1018.1 1346.7,1017.9 1442.8,992.2 1442.9,992.5 			"/>
		</g>
		<g>
			
				<rect x="1296.8" y="1003" transform="matrix(-0.8354 -0.5497 0.5497 -0.8354 1878.6954 2568.8792)" fill="#FFFFFF" width="54.5" height="0.3"/>
		</g>
		<g>
			<polygon fill="#FFFFFF" points="1301.3,988.2 1301.3,987.9 1442.8,992.2 1442.8,992.5 			"/>
		</g>
		<g>
			<polygon fill="#FFFFFF" points="1510.6,1022.2 1442.7,992.5 1442.9,992.2 1510.8,1022 			"/>
		</g>
		<g>
			<polygon fill="#FFFFFF" points="1534.5,967.5 1442.8,992.5 1442.9,992.2 1534.5,967.2 			"/>
		</g>
		<g>
			<circle fill="#FFFFFF" cx="1429.8" cy="992.7" r="22"/>
		</g>
		<g opacity="0.6">
			<circle fill="#FFFFFF" cx="1189.3" cy="999.8" r="22.3"/>
		</g>
		<g>
			<circle fill="#FFFFFF" cx="1346.6" cy="1018.2" r="5.6"/>
		</g>
		<g opacity="0.3">
			<circle fill="#FFFFFF" cx="1301.3" cy="988.1" r="9.6"/>
		</g>
		<g opacity="0.6">
			<circle fill="#FFFFFF" cx="1510.8" cy="1022.2" r="9.6"/>
		</g>
		<g>
			<circle fill="#FFFFFF" cx="1095.9" cy="1022.1" r="7.1"/>
		</g>
	</g>
</g>
<g>
	<g opacity="0.6">
		<circle fill="#FFFFFF" cx="2081.3" cy="927.5" r="3.9"/>
	</g>
	<g opacity="0.6">
		<circle fill="#FFFFFF" cx="2198.9" cy="1057" r="7.1"/>
	</g>
	<g opacity="0.6">
		<circle fill="#FFFFFF" cx="2343.7" cy="931.4" r="5.1"/>
	</g>
	<g opacity="0.6">
		<circle fill="#FFFFFF" cx="2367.7" cy="1089.4" r="7.1"/>
	</g>
	<g>
		<g>
			<polygon fill="#FFFFFF" points="2007.3,1022.2 2007.2,1021.9 2097.7,996.4 2097.8,996.7 			"/>
		</g>
		<g>
			<polygon fill="#FFFFFF" points="2097.8,996.7 2031.5,975.7 2031.5,975.4 2097.8,996.4 			"/>
		</g>
		<g>
			
				<rect x="2155" y="934.7" transform="matrix(-7.353700e-02 -0.9973 0.9973 -7.353700e-02 1323.9688 3214.5391)" fill="#FFFFFF" width="0.3" height="115.1"/>
		</g>
		<g>
			
				<rect x="2097" y="1007.2" transform="matrix(-0.9911 -0.1328 0.1328 -0.9911 4202.5771 2294.9558)" fill="#FFFFFF" width="161.7" height="0.3"/>
		</g>
		<g>
			<polygon fill="#FFFFFF" points="2258.1,1018.1 2258,1017.9 2354.1,992.2 2354.1,992.5 			"/>
		</g>
		<g>
			
				<rect x="2208.1" y="1003" transform="matrix(-0.8354 -0.5497 0.5497 -0.8354 3551.2346 3069.7939)" fill="#FFFFFF" width="54.5" height="0.3"/>
		</g>
		<g>
			<polygon fill="#FFFFFF" points="2212.5,988.2 2212.5,987.9 2354.1,992.2 2354.1,992.5 			"/>
		</g>
		<g>
			<polygon fill="#FFFFFF" points="2421.9,1022.2 2354,992.5 2354.2,992.2 2422.1,1022 			"/>
		</g>
		<g>
			<polygon fill="#FFFFFF" points="2445.8,967.5 2354.1,992.5 2354.1,992.2 2445.8,967.2 			"/>
		</g>
		<g>
			<circle fill="#FFFFFF" cx="2341.1" cy="992.7" r="22"/>
		</g>
		<g opacity="0.6">
			<circle fill="#FFFFFF" cx="2100.6" cy="999.8" r="22.3"/>
		</g>
		<g>
			<circle fill="#FFFFFF" cx="2257.8" cy="1018.2" r="5.6"/>
		</g>
		<g opacity="0.3">
			<circle fill="#FFFFFF" cx="2212.5" cy="988.1" r="9.6"/>
		</g>
		<g opacity="0.6">
			<circle fill="#FFFFFF" cx="2422.1" cy="1022.2" r="9.6"/>
		</g>
		<g>
			<circle fill="#FFFFFF" cx="2007.2" cy="1022.1" r="7.1"/>
		</g>
	</g>
</g>
<g>
	<g opacity="0.6">
		<circle fill="#FFFFFF" cx="81.2" cy="927.5" r="3.9"/>
	</g>
	<g opacity="0.6">
		<circle fill="#FFFFFF" cx="198.8" cy="1057" r="7.1"/>
	</g>
	<g opacity="0.6">
		<circle fill="#FFFFFF" cx="343.6" cy="931.4" r="5.1"/>
	</g>
	<g opacity="0.6">
		<circle fill="#FFFFFF" cx="367.7" cy="1089.4" r="7.1"/>
	</g>
	<g>
		<g>
			<polygon fill="#FFFFFF" points="7.2,1022.2 7.1,1021.9 97.6,996.4 97.7,996.7 			"/>
		</g>
		<g>
			<polygon fill="#FFFFFF" points="97.7,996.7 31.5,975.7 31.5,975.4 97.7,996.4 			"/>
		</g>
		<g>
			
				<rect x="154.9" y="934.7" transform="matrix(-7.353700e-02 -0.9973 0.9973 -7.353700e-02 -823.1558 1219.8906)" fill="#FFFFFF" width="0.3" height="115.1"/>
		</g>
		<g>
			
				<rect x="97" y="1007.1" transform="matrix(-0.9911 -0.1328 0.1328 -0.9911 220.2921 2029.267)" fill="#FFFFFF" width="161.7" height="0.3"/>
		</g>
		<g>
			<polygon fill="#FFFFFF" points="258,1018.1 258,1017.9 354,992.2 354.1,992.5 			"/>
		</g>
		<g>
			
				<rect x="208" y="1002.9" transform="matrix(-0.8354 -0.5497 0.5497 -0.8354 -119.5946 1970.2966)" fill="#FFFFFF" width="54.5" height="0.3"/>
		</g>
		<g>
			<polygon fill="#FFFFFF" points="212.5,988.2 212.5,987.9 354,992.2 354,992.5 			"/>
		</g>
		<g>
			<polygon fill="#FFFFFF" points="421.8,1022.2 354,992.5 354.1,992.2 422,1022 			"/>
		</g>
		<g>
			<polygon fill="#FFFFFF" points="445.8,967.5 354,992.5 354.1,992.2 445.8,967.2 			"/>
		</g>
		<g>
			<circle fill="#FFFFFF" cx="341" cy="992.7" r="22"/>
		</g>
		<g opacity="0.6">
			<circle fill="#FFFFFF" cx="100.5" cy="999.8" r="22.3"/>
		</g>
		<g>
			<circle fill="#FFFFFF" cx="257.8" cy="1018.2" r="5.6"/>
		</g>
		<g opacity="0.3">
			<circle fill="#FFFFFF" cx="212.5" cy="988.1" r="9.6"/>
		</g>
		<g opacity="0.6">
			<circle fill="#FFFFFF" cx="422" cy="1022.2" r="9.6"/>
		</g>
		<g>
			<circle fill="#FFFFFF" cx="7.1" cy="1022.1" r="7.1"/>
		</g>
	</g>
</g>
</svg>
