<?xml version="1.0" encoding="utf-8"?>
<!-- Generator: Adobe Illustrator 18.1.1, SVG Export Plug-In . SVG Version: 6.00 Build 0)  -->
<!DOCTYPE svg PUBLIC "-//W3C//DTD SVG 1.1//EN" "http://www.w3.org/Graphics/SVG/1.1/DTD/svg11.dtd">
<svg version="1.1" id="Layer_1" xmlns="http://www.w3.org/2000/svg" xmlns:xlink="http://www.w3.org/1999/xlink" x="0px" y="0px"
	 viewBox="0 0 2000 2000" enable-background="new 0 0 2000 2000" xml:space="preserve">
<g>
	<path d="M544.8,542c51.8,0,94-42,94-94c0-45.8-32.8-83.8-76-92.2V250h715v273.8c0,9.8,8,17.8,17.8,17.8c9.8,0,17.8-8,17.8-17.8
		V232.2c0-9.8-8-17.8-17.8-17.8H544.8c-9.8,0-17.8,8-17.8,17.8V356c-43.3,8.2-76,46.5-76,92.2C451,500,493,542,544.8,542z"/>
	<path d="M2000,1005c0-98-79.5-177.5-177.5-177.5S1645,907,1645,1005c0,92,70,167.8,159.8,176.8V1750H35.8V690.5h1689
		c9.8,0,17.8-8,17.8-17.8s-8-17.8-17.8-17.8H17.8C8,655,0,663,0,672.8v1095c0,9.8,8,17.7,17.8,17.7h1804.8c9.8,0,17.8-8,17.8-17.7
		v-586.2C1930,1172.8,2000,1097,2000,1005z"/>
</g>
</svg>
