<?xml version="1.0" encoding="utf-8"?>
<!-- Generator: Adobe Illustrator 18.1.1, SVG Export Plug-In . SVG Version: 6.00 Build 0)  -->
<!DOCTYPE svg PUBLIC "-//W3C//DTD SVG 1.1//EN" "http://www.w3.org/Graphics/SVG/1.1/DTD/svg11.dtd">
<svg version="1.1" id="Layer_1" xmlns="http://www.w3.org/2000/svg" xmlns:xlink="http://www.w3.org/1999/xlink" x="0px" y="0px"
	 viewBox="0 0 2000 2000" enable-background="new 0 0 2000 2000" xml:space="preserve">
<g>
	<path fill="#4679A3" d="M1975.2,1651.2c-22.8-17.5-53.2-17-75.5-1L969.2,933.5c-3.8-2.8-8.2-4-13-3.5c-4.5,0.5-8.8,3-11.5,6.8
		L703.5,1250l-402-309.5L884.8,183l402,309.5L1159,658.2c-42.8-21.5-96-10.5-126.2,28.8c-34.2,44.5-26,108.5,18.5,142.8
		c44.5,34.2,108.5,26,142.8-18.5c31-40.2,27-96.2-6.8-132l138-179.2c6-7.8,4.5-18.8-3.2-24.5l-429.8-331c-3.8-2.8-8.2-4-13-3.5
		c-4.5,0.5-8.8,3-11.5,6.8L263,933c-2.8,3.8-4,8.2-3.5,13c0.5,4.5,3,8.8,6.7,11.5l429.8,331c3.8,2.8,8.2,4,13,3.5
		c4.5-0.5,8.8-3,11.5-6.8L961.8,972l916.2,705.8c-10.5,25.7-3.2,56.2,19.8,74c27.7,21.2,67.5,16.2,89-11.5
		C2008.2,1712.5,2003,1672.8,1975.2,1651.2z"/>
	<path fill="#4679A3" d="M1181.2,1556h-884c-8-39.8-43.2-69.5-85.2-69.5c-48,0-87,39-87,87s39,87,87,87c42,0,77.2-29.8,85.2-69.5
		h866.5v233.2H35v-251c0-9.8-7.8-17.5-17.5-17.5S0,1563.5,0,1573.2v268.2c0,9.8,7.8,17.5,17.5,17.5h1163.8c9.8,0,17.5-7.8,17.5-17.5
		v-268.2C1198.8,1563.8,1191,1556,1181.2,1556z"/>
</g>
</svg>
