<?xml version="1.0" encoding="utf-8"?>
<!-- Generator: Adobe Illustrator 18.1.1, SVG Export Plug-In . SVG Version: 6.00 Build 0)  -->
<!DOCTYPE svg PUBLIC "-//W3C//DTD SVG 1.1//EN" "http://www.w3.org/Graphics/SVG/1.1/DTD/svg11.dtd">
<svg version="1.1" id="Layer_1" xmlns="http://www.w3.org/2000/svg" xmlns:xlink="http://www.w3.org/1999/xlink" x="0px" y="0px"
	 viewBox="0 0 1920 807.8" enable-background="new 0 0 1920 807.8" xml:space="preserve">
<g>
	<g>
		<path d="M78.9,623.3l0.4,3.7l0.7-3.3l5.4-23.4h3.5l5.2,23.4l0.7,3.4l0.5-3.9l4.1-22.9h4.2l-6.7,33.5H93l-5.6-24.4l-0.3-2l-0.3,2
			L81,633.9h-3.8l-6.6-33.5h4.2L78.9,623.3z"/>
		<path d="M106.2,620.3c0-3.6,0.9-6.5,2.6-8.6c1.8-2.1,4.1-3.2,7-3.2s5.2,1,7,3.1c1.8,2.1,2.7,4.8,2.7,8.4v2.6
			c0,3.6-0.9,6.5-2.6,8.5c-1.7,2.1-4.1,3.1-7,3.1c-2.9,0-5.2-1-6.9-3.1c-1.7-2-2.6-4.8-2.7-8.3V620.3z M110.3,622.6
			c0,2.6,0.5,4.6,1.5,6c1,1.5,2.4,2.2,4.1,2.2c3.6,0,5.4-2.6,5.5-7.8v-2.8c0-2.5-0.5-4.6-1.5-6s-2.4-2.2-4.1-2.2c-1.7,0-3,0.7-4,2.2
			c-1,1.5-1.5,3.5-1.5,6V622.6z"/>
		<path d="M141,612.8c-0.6-0.1-1.2-0.2-1.8-0.2c-2.1,0-3.5,1.1-4.4,3.4v17.8h-4.1V609h4l0.1,2.5c1.1-2,2.6-3,4.6-3
			c0.6,0,1.2,0.1,1.6,0.3L141,612.8z"/>
		<path d="M151.3,622.5l-2.2,2.5v8.9H145v-35.3h4.1v21.1l7.7-10.7h4.9l-7.9,10.4l8.9,14.5H158L151.3,622.5z"/>
		<path d="M187.7,620.3h-5.9v13.5h-4.2v-33.5h9.4c3.3,0,5.8,0.9,7.4,2.6c1.7,1.7,2.5,4.2,2.5,7.5c0,2.1-0.5,3.9-1.4,5.4
			s-2.2,2.7-3.9,3.5l6.5,14.2v0.3h-4.5L187.7,620.3z M181.8,616.7h5.1c1.8,0,3.2-0.6,4.2-1.7c1-1.1,1.6-2.7,1.6-4.6
			c0-4.3-1.9-6.4-5.8-6.4h-5.1V616.7z"/>
		<path d="M210.9,634.3c-3.1,0-5.5-0.9-7.1-2.8s-2.5-4.6-2.5-8.1v-3c0-3.7,0.8-6.6,2.4-8.7c1.6-2.1,3.9-3.2,6.8-3.2
			c2.9,0,5.1,0.9,6.5,2.8c1.4,1.9,2.2,4.7,2.2,8.7v2.7h-13.9v0.6c0,2.7,0.5,4.6,1.5,5.8c1,1.2,2.4,1.8,4.3,1.8
			c1.2,0,2.2-0.2,3.2-0.7c0.9-0.5,1.8-1.2,2.6-2.1l2.1,2.6C217.2,633.1,214.5,634.3,210.9,634.3z M210.4,612c-1.7,0-2.9,0.6-3.7,1.7
			s-1.3,3-1.4,5.4h9.8v-0.6c-0.1-2.4-0.5-4-1.3-5.1S211.9,612,210.4,612z"/>
		<path d="M236.8,633.9c-0.2-0.5-0.4-1.4-0.5-2.7c-1.4,2.1-3.3,3.2-5.5,3.2c-2.3,0-4-0.6-5.3-1.9s-1.9-3-1.9-5.3
			c0-2.5,0.9-4.5,2.6-6c1.7-1.5,4.1-2.2,7.1-2.3h3v-2.6c0-1.5-0.3-2.5-1-3.2c-0.7-0.6-1.7-0.9-3-0.9c-1.2,0-2.2,0.4-3,1.1
			c-0.8,0.7-1.1,1.7-1.1,2.8H224c0-1.3,0.4-2.5,1.1-3.6c0.8-1.2,1.8-2.1,3-2.7c1.3-0.7,2.7-1,4.3-1c2.5,0,4.5,0.6,5.8,1.9
			c1.3,1.3,2,3.1,2,5.5v12.5c0,1.9,0.3,3.6,0.8,5v0.4H236.8z M231.4,630.6c1,0,1.9-0.3,2.9-0.8c0.9-0.6,1.6-1.2,2-2.1v-5.9h-2.3
			c-1.9,0-3.5,0.5-4.6,1.3c-1.1,0.8-1.7,2-1.7,3.5c0,1.4,0.3,2.4,0.9,3.1C229.1,630.3,230.1,630.6,231.4,630.6z"/>
		<path d="M245.7,620.3c0-3.8,0.7-6.8,2.1-8.8c1.4-2,3.5-3,6.2-3c2.4,0,4.2,1,5.6,2.9v-12.9h4.1v35.3h-3.7l-0.2-2.7
			c-1.3,2.1-3.2,3.1-5.7,3.1c-2.6,0-4.6-1-6.1-3c-1.5-2-2.2-4.8-2.2-8.5V620.3z M249.8,622.6c0,2.8,0.4,4.8,1.2,6.1
			c0.8,1.3,2.2,2,4,2c2,0,3.5-1,4.5-3.1v-12.5c-1-2-2.5-3-4.5-3c-1.9,0-3.2,0.7-4,2c-0.8,1.3-1.2,3.3-1.3,6V622.6z"/>
		<path d="M274.6,602.4c0,0.7-0.2,1.3-0.6,1.7c-0.4,0.5-1,0.7-1.7,0.7c-0.8,0-1.3-0.2-1.7-0.7c-0.4-0.5-0.6-1-0.6-1.7
			s0.2-1.3,0.6-1.7c0.4-0.5,1-0.7,1.7-0.7s1.3,0.2,1.7,0.7S274.6,601.7,274.6,602.4z M274.3,633.9h-4.1V609h4.1V633.9z"/>
		<path d="M284.5,609l0.1,2.7c1.6-2.1,3.6-3.1,6-3.1c4.4,0,6.6,2.9,6.7,8.8v16.5h-4v-16.3c0-1.9-0.3-3.3-1-4.1
			c-0.7-0.8-1.6-1.2-2.9-1.2c-1,0-1.9,0.3-2.7,1c-0.8,0.7-1.5,1.6-1.9,2.6v18.1h-4.1V609H284.5z"/>
		<path d="M312.4,634.3c-3.1,0-5.5-0.9-7.1-2.8s-2.5-4.6-2.5-8.1v-3c0-3.7,0.8-6.6,2.4-8.7c1.6-2.1,3.9-3.2,6.8-3.2
			c2.9,0,5.1,0.9,6.5,2.8c1.4,1.9,2.2,4.7,2.2,8.7v2.7h-13.9v0.6c0,2.7,0.5,4.6,1.5,5.8c1,1.2,2.4,1.8,4.3,1.8
			c1.2,0,2.2-0.2,3.2-0.7c0.9-0.5,1.8-1.2,2.6-2.1l2.1,2.6C318.7,633.1,316,634.3,312.4,634.3z M311.9,612c-1.7,0-2.9,0.6-3.7,1.7
			s-1.3,3-1.4,5.4h9.8v-0.6c-0.1-2.4-0.5-4-1.3-5.1S313.4,612,311.9,612z"/>
		<path d="M337.6,627.5c0-0.9-0.3-1.6-1-2.3c-0.7-0.6-1.9-1.4-3.8-2.2c-2.2-0.9-3.7-1.7-4.6-2.3c-0.9-0.6-1.6-1.4-2-2.2
			c-0.4-0.8-0.7-1.8-0.7-2.9c0-2,0.7-3.7,2.2-5c1.5-1.3,3.4-2,5.7-2c2.4,0,4.4,0.7,5.8,2.1c1.5,1.4,2.2,3.2,2.2,5.4h-4
			c0-1.1-0.4-2.1-1.1-2.9s-1.7-1.2-2.9-1.2c-1.2,0-2.1,0.3-2.8,0.9c-0.7,0.6-1,1.4-1,2.5c0,0.8,0.2,1.5,0.7,2c0.5,0.5,1.7,1.2,3.6,2
			c3,1.2,5.1,2.3,6.2,3.5s1.6,2.6,1.6,4.3c0,2.2-0.7,3.9-2.2,5.2s-3.5,1.9-6,1.9c-2.6,0-4.7-0.7-6.3-2.2s-2.4-3.4-2.4-5.7h4.1
			c0,1.4,0.5,2.5,1.3,3.2c0.8,0.8,1.9,1.2,3.4,1.2c1.3,0,2.4-0.3,3.1-0.9C337.3,629.3,337.6,628.5,337.6,627.5z"/>
		<path d="M359.1,627.5c0-0.9-0.3-1.6-1-2.3c-0.7-0.6-1.9-1.4-3.8-2.2c-2.2-0.9-3.7-1.7-4.6-2.3c-0.9-0.6-1.6-1.4-2-2.2
			c-0.4-0.8-0.7-1.8-0.7-2.9c0-2,0.7-3.7,2.2-5c1.5-1.3,3.4-2,5.7-2c2.4,0,4.4,0.7,5.8,2.1c1.5,1.4,2.2,3.2,2.2,5.4h-4
			c0-1.1-0.4-2.1-1.1-2.9s-1.7-1.2-2.9-1.2c-1.2,0-2.1,0.3-2.8,0.9c-0.7,0.6-1,1.4-1,2.5c0,0.8,0.2,1.5,0.7,2c0.5,0.5,1.7,1.2,3.6,2
			c3,1.2,5.1,2.3,6.2,3.5s1.6,2.6,1.6,4.3c0,2.2-0.7,3.9-2.2,5.2s-3.5,1.9-6,1.9c-2.6,0-4.7-0.7-6.3-2.2s-2.4-3.4-2.4-5.7h4.1
			c0,1.4,0.5,2.5,1.3,3.2c0.8,0.8,1.9,1.2,3.4,1.2c1.3,0,2.4-0.3,3.1-0.9C358.7,629.3,359.1,628.5,359.1,627.5z"/>
	</g>
	<g>
		<path d="M459.2,466.7H455v-33.5h4.2V466.7z"/>
		<path d="M469.8,441.9l0.1,2.7c1.6-2.1,3.6-3.1,6-3.1c4.4,0,6.6,2.9,6.7,8.8v16.5h-4v-16.3c0-1.9-0.3-3.3-1-4.1
			c-0.7-0.8-1.6-1.2-2.9-1.2c-1,0-1.9,0.3-2.7,1c-0.8,0.7-1.5,1.6-1.9,2.6v18.1H466v-24.9H469.8z"/>
		<path d="M492.6,441.9l0.1,2.7c1.6-2.1,3.6-3.1,6-3.1c4.4,0,6.6,2.9,6.7,8.8v16.5h-4v-16.3c0-1.9-0.3-3.3-1-4.1
			c-0.7-0.8-1.6-1.2-2.9-1.2c-1,0-1.9,0.3-2.7,1c-0.8,0.7-1.5,1.6-1.9,2.6v18.1h-4.1v-24.9H492.6z"/>
		<path d="M510.7,453.2c0-3.6,0.9-6.5,2.6-8.6c1.8-2.1,4.1-3.2,7-3.2s5.2,1,7,3.1c1.8,2.1,2.7,4.8,2.7,8.4v2.6
			c0,3.6-0.9,6.5-2.6,8.5c-1.7,2.1-4.1,3.1-7,3.1c-2.9,0-5.2-1-6.9-3.1c-1.7-2-2.6-4.8-2.7-8.3V453.2z M514.7,455.5
			c0,2.6,0.5,4.6,1.5,6c1,1.5,2.4,2.2,4.1,2.2c3.6,0,5.4-2.6,5.5-7.8v-2.8c0-2.5-0.5-4.6-1.5-6s-2.4-2.2-4.1-2.2c-1.7,0-3,0.7-4,2.2
			c-1,1.5-1.5,3.5-1.5,6V455.5z"/>
		<path d="M541.9,460.6l4.7-18.7h4.1l-7.4,24.9h-3l-7.5-24.9h4.1L541.9,460.6z"/>
		<path d="M567.4,466.7c-0.2-0.5-0.4-1.4-0.5-2.7c-1.4,2.1-3.3,3.2-5.5,3.2c-2.3,0-4-0.6-5.3-1.9s-1.9-3-1.9-5.3
			c0-2.5,0.9-4.5,2.6-6c1.7-1.5,4.1-2.2,7.1-2.3h3V449c0-1.5-0.3-2.5-1-3.2c-0.7-0.6-1.7-0.9-3-0.9c-1.2,0-2.2,0.4-3,1.1
			c-0.8,0.7-1.1,1.7-1.1,2.8h-4.1c0-1.3,0.4-2.5,1.1-3.6c0.8-1.2,1.8-2.1,3-2.7c1.3-0.7,2.7-1,4.3-1c2.5,0,4.5,0.6,5.8,1.9
			c1.3,1.3,2,3.1,2,5.5v12.5c0,1.9,0.3,3.6,0.8,5v0.4H567.4z M562,463.5c1,0,1.9-0.3,2.9-0.8c0.9-0.6,1.6-1.2,2-2.1v-5.9h-2.3
			c-1.9,0-3.5,0.5-4.6,1.3c-1.1,0.8-1.7,2-1.7,3.5c0,1.4,0.3,2.4,0.9,3.1C559.7,463.2,560.6,463.5,562,463.5z"/>
		<path d="M582.5,435.9v6h3.7v3.3h-3.7v15.4c0,1,0.2,1.7,0.5,2.2c0.3,0.5,0.9,0.8,1.7,0.8c0.5,0,1.1-0.1,1.6-0.3l0,3.4
			c-0.9,0.3-1.9,0.5-2.8,0.5c-1.6,0-2.8-0.6-3.7-1.7c-0.8-1.1-1.3-2.8-1.3-4.9v-15.4h-3.8v-3.3h3.8v-6H582.5z"/>
		<path d="M595.8,435.3c0,0.7-0.2,1.3-0.6,1.7c-0.4,0.5-1,0.7-1.7,0.7c-0.8,0-1.3-0.2-1.7-0.7c-0.4-0.5-0.6-1-0.6-1.7
			s0.2-1.3,0.6-1.7c0.4-0.5,1-0.7,1.7-0.7s1.3,0.2,1.7,0.7S595.8,434.6,595.8,435.3z M595.4,466.7h-4.1v-24.9h4.1V466.7z"/>
		<path d="M601,453.2c0-3.6,0.9-6.5,2.6-8.6c1.8-2.1,4.1-3.2,7-3.2s5.2,1,7,3.1c1.8,2.1,2.7,4.8,2.7,8.4v2.6c0,3.6-0.9,6.5-2.6,8.5
			c-1.7,2.1-4.1,3.1-7,3.1c-2.9,0-5.2-1-6.9-3.1c-1.7-2-2.6-4.8-2.7-8.3V453.2z M605,455.5c0,2.6,0.5,4.6,1.5,6
			c1,1.5,2.4,2.2,4.1,2.2c3.6,0,5.4-2.6,5.5-7.8v-2.8c0-2.5-0.5-4.6-1.5-6s-2.4-2.2-4.1-2.2c-1.7,0-3,0.7-4,2.2
			c-1,1.5-1.5,3.5-1.5,6V455.5z"/>
		<path d="M629.3,441.9l0.1,2.7c1.6-2.1,3.6-3.1,6-3.1c4.4,0,6.6,2.9,6.7,8.8v16.5h-4v-16.3c0-1.9-0.3-3.3-1-4.1
			c-0.7-0.8-1.6-1.2-2.9-1.2c-1,0-1.9,0.3-2.7,1c-0.8,0.7-1.5,1.6-1.9,2.6v18.1h-4.1v-24.9H629.3z"/>
		<path d="M669.7,453.2h-5.9v13.5h-4.2v-33.5h9.4c3.3,0,5.8,0.9,7.4,2.6c1.7,1.7,2.5,4.2,2.5,7.5c0,2.1-0.5,3.9-1.4,5.4
			s-2.2,2.7-3.9,3.5l6.5,14.2v0.3h-4.5L669.7,453.2z M663.8,449.6h5.1c1.8,0,3.2-0.6,4.2-1.7c1-1.1,1.6-2.7,1.6-4.6
			c0-4.3-1.9-6.4-5.8-6.4h-5.1V449.6z"/>
		<path d="M692.9,467.2c-3.1,0-5.5-0.9-7.1-2.8s-2.5-4.6-2.5-8.1v-3c0-3.7,0.8-6.6,2.4-8.7c1.6-2.1,3.9-3.2,6.8-3.2
			c2.9,0,5.1,0.9,6.5,2.8c1.4,1.9,2.2,4.7,2.2,8.7v2.7h-13.9v0.6c0,2.7,0.5,4.6,1.5,5.8c1,1.2,2.4,1.8,4.3,1.8
			c1.2,0,2.2-0.2,3.2-0.7c0.9-0.5,1.8-1.2,2.6-2.1l2.1,2.6C699.2,466,696.5,467.2,692.9,467.2z M692.4,444.9c-1.7,0-2.9,0.6-3.7,1.7
			s-1.3,3-1.4,5.4h9.8v-0.6c-0.1-2.4-0.5-4-1.3-5.1S694,444.9,692.4,444.9z"/>
		<path d="M718.8,466.7c-0.2-0.5-0.4-1.4-0.5-2.7c-1.4,2.1-3.3,3.2-5.5,3.2c-2.3,0-4-0.6-5.3-1.9s-1.9-3-1.9-5.3
			c0-2.5,0.9-4.5,2.6-6c1.7-1.5,4.1-2.2,7.1-2.3h3V449c0-1.5-0.3-2.5-1-3.2c-0.7-0.6-1.7-0.9-3-0.9c-1.2,0-2.2,0.4-3,1.1
			c-0.8,0.7-1.1,1.7-1.1,2.8H706c0-1.3,0.4-2.5,1.1-3.6c0.8-1.2,1.8-2.1,3-2.7c1.3-0.7,2.7-1,4.3-1c2.5,0,4.5,0.6,5.8,1.9
			c1.3,1.3,2,3.1,2,5.5v12.5c0,1.9,0.3,3.6,0.8,5v0.4H718.8z M713.4,463.5c1,0,1.9-0.3,2.9-0.8c0.9-0.6,1.6-1.2,2-2.1v-5.9h-2.3
			c-1.9,0-3.5,0.5-4.6,1.3c-1.1,0.8-1.7,2-1.7,3.5c0,1.4,0.3,2.4,0.9,3.1C711.1,463.2,712.1,463.5,713.4,463.5z"/>
		<path d="M727.7,453.2c0-3.8,0.7-6.8,2.1-8.8c1.4-2,3.5-3,6.2-3c2.4,0,4.2,1,5.6,2.9v-12.9h4.1v35.3H742l-0.2-2.7
			c-1.3,2.1-3.2,3.1-5.7,3.1c-2.6,0-4.6-1-6.1-3c-1.5-2-2.2-4.8-2.2-8.5V453.2z M731.8,455.5c0,2.8,0.4,4.8,1.2,6.1
			c0.8,1.3,2.2,2,4,2c2,0,3.5-1,4.5-3.1V448c-1-2-2.5-3-4.5-3c-1.9,0-3.2,0.7-4,2c-0.8,1.3-1.2,3.3-1.3,6V455.5z"/>
		<path d="M756.7,435.3c0,0.7-0.2,1.3-0.6,1.7c-0.4,0.5-1,0.7-1.7,0.7c-0.8,0-1.3-0.2-1.7-0.7c-0.4-0.5-0.6-1-0.6-1.7
			s0.2-1.3,0.6-1.7c0.4-0.5,1-0.7,1.7-0.7s1.3,0.2,1.7,0.7S756.7,434.6,756.7,435.3z M756.3,466.7h-4.1v-24.9h4.1V466.7z"/>
		<path d="M766.6,441.9l0.1,2.7c1.6-2.1,3.6-3.1,6-3.1c4.4,0,6.6,2.9,6.7,8.8v16.5h-4v-16.3c0-1.9-0.3-3.3-1-4.1
			c-0.7-0.8-1.6-1.2-2.9-1.2c-1,0-1.9,0.3-2.7,1c-0.8,0.7-1.5,1.6-1.9,2.6v18.1h-4.1v-24.9H766.6z"/>
		<path d="M794.4,467.2c-3.1,0-5.5-0.9-7.1-2.8s-2.5-4.6-2.5-8.1v-3c0-3.7,0.8-6.6,2.4-8.7c1.6-2.1,3.9-3.2,6.8-3.2
			c2.9,0,5.1,0.9,6.5,2.8c1.4,1.9,2.2,4.7,2.2,8.7v2.7h-13.9v0.6c0,2.7,0.5,4.6,1.5,5.8c1,1.2,2.4,1.8,4.3,1.8
			c1.2,0,2.2-0.2,3.2-0.7c0.9-0.5,1.8-1.2,2.6-2.1l2.1,2.6C800.7,466,798,467.2,794.4,467.2z M793.9,444.9c-1.7,0-2.9,0.6-3.7,1.7
			s-1.3,3-1.4,5.4h9.8v-0.6c-0.1-2.4-0.5-4-1.3-5.1S795.5,444.9,793.9,444.9z"/>
		<path d="M819.6,460.4c0-0.9-0.3-1.6-1-2.3c-0.7-0.6-1.9-1.4-3.8-2.2c-2.2-0.9-3.7-1.7-4.6-2.3c-0.9-0.6-1.6-1.4-2-2.2
			c-0.4-0.8-0.7-1.8-0.7-2.9c0-2,0.7-3.7,2.2-5c1.5-1.3,3.4-2,5.7-2c2.4,0,4.4,0.7,5.8,2.1c1.5,1.4,2.2,3.2,2.2,5.4h-4
			c0-1.1-0.4-2.1-1.1-2.9s-1.7-1.2-2.9-1.2c-1.2,0-2.1,0.3-2.8,0.9c-0.7,0.6-1,1.4-1,2.5c0,0.8,0.2,1.5,0.7,2c0.5,0.5,1.7,1.2,3.6,2
			c3,1.2,5.1,2.3,6.2,3.5s1.6,2.6,1.6,4.3c0,2.2-0.7,3.9-2.2,5.2s-3.5,1.9-6,1.9c-2.6,0-4.7-0.7-6.3-2.2s-2.4-3.4-2.4-5.7h4.1
			c0,1.4,0.5,2.5,1.3,3.2c0.8,0.8,1.9,1.2,3.4,1.2c1.3,0,2.4-0.3,3.1-0.9C819.3,462.2,819.6,461.4,819.6,460.4z"/>
		<path d="M841.1,460.4c0-0.9-0.3-1.6-1-2.3c-0.7-0.6-1.9-1.4-3.8-2.2c-2.2-0.9-3.7-1.7-4.6-2.3c-0.9-0.6-1.6-1.4-2-2.2
			c-0.4-0.8-0.7-1.8-0.7-2.9c0-2,0.7-3.7,2.2-5c1.5-1.3,3.4-2,5.7-2c2.4,0,4.4,0.7,5.8,2.1c1.5,1.4,2.2,3.2,2.2,5.4h-4
			c0-1.1-0.4-2.1-1.1-2.9s-1.7-1.2-2.9-1.2c-1.2,0-2.1,0.3-2.8,0.9c-0.7,0.6-1,1.4-1,2.5c0,0.8,0.2,1.5,0.7,2c0.5,0.5,1.7,1.2,3.6,2
			c3,1.2,5.1,2.3,6.2,3.5s1.6,2.6,1.6,4.3c0,2.2-0.7,3.9-2.2,5.2s-3.5,1.9-6,1.9c-2.6,0-4.7-0.7-6.3-2.2s-2.4-3.4-2.4-5.7h4.1
			c0,1.4,0.5,2.5,1.3,3.2c0.8,0.8,1.9,1.2,3.4,1.2c1.3,0,2.4-0.3,3.1-0.9C840.7,462.2,841.1,461.4,841.1,460.4z"/>
	</g>
	<g>
		<path d="M950.8,299.3h-4.2v-33.5h4.2V299.3z"/>
		<path d="M961.4,274.4l0.1,2.7c1.6-2.1,3.6-3.1,6-3.1c4.4,0,6.6,2.9,6.7,8.8v16.5h-4V283c0-1.9-0.3-3.3-1-4.1
			c-0.7-0.8-1.6-1.2-2.9-1.2c-1,0-1.9,0.3-2.7,1s-1.5,1.6-1.9,2.6v18.1h-4.1v-24.9H961.4z"/>
		<path d="M984.2,274.4l0.1,2.7c1.6-2.1,3.6-3.1,6-3.1c4.4,0,6.6,2.9,6.7,8.8v16.5h-4V283c0-1.9-0.3-3.3-1-4.1
			c-0.7-0.8-1.6-1.2-2.9-1.2c-1,0-1.9,0.3-2.7,1c-0.8,0.7-1.5,1.6-1.9,2.6v18.1h-4.1v-24.9H984.2z"/>
		<path d="M1002.3,285.7c0-3.6,0.9-6.5,2.6-8.6c1.8-2.1,4.1-3.2,7-3.2c2.9,0,5.2,1,7,3.1c1.8,2.1,2.7,4.8,2.7,8.4v2.6
			c0,3.6-0.9,6.5-2.6,8.6c-1.7,2.1-4.1,3.1-7,3.1c-2.9,0-5.2-1-6.9-3.1c-1.7-2-2.6-4.8-2.7-8.3V285.7z M1006.3,288.1
			c0,2.6,0.5,4.6,1.5,6c1,1.5,2.4,2.2,4.1,2.2c3.6,0,5.4-2.6,5.5-7.8v-2.8c0-2.5-0.5-4.6-1.5-6c-1-1.5-2.4-2.2-4.1-2.2
			c-1.7,0-3,0.7-4,2.2c-1,1.5-1.5,3.5-1.5,6V288.1z"/>
		<path d="M1033.4,293.1l4.7-18.7h4.1l-7.4,24.9h-3l-7.5-24.9h4.1L1033.4,293.1z"/>
		<path d="M1059,299.3c-0.2-0.5-0.4-1.4-0.5-2.7c-1.4,2.1-3.3,3.2-5.5,3.2c-2.3,0-4-0.6-5.3-1.9c-1.3-1.3-1.9-3-1.9-5.3
			c0-2.5,0.9-4.5,2.6-6s4.1-2.2,7.1-2.3h3v-2.6c0-1.5-0.3-2.5-1-3.2c-0.7-0.6-1.7-0.9-3-0.9c-1.2,0-2.2,0.4-3,1.1
			c-0.8,0.7-1.1,1.7-1.1,2.8h-4.1c0-1.3,0.4-2.5,1.1-3.6s1.8-2.1,3-2.7c1.3-0.7,2.7-1,4.3-1c2.5,0,4.5,0.6,5.8,1.9s2,3.1,2,5.5v12.5
			c0,1.9,0.3,3.6,0.8,5v0.4H1059z M1053.6,296.1c1,0,1.9-0.3,2.8-0.8s1.6-1.2,2-2.1v-5.9h-2.3c-1.9,0-3.5,0.5-4.6,1.3
			c-1.1,0.8-1.7,2-1.7,3.5c0,1.4,0.3,2.4,0.9,3.1C1051.3,295.7,1052.2,296.1,1053.6,296.1z"/>
		<path d="M1074.1,268.4v6h3.7v3.3h-3.7v15.4c0,1,0.2,1.7,0.5,2.2c0.3,0.5,0.9,0.8,1.7,0.8c0.5,0,1.1-0.1,1.6-0.3l0,3.4
			c-0.9,0.3-1.9,0.5-2.8,0.5c-1.6,0-2.8-0.6-3.7-1.7c-0.8-1.1-1.3-2.8-1.3-4.9v-15.4h-3.8v-3.3h3.8v-6H1074.1z"/>
		<path d="M1087.3,267.8c0,0.7-0.2,1.3-0.6,1.7s-1,0.7-1.7,0.7c-0.8,0-1.3-0.2-1.7-0.7s-0.6-1-0.6-1.7s0.2-1.3,0.6-1.7
			c0.4-0.5,1-0.7,1.7-0.7c0.8,0,1.3,0.2,1.7,0.7C1087.2,266.6,1087.3,267.2,1087.3,267.8z M1087,299.3h-4.1v-24.9h4.1V299.3z"/>
		<path d="M1092.6,285.7c0-3.6,0.9-6.5,2.6-8.6c1.8-2.1,4.1-3.2,7-3.2c2.9,0,5.2,1,7,3.1c1.8,2.1,2.7,4.8,2.7,8.4v2.6
			c0,3.6-0.9,6.5-2.6,8.6c-1.7,2.1-4.1,3.1-7,3.1c-2.9,0-5.2-1-6.9-3.1c-1.7-2-2.6-4.8-2.7-8.3V285.7z M1096.6,288.1
			c0,2.6,0.5,4.6,1.5,6c1,1.5,2.4,2.2,4.1,2.2c3.6,0,5.4-2.6,5.5-7.8v-2.8c0-2.5-0.5-4.6-1.5-6c-1-1.5-2.4-2.2-4.1-2.2
			c-1.7,0-3,0.7-4,2.2c-1,1.5-1.5,3.5-1.5,6V288.1z"/>
		<path d="M1120.9,274.4l0.1,2.7c1.6-2.1,3.6-3.1,6-3.1c4.4,0,6.6,2.9,6.7,8.8v16.5h-4V283c0-1.9-0.3-3.3-1-4.1
			c-0.7-0.8-1.6-1.2-2.9-1.2c-1,0-1.9,0.3-2.7,1c-0.8,0.7-1.5,1.6-1.9,2.6v18.1h-4.1v-24.9H1120.9z"/>
		<path d="M1169.8,269.4h-8.8v29.9h-4.2v-29.9h-8.8v-3.6h21.8V269.4z"/>
		<path d="M1180.8,299.8c-3.1,0-5.5-0.9-7.1-2.8c-1.7-1.8-2.5-4.6-2.5-8.1v-3c0-3.7,0.8-6.6,2.4-8.7c1.6-2.1,3.9-3.2,6.8-3.2
			c2.9,0,5.1,0.9,6.5,2.8s2.2,4.7,2.2,8.7v2.7h-13.9v0.6c0,2.7,0.5,4.6,1.5,5.8c1,1.2,2.4,1.8,4.3,1.8c1.2,0,2.2-0.2,3.2-0.7
			c0.9-0.5,1.8-1.2,2.6-2.1l2.1,2.6C1187.1,298.5,1184.4,299.8,1180.8,299.8z M1180.3,277.5c-1.7,0-2.9,0.6-3.7,1.7
			c-0.8,1.2-1.3,3-1.4,5.4h9.8V284c-0.1-2.4-0.5-4-1.3-5.1S1181.9,277.5,1180.3,277.5z"/>
		<path d="M1206.8,299.3c-0.2-0.5-0.4-1.4-0.5-2.7c-1.4,2.1-3.3,3.2-5.5,3.2c-2.3,0-4-0.6-5.3-1.9c-1.3-1.3-1.9-3-1.9-5.3
			c0-2.5,0.9-4.5,2.6-6s4.1-2.2,7.1-2.3h3v-2.6c0-1.5-0.3-2.5-1-3.2c-0.7-0.6-1.7-0.9-3-0.9c-1.2,0-2.2,0.4-3,1.1
			c-0.8,0.7-1.1,1.7-1.1,2.8h-4.1c0-1.3,0.4-2.5,1.1-3.6s1.8-2.1,3-2.7c1.3-0.7,2.7-1,4.3-1c2.5,0,4.5,0.6,5.8,1.9s2,3.1,2,5.5v12.5
			c0,1.9,0.3,3.6,0.8,5v0.4H1206.8z M1201.3,296.1c1,0,1.9-0.3,2.8-0.8s1.6-1.2,2-2.1v-5.9h-2.3c-1.9,0-3.5,0.5-4.6,1.3
			c-1.1,0.8-1.7,2-1.7,3.5c0,1.4,0.3,2.4,0.9,3.1C1199,295.7,1200,296.1,1201.3,296.1z"/>
		<path d="M1220.3,274.4l0.1,2.3c1.5-1.8,3.5-2.8,6-2.8c2.8,0,4.7,1.2,5.8,3.6c1.6-2.4,3.7-3.6,6.5-3.6c4.6,0,6.9,2.9,7,8.6v16.8h-4
			v-16.4c0-1.8-0.3-3.2-1-4c-0.6-0.9-1.7-1.3-3.3-1.3c-1.2,0-2.2,0.5-3,1.4c-0.8,1-1.2,2.2-1.3,3.6v16.7h-4.1v-16.5
			c0-3.4-1.4-5.2-4.2-5.2c-2.1,0-3.5,1-4.3,3.1v18.6h-4v-24.9H1220.3z"/>
		<path d="M1270.5,292.1l3.8-17.7h4l-6.1,24.9h-3.2l-4.9-17.8l-4.7,17.8h-3.3l-6-24.9h4l3.9,17.3l4.6-17.3h3.2L1270.5,292.1z"/>
		<path d="M1281.7,285.7c0-3.6,0.9-6.5,2.6-8.6c1.8-2.1,4.1-3.2,7-3.2c2.9,0,5.2,1,7,3.1c1.8,2.1,2.7,4.8,2.7,8.4v2.6
			c0,3.6-0.9,6.5-2.6,8.6c-1.7,2.1-4.1,3.1-7,3.1c-2.9,0-5.2-1-6.9-3.1c-1.7-2-2.6-4.8-2.7-8.3V285.7z M1285.7,288.1
			c0,2.6,0.5,4.6,1.5,6c1,1.5,2.4,2.2,4.1,2.2c3.6,0,5.4-2.6,5.5-7.8v-2.8c0-2.5-0.5-4.6-1.5-6c-1-1.5-2.4-2.2-4.1-2.2
			c-1.7,0-3,0.7-4,2.2c-1,1.5-1.5,3.5-1.5,6V288.1z"/>
		<path d="M1316.4,278.2c-0.6-0.1-1.2-0.2-1.8-0.2c-2.1,0-3.5,1.1-4.4,3.4v17.8h-4.1v-24.9h4l0.1,2.5c1.1-2,2.6-3,4.6-3
			c0.6,0,1.2,0.1,1.6,0.3L1316.4,278.2z"/>
		<path d="M1326.7,287.9l-2.2,2.5v8.9h-4.1V264h4.1v21.1l7.7-10.7h4.9l-7.9,10.4l8.9,14.5h-4.7L1326.7,287.9z"/>
	</g>
	<g>
		<path fill="#8F56A3" d="M1911,170.3h-36.6c-0.3,0-0.5-0.2-0.5-0.5s0.2-0.5,0.5-0.5h36.6c0.3,0,0.5,0.2,0.5,0.5
			S1911.3,170.3,1911,170.3z"/>
	</g>
	<g>
		<path fill="#8F56A3" d="M1848.5,170.3H1413c-0.3,0-0.5-0.2-0.5-0.5s0.2-0.5,0.5-0.5h435.5c0.3,0,0.5,0.2,0.5,0.5
			S1848.7,170.3,1848.5,170.3z"/>
	</g>
	<g opacity="0.3">
		<path d="M1413,333.4c-0.3,0-0.5-0.2-0.5-0.5V169.8c0-0.3,0.2-0.5,0.5-0.5s0.5,0.2,0.5,0.5v163.1
			C1413.5,333.2,1413.3,333.4,1413,333.4z"/>
	</g>
	<g>
		<path fill="#6BB6E5" d="M1151.8,333.4H915c-0.3,0-0.5-0.2-0.5-0.5s0.2-0.5,0.5-0.5h236.9c0.3,0,0.5,0.2,0.5,0.5
			S1152.1,333.4,1151.8,333.4z"/>
	</g>
	<g>
		<path fill="#6BB6E5" d="M1413,333.4h-238.9c-0.3,0-0.5-0.2-0.5-0.5s0.2-0.5,0.5-0.5H1413c0.3,0,0.5,0.2,0.5,0.5
			S1413.3,333.4,1413,333.4z"/>
	</g>
	<g opacity="0.85">
		<path d="M915,485.7c-0.3,0-0.5-0.2-0.5-0.5V332.9c0-0.3,0.2-0.5,0.5-0.5s0.5,0.2,0.5,0.5v152.3C915.5,485.4,915.2,485.7,915,485.7
			z"/>
	</g>
	<g>
		<path fill="#FBB040" d="M886.2,496.5H416.9c-0.3,0-0.5-0.2-0.5-0.5s0.2-0.5,0.5-0.5h469.2c0.3,0,0.5,0.2,0.5,0.5
			S886.4,496.5,886.2,496.5z"/>
	</g>
	<g opacity="0.75">
		<path d="M416.9,567.9c-0.3,0-0.5-0.2-0.5-0.5V496c0-0.3,0.2-0.5,0.5-0.5s0.5,0.2,0.5,0.5v71.3
			C417.4,567.6,417.2,567.9,416.9,567.9z"/>
	</g>
	<g opacity="0.75">
		<path d="M416.9,659.7c-0.3,0-0.5-0.2-0.5-0.5v-76.4c0-0.3,0.2-0.5,0.5-0.5s0.5,0.2,0.5,0.5v76.4
			C417.4,659.5,417.2,659.7,416.9,659.7z"/>
	</g>
	<g>
		<path fill="#92BE76" d="M416.9,659.7H49.7c-0.3,0-0.5-0.2-0.5-0.5s0.2-0.5,0.5-0.5h367.3c0.3,0,0.5,0.2,0.5,0.5
			S417.2,659.7,416.9,659.7z"/>
	</g>
	<g>
		<path fill="#E1673F" d="M30.6,659.7H11c-0.3,0-0.5-0.2-0.5-0.5s0.2-0.5,0.5-0.5h19.6c0.3,0,0.5,0.2,0.5,0.5S30.9,659.7,30.6,659.7
			z"/>
	</g>
	<g>
		<path d="M1438.6,203h2.2v29.1h14.3v1.9h-16.5V203z"/>
		<path d="M1457.9,222.8c0-1.9,0.3-3.5,0.8-5c0.5-1.5,1.3-2.7,2.2-3.7c0.9-1,2-1.8,3.2-2.4c1.2-0.5,2.4-0.8,3.6-0.8
			c2.7,0,4.8,0.9,6.4,2.7c1.5,1.8,2.3,4.4,2.3,7.7c0,0.3,0,0.6,0,0.8c0,0.3,0,0.6-0.1,0.8h-16.3c0,1.4,0.2,2.7,0.7,3.9
			c0.4,1.2,1,2.2,1.7,3.1c0.7,0.9,1.6,1.5,2.7,2c1,0.5,2.2,0.7,3.5,0.7c1.2,0,2.3-0.2,3.3-0.5c1-0.4,1.9-0.9,2.8-1.5l0.8,1.6
			c-0.9,0.5-1.9,1-3,1.5s-2.5,0.7-4.1,0.7c-1.4,0-2.8-0.3-4.1-0.8c-1.3-0.5-2.4-1.3-3.3-2.3s-1.7-2.3-2.2-3.7
			C1458.2,226.3,1457.9,224.6,1457.9,222.8z M1474.5,221.4c0-2.9-0.6-5.1-1.8-6.6c-1.2-1.5-2.8-2.2-4.8-2.2c-1,0-1.9,0.2-2.8,0.6
			c-0.9,0.4-1.7,1-2.4,1.7s-1.3,1.7-1.7,2.8c-0.5,1.1-0.7,2.3-0.9,3.6H1474.5z"/>
		<path d="M1480.6,228.4c0-2.5,1.2-4.4,3.5-5.7s6-2.3,11.1-2.8c0-0.8,0-1.7-0.2-2.6c-0.1-0.9-0.4-1.6-0.8-2.3
			c-0.4-0.7-0.9-1.2-1.6-1.6s-1.6-0.6-2.7-0.6c-1.5,0-2.9,0.3-4.2,0.9c-1.3,0.6-2.3,1.2-3,1.7l-0.9-1.6c0.4-0.3,0.9-0.6,1.5-0.9
			s1.2-0.7,1.9-0.9c0.7-0.3,1.5-0.5,2.3-0.7c0.8-0.2,1.7-0.3,2.6-0.3c1.3,0,2.5,0.2,3.4,0.7s1.6,1.1,2.2,1.9c0.6,0.8,1,1.7,1.2,2.8
			c0.2,1.1,0.4,2.2,0.4,3.4V234h-1.7l-0.2-2.9h-0.1c-1.2,0.9-2.4,1.7-3.7,2.4c-1.3,0.7-2.8,1.1-4.3,1.1c-0.9,0-1.8-0.1-2.5-0.4
			c-0.8-0.3-1.5-0.6-2.1-1.1c-0.6-0.5-1.1-1.1-1.4-1.9C1480.8,230.4,1480.6,229.4,1480.6,228.4z M1482.8,228.3
			c0,1.6,0.5,2.8,1.4,3.5c0.9,0.7,2.1,1,3.3,1c1.3,0,2.6-0.3,3.8-0.9c1.2-0.6,2.5-1.5,3.9-2.7v-7.7c-2.3,0.3-4.3,0.6-5.9,1
			c-1.6,0.4-2.9,0.9-3.8,1.5c-1,0.6-1.7,1.2-2.1,1.9C1483,226.6,1482.8,227.4,1482.8,228.3z"/>
		<path d="M1503.5,222.8c0-1.8,0.3-3.5,0.8-4.9c0.5-1.5,1.3-2.7,2.2-3.8s2-1.8,3.2-2.4c1.2-0.5,2.5-0.8,3.8-0.8
			c1.4,0,2.6,0.2,3.6,0.7c1,0.5,2.1,1.2,3.2,2l-0.1-4.1v-9.3h2.1V234h-1.8l-0.2-2.9h-0.1c-0.9,0.9-2,1.7-3.2,2.4
			c-1.2,0.7-2.6,1.1-4.1,1.1c-2.9,0-5.1-1-6.8-3C1504.3,229.5,1503.5,226.6,1503.5,222.8z M1505.7,222.8c0,1.5,0.2,2.9,0.5,4.1
			c0.3,1.2,0.8,2.3,1.4,3.1c0.6,0.9,1.4,1.5,2.3,2s2,0.7,3.2,0.7c1.3,0,2.5-0.3,3.6-1s2.3-1.6,3.5-2.8v-13.4
			c-1.2-1.1-2.3-1.8-3.4-2.3c-1.1-0.4-2.1-0.7-3.2-0.7c-1.1,0-2.2,0.3-3.2,0.8c-1,0.5-1.8,1.2-2.5,2.1c-0.7,0.9-1.3,2-1.7,3.2
			C1505.9,220,1505.7,221.3,1505.7,222.8z"/>
		<path d="M1529.1,222.8c0-1.9,0.3-3.5,0.8-5c0.5-1.5,1.3-2.7,2.2-3.7c0.9-1,2-1.8,3.2-2.4c1.2-0.5,2.4-0.8,3.6-0.8
			c2.7,0,4.8,0.9,6.4,2.7c1.5,1.8,2.3,4.4,2.3,7.7c0,0.3,0,0.6,0,0.8c0,0.3,0,0.6-0.1,0.8h-16.3c0,1.4,0.2,2.7,0.7,3.9
			c0.4,1.2,1,2.2,1.7,3.1c0.7,0.9,1.6,1.5,2.7,2c1,0.5,2.2,0.7,3.5,0.7c1.2,0,2.3-0.2,3.3-0.5c1-0.4,1.9-0.9,2.8-1.5l0.8,1.6
			c-0.9,0.5-1.9,1-3,1.5s-2.5,0.7-4.1,0.7c-1.4,0-2.8-0.3-4.1-0.8c-1.3-0.5-2.4-1.3-3.3-2.3s-1.7-2.3-2.2-3.7
			C1529.3,226.3,1529.1,224.6,1529.1,222.8z M1545.6,221.4c0-2.9-0.6-5.1-1.8-6.6c-1.2-1.5-2.8-2.2-4.8-2.2c-1,0-1.9,0.2-2.8,0.6
			c-0.9,0.4-1.7,1-2.4,1.7s-1.3,1.7-1.7,2.8c-0.5,1.1-0.7,2.3-0.9,3.6H1545.6z"/>
		<path d="M1553.7,211.4h1.8l0.2,4.2h0.1c0.8-1.4,1.7-2.6,2.8-3.4c1.1-0.9,2.3-1.3,3.6-1.3c0.4,0,0.8,0,1.2,0.1
			c0.3,0.1,0.7,0.2,1.1,0.4l-0.5,1.9c-0.4-0.2-0.7-0.3-1-0.3c-0.3,0-0.6-0.1-1.1-0.1c-1,0-2.1,0.4-3.2,1.3c-1.1,0.9-2.1,2.4-3,4.5
			V234h-2.1V211.4z"/>
		<path d="M1566.5,229.9c1,0.8,2,1.5,3.1,2s2.5,0.8,4.1,0.8c1.8,0,3.1-0.4,4-1.3s1.3-1.9,1.3-3.1c0-0.7-0.2-1.3-0.5-1.8
			c-0.3-0.5-0.8-1-1.3-1.4c-0.5-0.4-1.1-0.7-1.8-1c-0.6-0.3-1.3-0.5-2-0.8c-0.8-0.3-1.7-0.6-2.6-1c-0.9-0.3-1.6-0.8-2.3-1.2
			c-0.7-0.5-1.2-1.1-1.7-1.7s-0.6-1.5-0.6-2.5c0-0.8,0.2-1.6,0.5-2.3s0.8-1.4,1.4-1.9c0.6-0.5,1.4-1,2.3-1.3s1.9-0.5,3.1-0.5
			s2.4,0.2,3.5,0.7s2.1,1,2.9,1.7l-1.1,1.5c-0.8-0.6-1.6-1-2.4-1.4s-1.9-0.6-3-0.6c-0.9,0-1.6,0.1-2.3,0.4c-0.6,0.2-1.2,0.5-1.6,0.9
			c-0.4,0.4-0.7,0.8-0.9,1.3c-0.2,0.5-0.3,1-0.3,1.5c0,0.7,0.1,1.2,0.4,1.7c0.3,0.5,0.7,0.9,1.2,1.2c0.5,0.3,1.1,0.7,1.7,0.9
			c0.6,0.3,1.3,0.5,2,0.8c0.9,0.3,1.8,0.7,2.6,1c0.9,0.3,1.7,0.8,2.4,1.3s1.3,1.1,1.7,1.9s0.7,1.7,0.7,2.8c0,0.8-0.2,1.7-0.5,2.4
			c-0.3,0.8-0.8,1.4-1.5,2c-0.7,0.6-1.5,1-2.4,1.4c-0.9,0.3-2,0.5-3.2,0.5c-1.7,0-3.2-0.3-4.7-0.9s-2.6-1.3-3.6-2.2L1566.5,229.9z"
			/>
		<path d="M1587.2,200.2h2.1v9.8v5c1.2-1.2,2.4-2.2,3.6-2.9c1.2-0.8,2.6-1.2,4.2-1.2c2.4,0,4.1,0.7,5.2,2.1s1.6,3.6,1.6,6.5V234
			h-2.1v-14.2c0-2.4-0.4-4.2-1.2-5.3c-0.8-1.1-2.1-1.7-4-1.7c-1.3,0-2.6,0.4-3.7,1.1c-1.1,0.7-2.3,1.8-3.7,3.2v17h-2.1V200.2z"/>
		<path d="M1613.1,206c-0.5,0-1-0.2-1.3-0.5c-0.4-0.3-0.5-0.8-0.5-1.3c0-0.6,0.2-1.1,0.5-1.4c0.4-0.3,0.8-0.5,1.3-0.5
			c0.5,0,1,0.2,1.3,0.5c0.4,0.3,0.5,0.8,0.5,1.4c0,0.5-0.2,1-0.5,1.3C1614.1,205.8,1613.7,206,1613.1,206z M1612.1,211.4h2.1V234
			h-2.1V211.4z"/>
		<path d="M1624.9,236v8.2h-2.1v-32.8h1.8l0.2,2.8h0.1c1.1-0.9,2.3-1.7,3.6-2.4c1.3-0.7,2.7-1,4.1-1c3,0,5.3,1,6.8,3.1
			c1.5,2.1,2.3,4.9,2.3,8.4c0,1.9-0.3,3.6-0.8,5.1c-0.5,1.5-1.3,2.8-2.2,3.8c-0.9,1.1-2,1.9-3.2,2.4c-1.2,0.5-2.5,0.8-3.8,0.8
			c-1.1,0-2.2-0.2-3.3-0.7c-1.1-0.5-2.3-1.2-3.5-2V236z M1624.9,229.8c1.3,1.1,2.5,1.8,3.7,2.3s2.1,0.7,3,0.7c1.1,0,2.2-0.3,3.2-0.8
			c1-0.5,1.8-1.2,2.5-2.1c0.7-0.9,1.2-2,1.6-3.3c0.4-1.3,0.6-2.7,0.6-4.2c0-1.4-0.1-2.7-0.4-3.9c-0.3-1.2-0.7-2.2-1.2-3.1
			c-0.6-0.9-1.3-1.5-2.2-2s-2-0.7-3.3-0.7c-1.1,0-2.3,0.3-3.5,1c-1.2,0.6-2.5,1.6-3.9,2.8V229.8z"/>
	</g>
	<g>
		<path d="M947.3,370.9h2.2v13.6h16.6v-13.6h2.2v31h-2.2v-15.5h-16.6v15.5h-2.2V370.9z"/>
		<path d="M978.2,373.8c-0.5,0-1-0.2-1.3-0.5c-0.4-0.3-0.5-0.8-0.5-1.3c0-0.6,0.2-1.1,0.5-1.4c0.4-0.3,0.8-0.5,1.3-0.5
			c0.5,0,1,0.2,1.3,0.5c0.4,0.3,0.5,0.8,0.5,1.4c0,0.5-0.2,1-0.5,1.3C979.2,373.7,978.8,373.8,978.2,373.8z M977.2,379.3h2.1v22.6
			h-2.1V379.3z"/>
		<path d="M986.1,406.5c0-1,0.3-2,0.9-2.9s1.4-1.8,2.4-2.5v-0.2c-0.6-0.3-1-0.8-1.4-1.4c-0.4-0.6-0.6-1.3-0.6-2.2
			c0-1,0.3-1.9,0.8-2.6s1.1-1.2,1.6-1.6v-0.2c-0.7-0.6-1.4-1.5-2-2.5c-0.6-1.1-0.9-2.3-0.9-3.7c0-1.2,0.2-2.2,0.6-3.2s1-1.8,1.7-2.5
			c0.7-0.7,1.6-1.3,2.5-1.6c1-0.4,2-0.6,3.1-0.6c0.6,0,1.2,0.1,1.7,0.2c0.5,0.1,0.9,0.2,1.3,0.4h7.7v1.7h-5.3
			c0.7,0.6,1.3,1.4,1.8,2.4s0.7,2.1,0.7,3.3c0,1.2-0.2,2.2-0.6,3.2c-0.4,1-1,1.8-1.7,2.5c-0.7,0.7-1.5,1.3-2.5,1.6s-2,0.6-3.1,0.6
			c-0.6,0-1.3-0.1-2-0.2c-0.7-0.2-1.3-0.4-1.8-0.7c-0.5,0.4-0.9,0.9-1.3,1.4c-0.4,0.5-0.5,1.1-0.5,1.9c0,0.8,0.3,1.5,0.9,2.1
			c0.6,0.6,1.7,0.9,3.4,0.9h4.8c2.5,0,4.4,0.4,5.6,1.2s1.8,2.1,1.8,3.9c0,1-0.3,1.9-0.8,2.8s-1.2,1.7-2.1,2.4
			c-0.9,0.7-2,1.3-3.4,1.7c-1.3,0.4-2.8,0.6-4.4,0.6c-2.9,0-5.1-0.6-6.8-1.7C986.9,409.9,986.1,408.4,986.1,406.5z M988,406.3
			c0,1.4,0.7,2.6,2,3.4c1.3,0.9,3.2,1.3,5.6,1.3c1.3,0,2.4-0.2,3.4-0.5c1-0.3,1.9-0.8,2.6-1.3c0.7-0.5,1.3-1.1,1.7-1.8
			c0.4-0.7,0.6-1.4,0.6-2.1c0-1.3-0.4-2.1-1.3-2.7c-0.9-0.5-2.2-0.8-3.9-0.8h-4.8c-0.3,0-0.6,0-1.2-0.1s-1.1-0.1-1.7-0.3
			c-1,0.7-1.8,1.5-2.3,2.3S988,405.5,988,406.3z M995,393c0.8,0,1.5-0.1,2.2-0.4c0.7-0.3,1.3-0.7,1.9-1.3c0.5-0.6,1-1.2,1.3-2
			c0.3-0.8,0.5-1.6,0.5-2.6s-0.2-1.8-0.5-2.6c-0.3-0.8-0.7-1.4-1.2-2c-0.5-0.5-1.1-0.9-1.9-1.2c-0.7-0.3-1.5-0.4-2.3-0.4
			c-0.8,0-1.6,0.1-2.3,0.4c-0.7,0.3-1.3,0.7-1.9,1.2c-0.5,0.5-1,1.2-1.3,2c-0.3,0.8-0.5,1.6-0.5,2.6c0,0.9,0.2,1.8,0.5,2.6
			c0.3,0.8,0.7,1.5,1.3,2c0.5,0.6,1.2,1,1.9,1.3C993.5,392.9,994.2,393,995,393z"/>
		<path d="M1010.9,368h2.1v9.8v5c1.2-1.2,2.4-2.2,3.6-2.9c1.2-0.8,2.6-1.2,4.2-1.2c2.4,0,4.1,0.7,5.2,2.1s1.6,3.6,1.6,6.5v14.5h-2.1
			v-14.2c0-2.4-0.4-4.2-1.2-5.3c-0.8-1.1-2.1-1.7-4-1.7c-1.3,0-2.6,0.4-3.7,1.1s-2.3,1.8-3.7,3.2v17h-2.1V368z"/>
		<path d="M1045.3,370.9h8.5c1.7,0,3.3,0.1,4.6,0.4c1.4,0.3,2.5,0.8,3.5,1.5c1,0.7,1.7,1.6,2.2,2.7s0.8,2.4,0.8,4c0,3-1,5.3-2.9,6.8
			c-1.9,1.5-4.7,2.2-8.1,2.2h-6.3v13.3h-2.2V370.9z M1053.3,386.7c3.2,0,5.5-0.6,7.1-1.7c1.5-1.1,2.3-3,2.3-5.5
			c0-1.3-0.2-2.4-0.6-3.3c-0.4-0.9-1-1.6-1.7-2.1c-0.8-0.5-1.7-0.9-2.9-1.1c-1.2-0.2-2.5-0.3-4.1-0.3h-5.8v14H1053.3z"/>
		<path d="M1068.3,390.6c0-1.9,0.3-3.5,0.8-5c0.5-1.5,1.3-2.7,2.2-3.7c0.9-1,2-1.8,3.2-2.4c1.2-0.5,2.4-0.8,3.6-0.8
			c2.7,0,4.8,0.9,6.4,2.7c1.5,1.8,2.3,4.4,2.3,7.7c0,0.3,0,0.6,0,0.8s0,0.6-0.1,0.8h-16.3c0,1.4,0.2,2.7,0.7,3.9s1,2.2,1.7,3.1
			c0.7,0.9,1.6,1.5,2.7,2c1,0.5,2.2,0.7,3.5,0.7c1.2,0,2.3-0.2,3.3-0.5c1-0.4,1.9-0.9,2.8-1.5l0.8,1.6c-0.9,0.5-1.9,1-3,1.5
			s-2.5,0.7-4.1,0.7c-1.4,0-2.8-0.3-4.1-0.8c-1.3-0.5-2.4-1.3-3.3-2.3c-0.9-1-1.7-2.3-2.2-3.7
			C1068.6,394.1,1068.3,392.5,1068.3,390.6z M1084.9,389.3c0-2.9-0.6-5.1-1.8-6.6c-1.2-1.5-2.8-2.2-4.8-2.2c-1,0-1.9,0.2-2.8,0.6
			c-0.9,0.4-1.7,1-2.4,1.7c-0.7,0.8-1.3,1.7-1.7,2.8c-0.5,1.1-0.7,2.3-0.9,3.6H1084.9z"/>
		<path d="M1093,379.3h1.8l0.2,4.2h0.1c0.8-1.4,1.7-2.6,2.8-3.4c1.1-0.9,2.3-1.3,3.6-1.3c0.4,0,0.8,0,1.2,0.1
			c0.3,0.1,0.7,0.2,1.1,0.4l-0.5,1.9c-0.4-0.2-0.7-0.3-1-0.3c-0.3,0-0.6-0.1-1.1-0.1c-1,0-2.1,0.4-3.2,1.3s-2.1,2.4-3,4.5v15.4h-2.1
			V379.3z"/>
		<path d="M1116.5,369.9c-0.5-0.3-0.9-0.4-1.4-0.5c-0.5-0.1-0.9-0.1-1.3-0.1c-1.2,0-2.1,0.4-2.7,1.3c-0.6,0.9-0.9,2.2-0.9,3.8v4.9
			h5.2v1.8h-5.2v20.8h-2.1v-20.8h-3.1v-1.6l3.1-0.2v-5c0-2.3,0.5-4,1.5-5.1c1-1.1,2.4-1.7,4.1-1.7c1.1,0,2.2,0.3,3.3,0.8
			L1116.5,369.9z"/>
		<path d="M1117.9,390.6c0-1.9,0.3-3.6,0.8-5.1c0.5-1.5,1.3-2.7,2.2-3.7c0.9-1,2-1.8,3.2-2.3c1.2-0.5,2.5-0.8,3.9-0.8
			c1.3,0,2.6,0.3,3.9,0.8c1.2,0.5,2.3,1.3,3.2,2.3c0.9,1,1.7,2.3,2.2,3.7c0.5,1.5,0.8,3.2,0.8,5.1s-0.3,3.6-0.8,5
			c-0.5,1.5-1.3,2.7-2.2,3.7c-0.9,1-2,1.8-3.2,2.3c-1.2,0.5-2.5,0.8-3.9,0.8c-1.3,0-2.6-0.3-3.9-0.8c-1.2-0.5-2.3-1.3-3.2-2.3
			c-0.9-1-1.7-2.2-2.2-3.7C1118.2,394.2,1117.9,392.5,1117.9,390.6z M1120.1,390.6c0,1.5,0.2,2.8,0.6,4s1,2.3,1.7,3.2s1.5,1.6,2.5,2
			c1,0.5,2,0.7,3.2,0.7s2.2-0.2,3.2-0.7c1-0.5,1.8-1.2,2.5-2c0.7-0.9,1.3-1.9,1.7-3.2c0.4-1.2,0.6-2.6,0.6-4c0-1.5-0.2-2.9-0.6-4.1
			c-0.4-1.2-1-2.3-1.7-3.2c-0.7-0.9-1.6-1.6-2.5-2.1c-1-0.5-2-0.7-3.2-0.7s-2.2,0.2-3.2,0.7s-1.8,1.2-2.5,2.1
			c-0.7,0.9-1.3,2-1.7,3.2S1120.1,389.1,1120.1,390.6z"/>
		<path d="M1145,379.3h1.8l0.2,4.2h0.1c0.8-1.4,1.7-2.6,2.8-3.4c1.1-0.9,2.3-1.3,3.6-1.3c0.4,0,0.8,0,1.2,0.1
			c0.3,0.1,0.7,0.2,1.1,0.4l-0.5,1.9c-0.4-0.2-0.7-0.3-1-0.3c-0.3,0-0.6-0.1-1.1-0.1c-1,0-2.1,0.4-3.2,1.3s-2.1,2.4-3,4.5v15.4h-2.1
			V379.3z"/>
		<path d="M1159.9,379.3h1.8l0.2,3.5h0.1c1-1.2,2.1-2.1,3.4-2.9c1.2-0.8,2.5-1.2,3.7-1.2c1.8,0,3.2,0.4,4.2,1.2c1,0.8,1.7,2,2.1,3.4
			c1.3-1.4,2.6-2.5,3.8-3.4c1.2-0.8,2.5-1.2,3.8-1.2c4.5,0,6.8,2.9,6.8,8.7v14.5h-2.1v-14.2c0-2.4-0.4-4.2-1.2-5.3
			c-0.8-1.1-2.1-1.7-3.8-1.7c-2,0-4.3,1.4-6.8,4.2v17h-2.1v-14.2c0-2.4-0.4-4.2-1.2-5.3c-0.8-1.1-2.1-1.7-3.9-1.7
			c-2,0-4.3,1.4-6.8,4.2v17h-2.1V379.3z"/>
		<path d="M1196.2,390.6c0-1.9,0.3-3.5,0.8-5c0.5-1.5,1.3-2.7,2.2-3.7c0.9-1,2-1.8,3.2-2.4c1.2-0.5,2.4-0.8,3.6-0.8
			c2.7,0,4.8,0.9,6.4,2.7c1.5,1.8,2.3,4.4,2.3,7.7c0,0.3,0,0.6,0,0.8s0,0.6-0.1,0.8h-16.3c0,1.4,0.2,2.7,0.7,3.9s1,2.2,1.7,3.1
			c0.7,0.9,1.6,1.5,2.7,2c1,0.5,2.2,0.7,3.5,0.7c1.2,0,2.3-0.2,3.3-0.5c1-0.4,1.9-0.9,2.8-1.5l0.8,1.6c-0.9,0.5-1.9,1-3,1.5
			s-2.5,0.7-4.1,0.7c-1.4,0-2.8-0.3-4.1-0.8c-1.3-0.5-2.4-1.3-3.3-2.3c-0.9-1-1.7-2.3-2.2-3.7
			C1196.5,394.1,1196.2,392.5,1196.2,390.6z M1212.8,389.3c0-2.9-0.6-5.1-1.8-6.6c-1.2-1.5-2.8-2.2-4.8-2.2c-1,0-1.9,0.2-2.8,0.6
			c-0.9,0.4-1.7,1-2.4,1.7c-0.7,0.8-1.3,1.7-1.7,2.8c-0.5,1.1-0.7,2.3-0.9,3.6H1212.8z"/>
		<path d="M1220.9,379.3h1.8l0.2,4.2h0.1c0.8-1.4,1.7-2.6,2.8-3.4c1.1-0.9,2.3-1.3,3.6-1.3c0.4,0,0.8,0,1.2,0.1
			c0.3,0.1,0.7,0.2,1.1,0.4l-0.5,1.9c-0.4-0.2-0.7-0.3-1-0.3c-0.3,0-0.6-0.1-1.1-0.1c-1,0-2.1,0.4-3.2,1.3s-2.1,2.4-3,4.5v15.4h-2.1
			V379.3z"/>
		<path d="M1233.7,397.8c1,0.8,2,1.5,3.1,2c1.1,0.5,2.5,0.8,4.1,0.8c1.8,0,3.1-0.4,4-1.3s1.3-1.9,1.3-3.1c0-0.7-0.2-1.3-0.5-1.8
			c-0.3-0.5-0.8-1-1.3-1.4c-0.5-0.4-1.1-0.7-1.8-1c-0.6-0.3-1.3-0.5-2-0.8c-0.8-0.3-1.7-0.6-2.6-1c-0.9-0.3-1.6-0.8-2.3-1.2
			c-0.7-0.5-1.2-1.1-1.7-1.7s-0.6-1.5-0.6-2.5c0-0.8,0.2-1.6,0.5-2.3c0.3-0.7,0.8-1.4,1.4-1.9c0.6-0.5,1.4-1,2.3-1.3
			s1.9-0.5,3.1-0.5s2.4,0.2,3.5,0.7c1.1,0.4,2.1,1,2.9,1.7l-1.1,1.5c-0.8-0.6-1.6-1-2.4-1.4s-1.9-0.6-3-0.6c-0.9,0-1.6,0.1-2.3,0.4
			s-1.2,0.5-1.6,0.9c-0.4,0.4-0.7,0.8-0.9,1.3c-0.2,0.5-0.3,1-0.3,1.5c0,0.7,0.1,1.2,0.4,1.7c0.3,0.5,0.7,0.9,1.2,1.2
			c0.5,0.3,1.1,0.7,1.7,0.9c0.6,0.3,1.3,0.5,2,0.8c0.9,0.3,1.8,0.7,2.6,1c0.9,0.3,1.7,0.8,2.4,1.3c0.7,0.5,1.3,1.1,1.7,1.9
			c0.4,0.7,0.7,1.7,0.7,2.8c0,0.8-0.2,1.7-0.5,2.4c-0.3,0.8-0.8,1.4-1.5,2c-0.7,0.6-1.5,1-2.4,1.4s-2,0.5-3.2,0.5
			c-1.7,0-3.2-0.3-4.7-0.9c-1.4-0.6-2.6-1.3-3.6-2.2L1233.7,397.8z"/>
	</g>
	<g>
		<path d="M455.7,530.2h2.3l13.1,21.9l3.5,6.2h0.2c-0.1-1.5-0.1-3-0.2-4.5c-0.1-1.5-0.1-3-0.1-4.5v-19h2.1v31h-2.3l-13.1-21.9
			l-3.5-6.2h-0.2c0.1,1.5,0.1,3,0.2,4.4c0.1,1.4,0.1,2.9,0.1,4.4v19.3h-2.1V530.2z"/>
		<path d="M483.6,550c0-1.9,0.3-3.5,0.8-5c0.5-1.5,1.3-2.7,2.2-3.7c0.9-1,2-1.8,3.2-2.4c1.2-0.5,2.4-0.8,3.6-0.8
			c2.7,0,4.8,0.9,6.4,2.7c1.5,1.8,2.3,4.4,2.3,7.7c0,0.3,0,0.6,0,0.8s0,0.6-0.1,0.8h-16.3c0,1.4,0.3,2.7,0.7,3.9
			c0.4,1.2,1,2.2,1.7,3.1c0.7,0.9,1.6,1.5,2.7,2c1,0.5,2.2,0.7,3.5,0.7c1.2,0,2.3-0.2,3.3-0.5c1-0.4,1.9-0.9,2.8-1.5l0.8,1.6
			c-0.9,0.5-1.9,1-3,1.5s-2.5,0.7-4.1,0.7c-1.4,0-2.8-0.3-4.1-0.8s-2.4-1.3-3.3-2.3c-0.9-1-1.7-2.3-2.2-3.7
			C483.8,553.5,483.6,551.8,483.6,550z M500.1,548.6c0-2.9-0.6-5.1-1.8-6.6c-1.2-1.5-2.8-2.2-4.8-2.2c-1,0-1.9,0.2-2.8,0.6
			c-0.9,0.4-1.7,1-2.4,1.7c-0.7,0.8-1.3,1.7-1.7,2.8c-0.5,1.1-0.7,2.3-0.9,3.6H500.1z"/>
		<path d="M505.5,538.6h2.3l4,14.6c0.3,1,0.5,2,0.8,3c0.3,1,0.5,2,0.8,3h0.2c0.3-1,0.5-2,0.8-3c0.3-1,0.6-2,0.8-3l4.1-14.6h2.5
			l4.1,14.6c0.3,1,0.6,2,0.8,3s0.6,2,0.8,3h0.2c0.3-1,0.5-2,0.8-3c0.3-1,0.5-2,0.8-3l4-14.6h2.1l-6.5,22.6h-2.7l-4-14
			c-0.3-1.1-0.6-2.2-0.9-3.2c-0.2-1.1-0.5-2.1-0.9-3.2h-0.2c-0.3,1.1-0.5,2.2-0.8,3.3c-0.3,1.1-0.6,2.2-1,3.3l-3.9,13.9h-2.5
			L505.5,538.6z"/>
		<path d="M550.6,530.2h2.2v13.6h16.6v-13.6h2.2v31h-2.2v-15.5h-16.6v15.5h-2.2V530.2z"/>
		<path d="M581.5,533.2c-0.5,0-1-0.2-1.3-0.5c-0.4-0.3-0.5-0.8-0.5-1.3c0-0.6,0.2-1.1,0.5-1.4c0.4-0.3,0.8-0.5,1.3-0.5
			s1,0.2,1.3,0.5c0.4,0.3,0.5,0.8,0.5,1.4c0,0.5-0.2,1-0.5,1.3C582.5,533,582,533.2,581.5,533.2z M580.4,538.6h2.1v22.6h-2.1V538.6z
			"/>
		<path d="M591.2,538.6h1.8l0.2,4.2h0.1c0.8-1.4,1.7-2.6,2.8-3.4c1.1-0.9,2.3-1.3,3.6-1.3c0.4,0,0.8,0,1.2,0.1
			c0.3,0.1,0.7,0.2,1.1,0.4l-0.5,1.9c-0.4-0.2-0.7-0.3-1-0.3c-0.3,0-0.6-0.1-1.1-0.1c-1,0-2.1,0.4-3.2,1.3c-1.1,0.9-2.1,2.4-3,4.5
			v15.4h-2.1V538.6z"/>
		<path d="M603.8,550c0-1.9,0.3-3.5,0.8-5c0.5-1.5,1.3-2.7,2.2-3.7c0.9-1,2-1.8,3.2-2.4c1.2-0.5,2.4-0.8,3.6-0.8
			c2.7,0,4.8,0.9,6.4,2.7c1.5,1.8,2.3,4.4,2.3,7.7c0,0.3,0,0.6,0,0.8s0,0.6-0.1,0.8h-16.3c0,1.4,0.3,2.7,0.7,3.9
			c0.4,1.2,1,2.2,1.7,3.1c0.7,0.9,1.6,1.5,2.7,2c1,0.5,2.2,0.7,3.5,0.7c1.2,0,2.3-0.2,3.3-0.5c1-0.4,1.9-0.9,2.8-1.5l0.8,1.6
			c-0.9,0.5-1.9,1-3,1.5s-2.5,0.7-4.1,0.7c-1.4,0-2.8-0.3-4.1-0.8s-2.4-1.3-3.3-2.3c-0.9-1-1.7-2.3-2.2-3.7
			C604,553.5,603.8,551.8,603.8,550z M620.3,548.6c0-2.9-0.6-5.1-1.8-6.6c-1.2-1.5-2.8-2.2-4.8-2.2c-1,0-1.9,0.2-2.8,0.6
			c-0.9,0.4-1.7,1-2.4,1.7c-0.7,0.8-1.3,1.7-1.7,2.8c-0.5,1.1-0.7,2.3-0.9,3.6H620.3z"/>
		<path d="M626.8,557.1c1,0.8,2,1.5,3.1,2c1.1,0.5,2.5,0.8,4.1,0.8c1.8,0,3.1-0.4,4-1.3s1.3-1.9,1.3-3.1c0-0.7-0.2-1.3-0.5-1.8
			s-0.8-1-1.3-1.4c-0.5-0.4-1.1-0.7-1.8-1c-0.6-0.3-1.3-0.5-2-0.8c-0.8-0.3-1.7-0.6-2.6-1c-0.9-0.3-1.6-0.8-2.3-1.2
			c-0.7-0.5-1.2-1.1-1.7-1.7c-0.4-0.7-0.6-1.5-0.6-2.5c0-0.8,0.2-1.6,0.5-2.3c0.3-0.7,0.8-1.4,1.4-1.9c0.6-0.5,1.4-1,2.3-1.3
			s1.9-0.5,3.1-0.5c1.2,0,2.4,0.2,3.5,0.7c1.1,0.4,2.1,1,2.9,1.7l-1.1,1.5c-0.8-0.6-1.6-1-2.4-1.4s-1.9-0.6-3-0.6
			c-0.9,0-1.6,0.1-2.3,0.4c-0.6,0.2-1.2,0.5-1.6,0.9c-0.4,0.4-0.7,0.8-0.9,1.3c-0.2,0.5-0.3,1-0.3,1.5c0,0.7,0.1,1.2,0.4,1.7
			c0.3,0.5,0.7,0.9,1.2,1.2c0.5,0.3,1.1,0.7,1.7,0.9c0.6,0.3,1.3,0.5,2,0.8c0.9,0.3,1.8,0.7,2.6,1c0.9,0.3,1.7,0.8,2.4,1.3
			c0.7,0.5,1.3,1.1,1.7,1.9c0.4,0.7,0.7,1.7,0.7,2.8c0,0.8-0.2,1.7-0.5,2.4s-0.8,1.4-1.5,2c-0.7,0.6-1.5,1-2.4,1.4s-2,0.5-3.2,0.5
			c-1.7,0-3.2-0.3-4.7-0.9c-1.4-0.6-2.6-1.3-3.6-2.2L626.8,557.1z"/>
	</g>
	<g>
		<path d="M72.5,713.9c1.1,1.3,2.5,2.3,4,3.1c1.6,0.8,3.2,1.1,5,1.1c2.4,0,4.3-0.6,5.6-1.7c1.4-1.1,2.1-2.6,2.1-4.5
			c0-1-0.1-1.8-0.4-2.4c-0.3-0.7-0.7-1.2-1.2-1.7c-0.5-0.5-1.1-0.9-1.8-1.3c-0.7-0.4-1.4-0.7-2.1-1.1l-4.7-2.1
			c-0.7-0.3-1.4-0.6-2.1-1c-0.7-0.4-1.4-0.9-2-1.5c-0.6-0.6-1.1-1.3-1.5-2.2c-0.4-0.8-0.6-1.8-0.6-3c0-1.1,0.2-2.2,0.7-3.1
			c0.5-0.9,1.1-1.7,1.9-2.4s1.8-1.2,2.9-1.6c1.1-0.4,2.3-0.6,3.6-0.6c1.9,0,3.6,0.4,5,1.1c1.5,0.7,2.7,1.6,3.6,2.6l-1.2,1.5
			c-0.9-1-2-1.7-3.2-2.3c-1.2-0.6-2.6-0.9-4.2-0.9c-2.1,0-3.7,0.5-5,1.5c-1.3,1-1.9,2.4-1.9,4c0,0.9,0.2,1.7,0.5,2.3
			c0.3,0.6,0.8,1.2,1.3,1.6c0.5,0.5,1.1,0.8,1.7,1.2c0.6,0.3,1.2,0.6,1.8,0.9l4.7,2.1c0.9,0.4,1.7,0.8,2.5,1.3
			c0.8,0.5,1.5,1,2.1,1.6c0.6,0.6,1.1,1.4,1.4,2.2c0.4,0.9,0.5,1.9,0.5,3.1s-0.2,2.3-0.7,3.3c-0.5,1-1.1,1.9-2,2.6
			c-0.9,0.7-1.9,1.3-3.1,1.7c-1.2,0.4-2.6,0.6-4.1,0.6c-2.3,0-4.3-0.4-6-1.3c-1.8-0.9-3.2-2-4.5-3.4L72.5,713.9z"/>
		<path d="M98.2,698.7h-3.5v-1.6l3.6-0.2l0.3-6.5h1.8v6.5h6.5v1.8h-6.5v14.7c0,0.7,0.1,1.4,0.2,2c0.1,0.6,0.3,1.1,0.6,1.5
			c0.3,0.4,0.7,0.8,1.2,1c0.5,0.2,1.1,0.4,1.9,0.4c0.4,0,0.9-0.1,1.4-0.2c0.5-0.1,1-0.3,1.4-0.5l0.6,1.7c-0.7,0.3-1.3,0.5-2,0.6
			c-0.7,0.2-1.2,0.2-1.7,0.2c-1.1,0-2-0.2-2.7-0.5c-0.7-0.3-1.3-0.8-1.7-1.4c-0.4-0.6-0.7-1.3-0.9-2.2c-0.2-0.8-0.3-1.8-0.3-2.8
			V698.7z"/>
		<path d="M111.7,696.9h2.1v14.2c0,2.4,0.4,4.2,1.2,5.3c0.8,1.1,2.1,1.7,3.9,1.7c1.3,0,2.6-0.4,3.7-1.1c1.1-0.7,2.3-1.9,3.6-3.5
			v-16.7h2.1v22.6h-1.7l-0.2-3.8h-0.1c-1.1,1.3-2.3,2.4-3.5,3.2c-1.2,0.8-2.6,1.2-4.2,1.2c-2.4,0-4.1-0.7-5.2-2.1
			c-1.1-1.4-1.6-3.6-1.6-6.5V696.9z"/>
		<path d="M135,708.3c0-1.8,0.3-3.5,0.8-4.9c0.5-1.5,1.3-2.7,2.2-3.8c0.9-1,2-1.8,3.2-2.4c1.2-0.5,2.5-0.8,3.8-0.8
			c1.4,0,2.6,0.2,3.6,0.7c1,0.5,2.1,1.2,3.2,2l-0.1-4.1v-9.3h2.1v33.8h-1.8l-0.2-2.9h-0.1c-0.9,0.9-2,1.7-3.2,2.4
			c-1.2,0.7-2.6,1.1-4.1,1.1c-2.9,0-5.1-1-6.8-3C135.9,715,135,712.1,135,708.3z M137.2,708.3c0,1.5,0.2,2.9,0.5,4.1
			c0.3,1.2,0.8,2.3,1.4,3.1c0.6,0.9,1.4,1.5,2.3,2c0.9,0.5,2,0.7,3.2,0.7c1.3,0,2.5-0.3,3.6-1c1.1-0.6,2.3-1.6,3.5-2.8v-13.4
			c-1.2-1.1-2.3-1.8-3.4-2.3c-1.1-0.4-2.1-0.7-3.2-0.7c-1.1,0-2.2,0.3-3.2,0.8c-1,0.5-1.8,1.2-2.5,2.1s-1.3,2-1.7,3.2
			C137.4,705.5,137.2,706.9,137.2,708.3z"/>
		<path d="M160.6,708.3c0-1.9,0.3-3.5,0.8-5c0.5-1.5,1.3-2.7,2.2-3.7c0.9-1,2-1.8,3.2-2.4c1.2-0.5,2.4-0.8,3.6-0.8
			c2.7,0,4.8,0.9,6.4,2.7c1.5,1.8,2.3,4.4,2.3,7.7c0,0.3,0,0.6,0,0.8s0,0.6-0.1,0.8h-16.3c0,1.4,0.3,2.7,0.7,3.9
			c0.4,1.2,1,2.2,1.7,3.1c0.7,0.9,1.6,1.5,2.7,2c1,0.5,2.2,0.7,3.5,0.7c1.2,0,2.3-0.2,3.3-0.5c1-0.4,1.9-0.9,2.8-1.5l0.8,1.6
			c-0.9,0.5-1.9,1-3,1.5s-2.5,0.7-4.1,0.7c-1.4,0-2.8-0.3-4.1-0.8s-2.4-1.3-3.3-2.3c-0.9-1-1.7-2.3-2.2-3.7
			C160.9,711.8,160.6,710.1,160.6,708.3z M177.1,706.9c0-2.9-0.6-5.1-1.8-6.6c-1.2-1.5-2.8-2.2-4.8-2.2c-1,0-1.9,0.2-2.8,0.6
			c-0.9,0.4-1.7,1-2.4,1.7c-0.7,0.8-1.3,1.7-1.7,2.8c-0.5,1.1-0.7,2.3-0.9,3.6H177.1z"/>
		<path d="M185.2,696.9h1.8l0.2,3.5h0.1c1.2-1.2,2.4-2.1,3.6-2.9c1.2-0.8,2.6-1.2,4.2-1.2c2.4,0,4.1,0.7,5.2,2.1
			c1.1,1.4,1.6,3.6,1.6,6.5v14.5h-2.1v-14.2c0-2.4-0.4-4.2-1.2-5.3c-0.8-1.1-2.1-1.7-4-1.7c-1.3,0-2.6,0.4-3.7,1.1
			c-1.1,0.7-2.3,1.8-3.7,3.2v17h-2.1V696.9z"/>
		<path d="M210.8,698.7h-3.5v-1.6l3.6-0.2l0.3-6.5h1.8v6.5h6.5v1.8h-6.5v14.7c0,0.7,0.1,1.4,0.2,2c0.1,0.6,0.3,1.1,0.6,1.5
			c0.3,0.4,0.7,0.8,1.2,1c0.5,0.2,1.1,0.4,1.9,0.4c0.4,0,0.9-0.1,1.4-0.2c0.5-0.1,1-0.3,1.4-0.5l0.6,1.7c-0.7,0.3-1.3,0.5-2,0.6
			c-0.7,0.2-1.2,0.2-1.7,0.2c-1.1,0-2-0.2-2.7-0.5c-0.7-0.3-1.3-0.8-1.7-1.4c-0.4-0.6-0.7-1.3-0.9-2.2c-0.2-0.8-0.3-1.8-0.3-2.8
			V698.7z"/>
		<path d="M223.4,715.4c1,0.8,2,1.5,3.1,2c1.1,0.5,2.5,0.8,4.1,0.8c1.8,0,3.1-0.4,4-1.3s1.3-1.9,1.3-3.1c0-0.7-0.2-1.3-0.5-1.8
			s-0.8-1-1.3-1.4c-0.5-0.4-1.1-0.7-1.8-1c-0.6-0.3-1.3-0.5-2-0.8c-0.8-0.3-1.7-0.6-2.6-1c-0.9-0.3-1.6-0.8-2.3-1.2
			c-0.7-0.5-1.2-1.1-1.7-1.7c-0.4-0.7-0.6-1.5-0.6-2.5c0-0.8,0.2-1.6,0.5-2.3c0.3-0.7,0.8-1.4,1.4-1.9c0.6-0.5,1.4-1,2.3-1.3
			s1.9-0.5,3.1-0.5c1.2,0,2.4,0.2,3.5,0.7c1.1,0.4,2.1,1,2.9,1.7l-1.1,1.5c-0.8-0.6-1.6-1-2.4-1.4s-1.9-0.6-3-0.6
			c-0.9,0-1.6,0.1-2.3,0.4c-0.6,0.2-1.2,0.5-1.6,0.9c-0.4,0.4-0.7,0.8-0.9,1.3c-0.2,0.5-0.3,1-0.3,1.5c0,0.7,0.1,1.2,0.4,1.7
			c0.3,0.5,0.7,0.9,1.2,1.2c0.5,0.3,1.1,0.7,1.7,0.9c0.6,0.3,1.3,0.5,2,0.8c0.9,0.3,1.8,0.7,2.6,1c0.9,0.3,1.7,0.8,2.4,1.3
			c0.7,0.5,1.3,1.1,1.7,1.9c0.4,0.7,0.7,1.7,0.7,2.8c0,0.8-0.2,1.7-0.5,2.4s-0.8,1.4-1.5,2c-0.7,0.6-1.5,1-2.4,1.4s-2,0.5-3.2,0.5
			c-1.7,0-3.2-0.3-4.7-0.9c-1.4-0.6-2.6-1.3-3.6-2.2L223.4,715.4z"/>
	</g>
	<g>
		<path d="M1442,135h-4.2v-33.5h4.2V135z"/>
		<path d="M1452.7,110.1l0.1,2.7c1.6-2.1,3.6-3.1,6-3.1c4.4,0,6.6,2.9,6.7,8.8V135h-4v-16.3c0-1.9-0.3-3.3-1-4.1s-1.6-1.2-2.9-1.2
			c-1,0-1.9,0.3-2.7,1c-0.8,0.7-1.5,1.6-1.9,2.6V135h-4.1v-24.9H1452.7z"/>
		<path d="M1475.4,110.1l0.1,2.7c1.6-2.1,3.6-3.1,6-3.1c4.4,0,6.6,2.9,6.7,8.8V135h-4v-16.3c0-1.9-0.3-3.3-1-4.1s-1.6-1.2-2.9-1.2
			c-1,0-1.9,0.3-2.7,1c-0.8,0.7-1.5,1.6-1.9,2.6V135h-4.1v-24.9H1475.4z"/>
		<path d="M1493.5,121.4c0-3.6,0.9-6.5,2.6-8.6c1.8-2.1,4.1-3.2,7-3.2c2.9,0,5.2,1,7,3.1c1.8,2.1,2.7,4.8,2.7,8.4v2.6
			c0,3.6-0.9,6.5-2.6,8.6c-1.7,2.1-4.1,3.1-7,3.1c-2.9,0-5.2-1-6.9-3.1c-1.7-2-2.6-4.8-2.7-8.3V121.4z M1497.6,123.7
			c0,2.6,0.5,4.6,1.5,6c1,1.5,2.4,2.2,4.1,2.2c3.6,0,5.4-2.6,5.5-7.8v-2.8c0-2.5-0.5-4.6-1.5-6c-1-1.5-2.4-2.2-4.1-2.2
			c-1.7,0-3,0.7-4,2.2c-1,1.5-1.5,3.5-1.5,6V123.7z"/>
		<path d="M1524.7,128.8l4.7-18.7h4.1l-7.4,24.9h-3l-7.5-24.9h4.1L1524.7,128.8z"/>
		<path d="M1550.3,135c-0.2-0.5-0.4-1.4-0.5-2.7c-1.4,2.1-3.3,3.2-5.5,3.2c-2.3,0-4-0.6-5.3-1.9c-1.3-1.3-1.9-3-1.9-5.3
			c0-2.5,0.9-4.5,2.6-6s4.1-2.2,7.1-2.3h3v-2.6c0-1.5-0.3-2.5-1-3.2c-0.7-0.6-1.7-0.9-3-0.9c-1.2,0-2.2,0.4-3,1.1
			c-0.8,0.7-1.1,1.7-1.1,2.8h-4.1c0-1.3,0.4-2.5,1.1-3.6c0.8-1.2,1.8-2.1,3-2.7c1.3-0.7,2.7-1,4.3-1c2.5,0,4.5,0.6,5.8,1.9
			c1.3,1.3,2,3.1,2,5.5v12.5c0,1.9,0.3,3.6,0.8,5v0.4H1550.3z M1544.8,131.7c1,0,1.9-0.3,2.8-0.8c0.9-0.6,1.6-1.2,2-2.1v-5.9h-2.3
			c-1.9,0-3.5,0.5-4.6,1.3s-1.7,2-1.7,3.5c0,1.4,0.3,2.4,0.9,3.1C1542.5,131.4,1543.5,131.7,1544.8,131.7z"/>
		<path d="M1565.3,104.1v6h3.7v3.3h-3.7v15.4c0,1,0.2,1.7,0.5,2.2c0.3,0.5,0.9,0.8,1.7,0.8c0.5,0,1.1-0.1,1.6-0.3l0,3.4
			c-0.9,0.3-1.9,0.5-2.8,0.5c-1.6,0-2.8-0.6-3.7-1.7s-1.3-2.8-1.3-4.9v-15.4h-3.8v-3.3h3.8v-6H1565.3z"/>
		<path d="M1578.6,103.5c0,0.7-0.2,1.3-0.6,1.7c-0.4,0.5-1,0.7-1.7,0.7c-0.8,0-1.3-0.2-1.7-0.7c-0.4-0.5-0.6-1-0.6-1.7
			s0.2-1.3,0.6-1.7s1-0.7,1.7-0.7c0.8,0,1.3,0.2,1.7,0.7C1578.4,102.3,1578.6,102.8,1578.6,103.5z M1578.3,135h-4.1v-24.9h4.1V135z"
			/>
		<path d="M1583.8,121.4c0-3.6,0.9-6.5,2.6-8.6c1.8-2.1,4.1-3.2,7-3.2c2.9,0,5.2,1,7,3.1c1.8,2.1,2.7,4.8,2.7,8.4v2.6
			c0,3.6-0.9,6.5-2.6,8.6c-1.7,2.1-4.1,3.1-7,3.1c-2.9,0-5.2-1-6.9-3.1c-1.7-2-2.6-4.8-2.7-8.3V121.4z M1587.9,123.7
			c0,2.6,0.5,4.6,1.5,6c1,1.5,2.4,2.2,4.1,2.2c3.6,0,5.4-2.6,5.5-7.8v-2.8c0-2.5-0.5-4.6-1.5-6c-1-1.5-2.4-2.2-4.1-2.2
			c-1.7,0-3,0.7-4,2.2c-1,1.5-1.5,3.5-1.5,6V123.7z"/>
		<path d="M1612.2,110.1l0.1,2.7c1.6-2.1,3.6-3.1,6-3.1c4.4,0,6.6,2.9,6.7,8.8V135h-4v-16.3c0-1.9-0.3-3.3-1-4.1s-1.6-1.2-2.9-1.2
			c-1,0-1.9,0.3-2.7,1c-0.8,0.7-1.5,1.6-1.9,2.6V135h-4.1v-24.9H1612.2z"/>
		<path d="M1646.7,131.4h13.1v3.6h-17.4v-33.5h4.2V131.4z"/>
		<path d="M1673.1,135.4c-3.1,0-5.5-0.9-7.1-2.8c-1.7-1.8-2.5-4.6-2.5-8.1v-3c0-3.7,0.8-6.6,2.4-8.7s3.9-3.2,6.8-3.2
			c2.9,0,5.1,0.9,6.5,2.8c1.4,1.9,2.2,4.7,2.2,8.7v2.7h-13.9v0.6c0,2.7,0.5,4.6,1.5,5.8s2.4,1.8,4.3,1.8c1.2,0,2.2-0.2,3.2-0.7
			c0.9-0.5,1.8-1.2,2.6-2.1l2.1,2.6C1679.4,134.2,1676.8,135.4,1673.1,135.4z M1672.7,113.1c-1.7,0-2.9,0.6-3.7,1.7s-1.3,3-1.4,5.4
			h9.8v-0.6c-0.1-2.4-0.5-4-1.3-5.1C1675.3,113.6,1674.2,113.1,1672.7,113.1z"/>
		<path d="M1699.1,135c-0.2-0.5-0.4-1.4-0.5-2.7c-1.4,2.1-3.3,3.2-5.5,3.2c-2.3,0-4-0.6-5.3-1.9c-1.3-1.3-1.9-3-1.9-5.3
			c0-2.5,0.9-4.5,2.6-6s4.1-2.2,7.1-2.3h3v-2.6c0-1.5-0.3-2.5-1-3.2c-0.7-0.6-1.7-0.9-3-0.9c-1.2,0-2.2,0.4-3,1.1
			c-0.8,0.7-1.1,1.7-1.1,2.8h-4.1c0-1.3,0.4-2.5,1.1-3.6c0.8-1.2,1.8-2.1,3-2.7c1.3-0.7,2.7-1,4.3-1c2.5,0,4.5,0.6,5.8,1.9
			c1.3,1.3,2,3.1,2,5.5v12.5c0,1.9,0.3,3.6,0.8,5v0.4H1699.1z M1693.7,131.7c1,0,1.9-0.3,2.8-0.8c0.9-0.6,1.6-1.2,2-2.1v-5.9h-2.3
			c-1.9,0-3.5,0.5-4.6,1.3s-1.7,2-1.7,3.5c0,1.4,0.3,2.4,0.9,3.1C1691.4,131.4,1692.3,131.7,1693.7,131.7z"/>
		<path d="M1708,121.4c0-3.8,0.7-6.7,2.1-8.8c1.4-2,3.5-3,6.2-3c2.4,0,4.2,1,5.6,2.9V99.7h4.1V135h-3.7l-0.2-2.7
			c-1.3,2.1-3.2,3.1-5.7,3.1c-2.6,0-4.6-1-6.1-3c-1.5-2-2.2-4.8-2.2-8.5V121.4z M1712.1,123.7c0,2.8,0.4,4.8,1.2,6.1
			c0.8,1.3,2.2,2,4,2c2,0,3.5-1,4.5-3.1v-12.5c-1-2-2.5-3-4.5-3c-1.9,0-3.2,0.7-4,2c-0.8,1.3-1.2,3.3-1.3,6V123.7z"/>
		<path d="M1741.1,135.4c-3.1,0-5.5-0.9-7.1-2.8c-1.7-1.8-2.5-4.6-2.5-8.1v-3c0-3.7,0.8-6.6,2.4-8.7s3.9-3.2,6.8-3.2
			c2.9,0,5.1,0.9,6.5,2.8c1.4,1.9,2.2,4.7,2.2,8.7v2.7h-13.9v0.6c0,2.7,0.5,4.6,1.5,5.8s2.4,1.8,4.3,1.8c1.2,0,2.2-0.2,3.2-0.7
			c0.9-0.5,1.8-1.2,2.6-2.1l2.1,2.6C1747.4,134.2,1744.7,135.4,1741.1,135.4z M1740.6,113.1c-1.7,0-2.9,0.6-3.7,1.7s-1.3,3-1.4,5.4
			h9.8v-0.6c-0.1-2.4-0.5-4-1.3-5.1C1743.3,113.6,1742.1,113.1,1740.6,113.1z"/>
		<path d="M1764.5,113.9c-0.6-0.1-1.2-0.2-1.8-0.2c-2.1,0-3.5,1.1-4.4,3.4V135h-4.1v-24.9h4l0.1,2.5c1.1-2,2.6-3,4.6-3
			c0.6,0,1.2,0.1,1.6,0.3L1764.5,113.9z"/>
		<path d="M1780.6,128.6c0-0.9-0.3-1.6-1-2.3c-0.7-0.6-1.9-1.4-3.8-2.2c-2.2-0.9-3.7-1.7-4.6-2.3s-1.6-1.4-2-2.2s-0.7-1.8-0.7-2.9
			c0-2,0.7-3.7,2.2-5c1.5-1.3,3.4-2,5.7-2c2.4,0,4.4,0.7,5.8,2.1c1.5,1.4,2.2,3.2,2.2,5.4h-4c0-1.1-0.4-2.1-1.1-2.9
			s-1.7-1.2-2.9-1.2c-1.2,0-2.1,0.3-2.8,0.9c-0.7,0.6-1,1.4-1,2.5c0,0.8,0.2,1.5,0.7,2c0.5,0.5,1.7,1.2,3.6,2c3,1.2,5.1,2.3,6.2,3.5
			c1.1,1.1,1.6,2.6,1.6,4.3c0,2.2-0.7,3.9-2.2,5.2c-1.5,1.3-3.5,1.9-6,1.9c-2.6,0-4.7-0.7-6.3-2.2c-1.6-1.5-2.4-3.4-2.4-5.7h4.1
			c0,1.4,0.5,2.5,1.3,3.2s1.9,1.2,3.4,1.2c1.3,0,2.4-0.3,3.1-0.9C1780.3,130.4,1780.6,129.6,1780.6,128.6z"/>
		<path d="M1794.1,112.7c1.5-2,3.5-3,5.9-3c4.4,0,6.6,2.9,6.7,8.8V135h-4v-16.3c0-1.9-0.3-3.3-1-4.1s-1.6-1.2-2.9-1.2
			c-1,0-1.9,0.3-2.7,1c-0.8,0.7-1.5,1.6-1.9,2.6V135h-4.1V99.7h4.1V112.7z"/>
		<path d="M1817.4,103.5c0,0.7-0.2,1.3-0.6,1.7c-0.4,0.5-1,0.7-1.7,0.7c-0.8,0-1.3-0.2-1.7-0.7c-0.4-0.5-0.6-1-0.6-1.7
			s0.2-1.3,0.6-1.7s1-0.7,1.7-0.7c0.8,0,1.3,0.2,1.7,0.7C1817.2,102.3,1817.4,102.8,1817.4,103.5z M1817.1,135h-4.1v-24.9h4.1V135z"
			/>
		<path d="M1841.5,123.7c0,3.9-0.7,6.9-2.1,8.8c-1.4,1.9-3.4,2.9-6,2.9c-2.5,0-4.4-0.9-5.8-2.8v11.9h-4v-34.4h3.7l0.2,2.8
			c1.4-2.1,3.3-3.2,5.9-3.2c2.7,0,4.8,1,6.1,2.9c1.3,1.9,2,4.7,2.1,8.5V123.7z M1837.4,121.4c0-2.8-0.4-4.8-1.3-6.2
			c-0.9-1.3-2.2-2-4.1-2c-1.9,0-3.4,1-4.4,2.9v12.9c1,1.9,2.5,2.8,4.5,2.8c1.8,0,3.2-0.7,4.1-2c0.9-1.3,1.3-3.4,1.3-6.1V121.4z"/>
	</g>
	<g opacity="0.6">
		<circle cx="29" cy="659.2" r="8.2"/>
	</g>
	<g opacity="0.85">
		<circle cx="915" cy="488.2" r="11.2"/>
	</g>
	<g opacity="0.3">
		<circle cx="1151.8" cy="332.9" r="5.6"/>
	</g>
	<g opacity="0.3">
		<circle cx="416.9" cy="586.1" r="5.6"/>
	</g>
	<g opacity="0.6">
		<circle cx="1874.4" cy="169.8" r="8.1"/>
	</g>
</g>
</svg>
