<?xml version="1.0" encoding="utf-8"?>
<!-- Generator: Adobe Illustrator 18.1.1, SVG Export Plug-In . SVG Version: 6.00 Build 0)  -->
<!DOCTYPE svg PUBLIC "-//W3C//DTD SVG 1.1//EN" "http://www.w3.org/Graphics/SVG/1.1/DTD/svg11.dtd">
<svg version="1.1" id="Layer_1" xmlns="http://www.w3.org/2000/svg" xmlns:xlink="http://www.w3.org/1999/xlink" x="0px" y="0px"
	 viewBox="0 0 1920 767" enable-background="new 0 0 1920 767" xml:space="preserve">
<g>
	<rect x="0" y="0" opacity="0.85" fill="#92BE76" width="1920" height="767"/>
	<g>
		<g>
			<circle fill="#FFFFFF" cx="446.4" cy="235.7" r="26"/>
		</g>
		<g>
			<circle fill="#FFFFFF" cx="799.7" cy="389.8" r="49.1"/>
		</g>
		<g>
			<path fill="#FFFFFF" d="M654,261.6c-2.7,0-4.9-2.2-4.9-4.9V181H451.3v48.4c0,2.7-2.2,4.9-4.9,4.9s-4.9-2.2-4.9-4.9V176
				c0-2.7,2.2-4.9,4.9-4.9H654c2.7,0,4.9,2.2,4.9,4.9v80.7C658.9,259.4,656.7,261.6,654,261.6z"/>
		</g>
		<g>
			<path fill="#FFFFFF" d="M799.7,605.7H300.6c-2.7,0-4.9-2.2-4.9-4.9V297.9c0-2.7,2.2-4.9,4.9-4.9h472.1c2.7,0,4.9,2.2,4.9,4.9
				c0,2.7-2.2,4.9-4.9,4.9H305.5v293h489.3V420.5c0-2.7,2.2-4.9,4.9-4.9s4.9,2.2,4.9,4.9v180.2C804.7,603.5,802.5,605.7,799.7,605.7
				z"/>
		</g>
	</g>
	<g>
		<path fill="#FFFFFF" d="M1788.6,435.3l0,0.8l137.3-4.2c0-0.3,0-0.5,0-0.8L1788.6,435.3z"/>
		<g>
			
				<rect x="1592.6" y="214.2" transform="matrix(-0.125 0.9922 -0.9922 -0.125 2200.2363 -1117.7985)" fill="#FFFFFF" width="0.8" height="394.2"/>
		</g>
		<g>
			
				<rect x="1471.5" y="342.9" transform="matrix(-0.4813 0.8765 -0.8765 -0.4813 2555.3306 -656.485)" fill="#FFFFFF" width="0.8" height="169.9"/>
		</g>
		<g>
			
				<rect x="1380.8" y="257.7" transform="matrix(-0.2384 0.9712 -0.9712 -0.2384 2125.9292 -811.5925)" fill="#FFFFFF" width="0.8" height="340.3"/>
		</g>
		<g>
			<rect x="1216" y="386.6" fill="#FFFFFF" width="181.4" height="0.8"/>
		</g>
		<path fill="#FFFFFF" d="M1788.5,435.3l0.1,0.7l137.1-26.6c0-0.3,0-0.5,0-0.8L1788.5,435.3z"/>
		<g>
			
				<rect x="1545.2" y="451.8" transform="matrix(-0.9909 0.1348 -0.1348 -0.9909 3380.689 675.4623)" fill="#FFFFFF" width="244.5" height="0.8"/>
		</g>
		<g>
			
				<rect x="1131.7" y="254.1" transform="matrix(-0.4299 0.9029 -0.9029 -0.4299 1932.1182 -525.7478)" fill="#FFFFFF" width="0.8" height="185.9"/>
		</g>
		<g>
			
				<rect x="1035.9" y="404.5" transform="matrix(-0.9803 0.1974 -0.1974 -0.9803 2311.5171 579.3548)" fill="#FFFFFF" width="181.9" height="0.8"/>
		</g>
		<g>
			
				<rect x="911.7" y="340.9" transform="matrix(-0.8829 0.4695 -0.4695 -0.8829 2013.25 180.4942)" fill="#FFFFFF" width="144.8" height="0.8"/>
		</g>
		<g>
			<circle fill="#FFFFFF" cx="1546.4" cy="468.7" r="25.5"/>
		</g>
		<g opacity="0.3">
			<circle fill="#FFFFFF" cx="1788.6" cy="430.4" r="70.8"/>
		</g>
		<g opacity="0.3">
			<circle fill="#FFFFFF" cx="1397.4" cy="386.9" r="18.5"/>
		</g>
		<g opacity="0.6">
			<circle fill="#FFFFFF" cx="1203.1" cy="383.7" r="37"/>
		</g>
		<g opacity="0.3">
			<circle fill="#FFFFFF" cx="1048" cy="309" r="19.1"/>
		</g>
		<g>
			<circle fill="#FFFFFF" cx="1035.1" cy="423.4" r="25.1"/>
		</g>
	</g>
	<g>
		<path fill="#FFFFFF" d="M12.8,363.3l-24.2,28.1c0,0.4,0,0.7,0,1.1l24.6-28.6L12.8,363.3z"/>
	</g>
	<g>
		<polygon fill="#FFFFFF" points="13.2,363.2 215.6,472.1 215.3,472.8 12.9,363.9 		"/>
	</g>
	<g>
		<path fill="#FFFFFF" d="M215.4,472.1l-223.1,41c0,0.2,0.1,0.5,0.1,0.7l223.2-41L215.4,472.1z"/>
	</g>
	<g>
		<circle fill="#FFFFFF" cx="204.8" cy="471.2" r="19.6"/>
	</g>
	<g opacity="0.6">
		<circle fill="#FFFFFF" cx="15.3" cy="365.9" r="26.2"/>
	</g>
</g>
</svg>
