<?xml version="1.0" encoding="utf-8"?>
<!-- Generator: Adobe Illustrator 18.1.1, SVG Export Plug-In . SVG Version: 6.00 Build 0)  -->
<!DOCTYPE svg PUBLIC "-//W3C//DTD SVG 1.1//EN" "http://www.w3.org/Graphics/SVG/1.1/DTD/svg11.dtd">
<svg version="1.1" id="Layer_1" xmlns="http://www.w3.org/2000/svg" xmlns:xlink="http://www.w3.org/1999/xlink" x="0px" y="0px"
	 viewBox="0 0 2059 172.5" enable-background="new 0 0 2059 172.5" xml:space="preserve">
<g>
	<line fill="none" stroke="#ffffff" stroke-width="0.5" stroke-miterlimit="10" x1="45.4" y1="50.3" x2="188.9" y2="119"/>
	<line fill="none" stroke="#ffffff" stroke-width="0.5" stroke-miterlimit="10" x1="188.9" y1="119" x2="377.2" y2="78.9"/>
	<line fill="none" stroke="#ffffff" stroke-width="0.5" stroke-miterlimit="10" x1="45.4" y1="50.3" x2="377.2" y2="78.9"/>
	<line fill="none" stroke="#ffffff" stroke-width="0.5" stroke-miterlimit="10" x1="377.2" y1="78.9" x2="579.7" y2="65"/>
	<line fill="none" stroke="#ffffff" stroke-width="0.5" stroke-miterlimit="10" x1="377.2" y1="78.9" x2="659.7" y2="118.2"/>
	<line fill="none" stroke="#ffffff" stroke-width="0.5" stroke-miterlimit="10" x1="659.7" y1="118.2" x2="934.9" y2="57.5"/>
	<line fill="none" stroke="#ffffff" stroke-width="0.5" stroke-miterlimit="10" x1="579.7" y1="65" x2="659.7" y2="118.2"/>
	<line fill="none" stroke="#ffffff" stroke-width="0.5" stroke-miterlimit="10" x1="934.9" y1="57.5" x2="579.7" y2="65"/>
	<line fill="none" stroke="#ffffff" stroke-width="0.5" stroke-miterlimit="10" x1="1107.2" y1="23.9" x2="1210.6" y2="88.7"/>
	<line fill="none" stroke="#ffffff" stroke-width="0.5" stroke-miterlimit="10" x1="1210.6" y1="88.7" x2="1058.4" y2="167.2"/>
	<line fill="none" stroke="#ffffff" stroke-width="0.5" stroke-miterlimit="10" x1="1058.4" y1="167.2" x2="1107.2" y2="23.9"/>
	<line fill="none" stroke="#ffffff" stroke-width="0.5" stroke-miterlimit="10" x1="934.9" y1="57.5" x2="1058.4" y2="167.2"/>
	<line fill="none" stroke="#ffffff" stroke-width="0.5" stroke-miterlimit="10" x1="1210.6" y1="88.7" x2="1485.4" y2="97.2"/>
	<line fill="none" stroke="#ffffff" stroke-width="0.5" stroke-miterlimit="10" x1="1485.4" y1="97.2" x2="1743.8" y2="65"/>
	<line fill="none" stroke="#ffffff" stroke-width="0.5" stroke-miterlimit="10" x1="1645.4" y1="119" x2="1743.8" y2="65"/>
	<line fill="none" stroke="#ffffff" stroke-width="0.5" stroke-miterlimit="10" x1="1645.4" y1="119" x2="1863.6" y2="65"/>
	<line fill="none" stroke="#ffffff" stroke-width="0.5" stroke-miterlimit="10" x1="1863.6" y1="65" x2="1743.8" y2="65"/>
	<line fill="none" stroke="#ffffff" stroke-width="0.5" stroke-miterlimit="10" x1="1107.2" y1="23.9" x2="1485.4" y2="97.2"/>
	<line fill="none" stroke="#ffffff" stroke-width="0.5" stroke-miterlimit="10" x1="1210.6" y1="88.7" x2="934.9" y2="57.5"/>
	<line fill="none" stroke="#ffffff" stroke-width="0.5" stroke-miterlimit="10" x1="1645.4" y1="119" x2="1485.4" y2="97.2"/>
	<line fill="none" stroke="#ffffff" stroke-width="0.5" stroke-miterlimit="10" x1="1863.6" y1="65" x2="1974.6" y2="12.4"/>
	<line fill="none" stroke="#ffffff" stroke-width="0.5" stroke-miterlimit="10" x1="1981.4" y1="88.7" x2="1863.6" y2="65"/>
	<circle fill="#ffffff" cx="1645.4" cy="119" r="16.9"/>
	<circle opacity="0.3" fill="#ffffff" cx="1485.4" cy="93.7" r="46.7"/>
	<circle fill="#ffffff" cx="912" cy="58" r="38.8"/>
	<circle fill="#ffffff" cx="45.4" cy="57.3" r="44.9"/>
	<circle opacity="0.6" fill="#ffffff" cx="382.2" cy="84.7" r="39.3"/>
	<circle fill="#ffffff" cx="663" cy="114.9" r="13.5"/>
	<circle opacity="0.3" fill="#ffffff" cx="1743.8" cy="65" r="12.2"/>
	<circle opacity="0.3" fill="#ffffff" cx="1210.6" cy="86.9" r="16.9"/>
	<circle opacity="0.6" fill="#ffffff" cx="579.7" cy="65" r="16.9"/>
	<circle fill="#ffffff" cx="1107.2" cy="16.1" r="12.6"/>
	<circle opacity="0.6" fill="#ffffff" cx="188.9" cy="119" r="12.6"/>
	<circle opacity="0.6" fill="#ffffff" cx="1056.2" cy="159.2" r="12.6"/>
	<circle opacity="0.6" fill="#ffffff" cx="1872.1" cy="62.9" r="24.5"/>
	<circle opacity="0.3" fill="#ffffff" cx="1974.6" cy="13.5" r="12.6"/>
	<circle fill="#ffffff" cx="1983.1" cy="89.1" r="16.6"/>
	<line fill="none" stroke="#ffffff" stroke-width="0.5" stroke-miterlimit="10" x1="1974.6" y1="12.4" x2="2059" y2="57.3"/>
</g>
</svg>
