<?xml version="1.0" encoding="utf-8"?>
<!-- Generator: Adobe Illustrator 18.1.1, SVG Export Plug-In . SVG Version: 6.00 Build 0)  -->
<!DOCTYPE svg PUBLIC "-//W3C//DTD SVG 1.1//EN" "http://www.w3.org/Graphics/SVG/1.1/DTD/svg11.dtd">
<svg version="1.1" id="Layer_1" xmlns="http://www.w3.org/2000/svg" xmlns:xlink="http://www.w3.org/1999/xlink" x="0px" y="0px"
	 viewBox="0 0 2000 2000" enable-background="new 0 0 2000 2000" xml:space="preserve">
<g>
	<g>
		<circle fill="#3C3C3C" cx="1415.6" cy="627.6" r="154.6"/>
	</g>
	<g>
		<circle fill="#3C3C3C" cx="610.2" cy="1462.3" r="125"/>
	</g>
	<g>
		<circle fill="#3C3C3C" cx="1708.5" cy="1606.6" r="96.2"/>
	</g>
	<g>
		<circle fill="#3C3C3C" cx="575.5" cy="806.6" r="116"/>
	</g>
	<g>
		<circle fill="#3C3C3C" cx="64.2" cy="1273.3" r="60.7"/>
	</g>
	<g opacity="0.6">
		<circle fill="#3C3C3C" cx="1249.7" cy="290.8" r="60.7"/>
	</g>
	<g>
		<circle fill="#3C3C3C" cx="351.5" cy="251.8" r="60.7"/>
	</g>
	<g opacity="0.6">
		<circle fill="#3C3C3C" cx="398.9" cy="1741.3" r="60.7"/>
	</g>
	<g opacity="0.6">
		<circle fill="#3C3C3C" cx="961.6" cy="1092" r="60.7"/>
	</g>
	<g opacity="0.6">
		<circle fill="#3C3C3C" cx="85.1" cy="1083.6" r="41.8"/>
	</g>
	<g>
		<circle fill="#3C3C3C" cx="984.7" cy="456" r="41.8"/>
	</g>
	<g opacity="0.6">
		<circle fill="#3C3C3C" cx="41.8" cy="807.5" r="41.8"/>
	</g>
	<g>
		<circle fill="#3C3C3C" cx="1958.2" cy="1228.7" r="41.8"/>
	</g>
	<g opacity="0.6">
		<circle fill="#3C3C3C" cx="1152" cy="952.5" r="41.8"/>
	</g>
	<g>
		<circle fill="#3C3C3C" cx="1871.7" cy="567.6" r="41.8"/>
	</g>
	<g opacity="0.6">
		<circle fill="#3C3C3C" cx="1654.1" cy="980.4" r="41.8"/>
	</g>
	<g opacity="0.6">
		<circle fill="#3C3C3C" cx="446.3" cy="999.9" r="41.8"/>
	</g>
	<g opacity="0.6">
		<circle fill="#3C3C3C" cx="1808.9" cy="495.8" r="41.8"/>
	</g>
	<g opacity="0.6">
		<circle fill="#3C3C3C" cx="1953.3" cy="1071.1" r="41.8"/>
	</g>
	<g>
		<circle fill="#3C3C3C" cx="1300.4" cy="1125.5" r="111.4"/>
	</g>
	<g opacity="0.6">
		<circle fill="#3C3C3C" cx="1325.7" cy="1624.8" r="41.8"/>
	</g>
	<g opacity="0.6">
		<circle fill="#3C3C3C" cx="731.5" cy="1880.1" r="41.8"/>
	</g>
	<g>
		<circle fill="#3C3C3C" cx="953.3" cy="1620.6" r="31.4"/>
	</g>
	<g opacity="0.6">
		<circle fill="#3C3C3C" cx="1196" cy="1903.1" r="31.4"/>
	</g>
	<g opacity="0.6">
		<circle fill="#3C3C3C" cx="459.6" cy="620.6" r="31.4"/>
	</g>
	<g opacity="0.6">
		<circle fill="#3C3C3C" cx="900.3" cy="1471.3" r="31.4"/>
	</g>
	<g>
		<circle fill="#3C3C3C" cx="747.6" cy="1928.9" r="31.4"/>
	</g>
	<g opacity="0.6">
		<circle fill="#3C3C3C" cx="1198.7" cy="1527.1" r="31.4"/>
	</g>
	<g opacity="0.6">
		<circle fill="#3C3C3C" cx="883.5" cy="787.9" r="31.4"/>
	</g>
	<g opacity="0.6">
		<circle fill="#3C3C3C" cx="1543.2" cy="1238.4" r="31.4"/>
	</g>
	<g opacity="0.6">
		<circle fill="#3C3C3C" cx="229.4" cy="1502" r="31.4"/>
	</g>
	<g opacity="0.6">
		<circle fill="#3C3C3C" cx="777.5" cy="627.6" r="31.4"/>
	</g>
	<g opacity="0.6">
		<circle fill="#3C3C3C" cx="1652" cy="893.2" r="31.4"/>
	</g>
	<g>
		<circle fill="#3C3C3C" cx="212.7" cy="512.5" r="98.3"/>
	</g>
	<g opacity="0.6">
		<circle fill="#3C3C3C" cx="1476.3" cy="170.9" r="60.7"/>
	</g>
	<g>
		<g opacity="0.6">
			<path fill="#3C3C3C" d="M984.2,457l-0.2-0.8L910.7,78.7l0.9,0.2l566.6,100.7L984.2,457z M912.2,80.2L985.1,455l489.4-274.9
				L912.2,80.2z"/>
		</g>
		<g>
			<path fill="#3C3C3C" d="M1543.6,1239.4l-0.7-0.4l-297.5-173.9l0.2-0.5l146.2-422.7L961,1093.6l0.1-1.6l23-634.6L777.3,628.5
				l-0.4-0.7l-222.8-435l1.9,1.1l428.5,261.3l0.7-0.6l0,1L1392.1,635l83.7-456.4l0.8,0.8l320.4,305.7l-0.1,0.4L1543.6,1239.4z
				 M1246.9,1064.5l296,173l252.8-752l-319-304.4l-83.6,455.7L985.2,456.9l-22.9,633.4l432.5-453.5L1246.9,1064.5z M557.3,196.2
				l220.4,430.4l205.9-170.5L557.3,196.2z"/>
		</g>
		<g>
			<polygon fill="#3C3C3C" points="1543.5,1239 1543,1237.9 1960.9,1070.7 1795.8,485.5 1797,485.1 1962.4,1071.4 1961.9,1071.7 			
				"/>
		</g>
		<g opacity="0.6">
			<polygon fill="#3C3C3C" points="1961.3,1071.6 1649.5,897.9 1649.5,897.9 1393.6,632.2 1394.5,631.9 1796.2,484.7 1796.6,485.9 
				1395.8,632.7 1650.3,896.9 1961.9,1070.5 			"/>
		</g>
		<g opacity="0.6">
			
				<rect x="1449.9" y="763.2" transform="matrix(0.3707 0.9287 -0.9287 0.3707 1825.9138 -728.4212)" fill="#3C3C3C" width="1.2" height="440"/>
		</g>
		<g>
			<path fill="#3C3C3C" d="M1199.5,1922.6l125.2-279.7l-370.1-4.2l242.7,282.5l-1.4-0.1L730.2,1898l0.8-1l219.1-256l-352.7-173.9
				l-0.3,0l1,11.8l124,416l-1.5-1.2l-492.8-392.2l368.1-35.5l-59.5-690.9L85.8,1083.9l133.7,403.3l-1.2,0.4l-134-404.2l0.4-0.3
				l452.8-310.2l0.1,1.1l59.5,691.9l0.6-0.1l0.2,0.1l354.3,174.7l-0.5,0.6l-218.8,255.7l461.7,22.9l-242.6-282.4l1.4,0l372,4.2
				l220.1-398.3l0.5,1.3l150.1,408.6l256.7-582.3l1.1,0.5l-257,582.9l1.4,0l-1.8,1l-0.5,1.2l-0.3-0.8L1199.5,1922.6z M1326.1,1642.8
				l-123.9,276.9l491.5-264.4L1326.1,1642.8z M231,1502.5l488.9,389L597,1479.2l-1-11.9L231,1502.5z M1326.7,1641.6l368.4,12.5
				l-149.8-407.9L1326.7,1641.6z"/>
		</g>
		<g opacity="0.6">
			
				<rect x="21.7" y="1272.3" transform="matrix(0.7984 0.6021 -0.6021 0.7984 834.254 54.2431)" fill="#3C3C3C" width="628.9" height="1.2"/>
		</g>
		<g opacity="0.6">
			<polygon fill="#3C3C3C" points="1325,1642.3 1245.6,1065.5 962.3,1092.6 953.9,1638 952.7,1638 961,1091.4 961.6,1091.4 
				1246.7,1064.1 1246.8,1064.7 1326.3,1642.1 			"/>
		</g>
		<g opacity="0.6">
			
				<rect x="1099.1" y="1029.5" transform="matrix(0.8913 0.4535 -0.4535 0.8913 732.3684 -351.749)" fill="#3C3C3C" width="1.2" height="643.7"/>
		</g>
		<g>
			
				<rect x="779" y="1018.1" transform="matrix(0.7178 0.6963 -0.6963 0.7178 1110.7195 -181.8128)" fill="#3C3C3C" width="1.2" height="522.2"/>
		</g>
		<g>
			<path fill="#3C3C3C" d="M963,1093.8l-1.8-1.3L535.9,774l242-147.3l0.3,0.7L963,1093.8z M538.1,774.1l422.2,316.1l-183-461.7
				L538.1,774.1z"/>
		</g>
		<g>
			<polygon fill="#3C3C3C" points="85.7,1083.8 84.5,1083.5 233.3,498.8 234,499.5 537.4,773.5 536.5,774.5 234,501.1 			"/>
		</g>
		<g>
			
				<rect x="225.1" y="561" transform="matrix(0.9719 0.2352 -0.2352 0.9719 146.272 -103.072)" fill="#3C3C3C" width="560.3" height="1.2"/>
		</g>
		<g opacity="0.6">
			
				<rect x="391.3" y="121.4" transform="matrix(0.6953 0.7187 -0.7187 0.6953 365.4731 -177.361)" fill="#3C3C3C" width="1.2" height="441.9"/>
		</g>
		<g opacity="0.6">
			<path fill="#3C3C3C" d="M1210.1,1960.1l-0.2,0l-462.5-13.2l-0.1-0.1l-340.4-178.6l-0.1-0.1l-346-510.6l0-0.2l-19.5-450l0.1-0.2
				L351,268.6l0.2-0.1l650.1-228.8l0.2,0.1l549,159l0.1,0.1l324.4,352.3l0,0.2l78.1,661.3l-0.1,0.2l-200.9,429l-0.2,0.1
				L1210.1,1960.1z M747.7,1945.6l462,13.2l541.5-317.8l200.7-428.5l-78.1-660.7l-324-351.9L1001.4,41L351.9,269.6l-309.4,538
				L62,1257.1l345.7,510.2L747.7,1945.6z"/>
		</g>
		<g opacity="0.6">
			<polygon fill="#3C3C3C" points="1209.4,1959.8 899,1470.5 1198.9,1526.5 1753.8,1624.7 1653.5,980.5 1521.8,593 1249.2,308.6 
				1000.9,40.8 1001.8,40 1250.1,307.7 1522.9,592.4 1522.9,592.5 1654.7,980.2 1755.3,1626.2 1754.4,1626.1 1198.6,1527.7 
				901.6,1472.2 1210.4,1959.2 			"/>
		</g>
		<g opacity="0.6">
			<polygon fill="#3C3C3C" points="1952.2,1213.1 1650.5,970.1 1650.8,969.7 1873.4,552.3 1521.6,593.4 1521.7,592.6 1549.6,199.3 
				1550.8,199.4 1523,592 1875.6,550.8 1875,551.8 1652.1,969.8 1953,1212.2 			"/>
		</g>
		<g>
			<path fill="#3C3C3C" d="M1198.3,1528.7l-60.9-590.1l515.2,30.8l-0.8,0.9L1198.3,1528.7z M1138.8,939.9l60.4,585.6l450.9-555.1
				L1138.8,939.9z"/>
		</g>
		<g opacity="0.6">
			<path fill="#3C3C3C" d="M1138.2,940l-0.4-0.2L882,787.8l642.8-196.5l-2.1,1.9L1138.2,940z M885.1,788.1L1138,938.5l381.8-344.4
				L885.1,788.1z"/>
		</g>
		<g opacity="0.6">
			<path fill="#3C3C3C" d="M442.7,1000.2L40.4,807.5l1.2-0.5l417.2-186.7L350.5,267.9l1.3,0.6l398.7,193.1L1251.3,307l-1.2,1.5
				L884,788.3l-1-0.8L1248,309.3L751.2,462.7l130,324.3l-421-165.5L442.7,1000.2z M43.3,807.5l398.2,190.8l17.3-376.7L43.3,807.5z
				 M461,620.5l417.9,164.3L750,463.2L461,620.5z M352.5,270.3l107.4,349.4L749,462.3L352.5,270.3z"/>
		</g>
		<g>
			<path fill="#3C3C3C" d="M607,1471.7L60,1257.4l1-0.7l382.3-253.9l0.2,0l698.7-62.8l0.1,1.2l-698,62.7L607,1471.7z M62.7,1257.1
				L605,1469.6l-161.8-465.2L62.7,1257.1z"/>
		</g>
		<g>
			
				<rect x="664.3" y="651" transform="matrix(0.4362 0.8998 -0.8998 0.4362 1179.2708 -94.34)" fill="#3C3C3C" width="1.2" height="485.9"/>
		</g>
		<g opacity="0.6">
			<polygon fill="#3C3C3C" points="407.8,1768.1 406.7,1767.4 605.7,1470 606,1470 899.9,1470.7 1141.7,940.4 1142.8,940.9 
				900.7,1472 900.3,1472 606.3,1471.3 			"/>
		</g>
		<g opacity="0.6">
			<polygon fill="#3C3C3C" points="747.5,1948.3 606.1,1473.6 607.3,1473.3 747.6,1944.2 899.7,1471.2 900.9,1471.5 			"/>
		</g>
	</g>
</g>
</svg>
