<?xml version="1.0" encoding="utf-8"?>
<!-- Generator: Adobe Illustrator 18.1.1, SVG Export Plug-In . SVG Version: 6.00 Build 0)  -->
<!DOCTYPE svg PUBLIC "-//W3C//DTD SVG 1.1//EN" "http://www.w3.org/Graphics/SVG/1.1/DTD/svg11.dtd">
<svg version="1.1" id="Layer_1" xmlns="http://www.w3.org/2000/svg" xmlns:xlink="http://www.w3.org/1999/xlink" x="0px" y="0px"
	 viewBox="0 0 1920 767" enable-background="new 0 0 1920 767" xml:space="preserve">
<g>
	<rect x="0" y="0" opacity="0.85" fill="#467AA4" width="1920" height="767"/>
	<g>
		<g>
			<path fill="#FFFFFF" d="M861.2,585c-1.1,0-2.1-0.3-3-1l-275.3-212l-68.1,88.5c-0.8,1-2,1.7-3.3,1.9c-1.3,0.2-2.6-0.2-3.7-1
				l-121.3-93.4c-1-0.8-1.7-2-1.9-3.3c-0.2-1.3,0.2-2.6,1-3.7l170.7-221.7c0.8-1,2-1.7,3.3-1.9c1.3-0.2,2.6,0.2,3.7,1l121.3,93.4
				c2.2,1.7,2.6,4.8,0.9,6.9l-53.6,69.6c-1.7,2.2-4.8,2.6-6.9,0.9c-2.2-1.7-2.6-4.8-0.9-6.9l50.6-65.7l-113.5-87.4L396.4,363
				l113.5,87.4L578,362c0.8-1,2-1.7,3.3-1.9c1.3-0.2,2.6,0.2,3.7,1l279.2,215c2.2,1.7,2.6,4.8,0.9,6.9
				C864.1,584.3,862.7,585,861.2,585z"/>
		</g>
		<g>
			<circle fill="#FFFFFF" cx="858.1" cy="577.9" r="17.9"/>
		</g>
		<g>
			<circle fill="#FFFFFF" cx="625.7" cy="309" r="28.7"/>
		</g>
		<g>
			<circle fill="#FFFFFF" cx="371.2" cy="541.7" r="24.6"/>
		</g>
		<g>
			<path fill="#FFFFFF" d="M644.8,622.4H316.2c-2.7,0-4.9-2.2-4.9-4.9v-75.7c0-2.7,2.2-4.9,4.9-4.9s4.9,2.2,4.9,4.9v70.8h318.7
				v-65.8H364.2c-2.7,0-4.9-2.2-4.9-4.9c0-2.7,2.2-4.9,4.9-4.9h280.6c2.7,0,4.9,2.2,4.9,4.9v75.7
				C649.8,620.2,647.5,622.4,644.8,622.4z"/>
		</g>
	</g>
	<g>
		<g>
			
				<rect x="95.6" y="295.2" transform="matrix(0.9424 0.3344 -0.3344 0.9424 109.6469 -45.8647)" fill="#FFFFFF" width="184.9" height="0.8"/>
		</g>
		<g>
			
				<rect x="175.2" y="279.9" transform="matrix(0.6391 0.7691 -0.7691 0.6391 378.3933 12.8003)" fill="#FFFFFF" width="0.8" height="259.5"/>
		</g>
		<g>
			
				<rect x="88" y="264" transform="matrix(0.9938 0.1109 -0.1109 0.9938 42.5511 -7.4701)" fill="#FFFFFF" width="0.8" height="229.5"/>
		</g>
		<path fill="#FFFFFF" d="M76.1,492.4l-82.8-46c0,0.3,0,0.6,0,0.9l82.4,45.8L76.1,492.4z"/>
		<g>
			<path fill="#FFFFFF" d="M839,420.5l0.3,0.7l61.9-22.1c-0.1-0.2-0.1-0.5-0.2-0.7L839,420.5z"/>
			<path fill="#FFFFFF" d="M1138.7,405.6l-237.6-7.2c0,0.3-0.1,0.5-0.1,0.8l237.7,7.2L1138.7,405.6z"/>
		</g>
		<g>
			
				<rect x="1334.1" y="184.3" transform="matrix(0.125 0.9922 -0.9922 0.125 1546.239 -990.1235)" fill="#FFFFFF" width="0.8" height="394.6"/>
		</g>
		<g>
			
				<rect x="1455.4" y="313" transform="matrix(0.4813 0.8765 -0.8765 0.4813 1103.9844 -1069.543)" fill="#FFFFFF" width="0.8" height="170.1"/>
		</g>
		<g>
			
				<rect x="1546.2" y="227.7" transform="matrix(0.2384 0.9712 -0.9712 0.2384 1564.4375 -1198.7742)" fill="#FFFFFF" width="0.8" height="340.7"/>
		</g>
		<g>
			<rect x="1530.3" y="356.8" fill="#FFFFFF" width="181.6" height="0.8"/>
		</g>
		<g>
			<path fill="#FFFFFF" d="M1138.7,405.6l-300.6-58.3c0,0.2-0.1,0.5-0.1,0.7l300.6,58.3L1138.7,405.6z"/>
		</g>
		<path fill="#FFFFFF" d="M275.1,326.1l-281.2,30c0,0.3,0,0.5,0,0.8l281.3-30L275.1,326.1z"/>
		<g>
			
				<rect x="1137.5" y="422.1" transform="matrix(0.9909 0.1348 -0.1348 0.9909 68.4498 -165.9814)" fill="#FFFFFF" width="244.8" height="0.8"/>
		</g>
		<g>
			
				<rect x="1795.6" y="224.2" transform="matrix(0.4299 0.9029 -0.9029 0.4299 1310.2808 -1440.6484)" fill="#FFFFFF" width="0.8" height="186.2"/>
		</g>
		<g>
			
				<rect x="1710.4" y="370.9" transform="matrix(0.9795 0.2013 -0.2013 0.9795 111.1868 -350.8372)" fill="#FFFFFF" width="140.5" height="0.8"/>
		</g>
		<g>
			<path fill="#FFFFFF" d="M1880.3,277.1l-0.4,0.7l44.2,23.5c0-0.3,0-0.6,0-0.9L1880.3,277.1z"/>
		</g>
		<g>
			<circle fill="#FFFFFF" cx="1381.2" cy="439" r="25.6"/>
		</g>
		<g opacity="0.3">
			<circle fill="#FFFFFF" cx="1138.7" cy="400.6" r="70.8"/>
		</g>
		<g opacity="0.3">
			<circle fill="#FFFFFF" cx="1530.3" cy="357.2" r="18.5"/>
		</g>
		<g opacity="0.3">
			<circle fill="#FFFFFF" cx="900.5" cy="400.6" r="25.6"/>
		</g>
		<g opacity="0.6">
			<circle fill="#FFFFFF" cx="275.5" cy="326.7" r="25.6"/>
		</g>
		<g>
			<circle fill="#FFFFFF" cx="846.5" cy="347.3" r="12.7"/>
		</g>
		<g>
			<circle fill="#FFFFFF" cx="80.2" cy="485.9" r="12.8"/>
		</g>
		<g opacity="0.6">
			<circle fill="#FFFFFF" cx="1724.8" cy="354" r="37.1"/>
		</g>
		<g opacity="0.3">
			<circle fill="#FFFFFF" cx="1880.1" cy="279.1" r="19.2"/>
		</g>
		<g>
			<circle fill="#FFFFFF" cx="1844" cy="385.8" r="16.9"/>
		</g>
	</g>
</g>
</svg>
