<?xml version="1.0" encoding="utf-8"?>
<!-- Generator: Adobe Illustrator 18.1.1, SVG Export Plug-In . SVG Version: 6.00 Build 0)  -->
<!DOCTYPE svg PUBLIC "-//W3C//DTD SVG 1.1//EN" "http://www.w3.org/Graphics/SVG/1.1/DTD/svg11.dtd">
<svg version="1.1" id="Layer_1" xmlns="http://www.w3.org/2000/svg" xmlns:xlink="http://www.w3.org/1999/xlink" x="0px" y="0px"
	 viewBox="0 0 1894.8 1410.8" enable-background="new 0 0 1894.8 1410.8" xml:space="preserve">
<g>
	<g>
		<g opacity="0.6">
			<g>
				<path d="M799.5,554.7c-63.4,0-114.9-51.6-114.9-114.9c0-63.4,51.6-114.9,114.9-114.9s114.9,51.6,114.9,114.9
					C914.4,503.1,862.9,554.7,799.5,554.7z"/>
			</g>
		</g>
		<g opacity="0.9">
			<g>
				<path d="M613.9,816.4c-11,0-20.1-8.2-21.2-19c-13-125.2,51-172.1,90.4-188.9c13.2-5.6,28-8.9,44-9.7c32.1-1.6,62.1-2.3,89.3-2.3
					c52.5,0,77.7,3,78.7,3.1c74.8,3.3,111,95.1,112.5,99c1.6,4.2-0.5,9-4.7,10.6c-0.9,0.4-1.9,0.5-2.9,0.5c-3.4,0-6.4-2.1-7.7-5.2
					c-1.4-3.5-34.6-85.7-98.5-88.5c-6.3-0.7-30.7-3-77.9-3c-27,0-56.6,0.8-88,2.3c-14.1,0.7-27,3.5-38.4,8.4
					c-34.9,14.9-91.8,56.8-80.7,170.2l0.6,6.2h230.3c4.5,0,8.2,3.7,8.2,8.2c0,4.5-3.7,8.2-8.2,8.2H613.9z"/>
			</g>
		</g>
		<g opacity="0.9">
			<g>
				<path d="M868.7,1040.4c-13.6,0-25.1-10.6-26.2-24.1c-1.9-25-4-89.8,18.9-151.3c26.8-71.9,80-114.9,153.7-124.3
					c1.4-0.2,35.7-4.4,110.7-4.4c38.7,0,81.4,1.1,127.1,3.4c21.4,1,41.2,5.4,59.1,12.9c55.1,23.1,145,88.2,126.9,263.5
					c-1.4,13.9-12.9,24.3-26.7,24.3H868.7z M1126.9,752.8c-73.8,0-108.2,4.1-109.6,4.2C849,778.3,855.8,975.7,858.9,1015
					c0.4,5,4.7,9,9.8,9h543.6c5.3,0,9.8-4.1,10.4-9.6c17-164.8-66-225.3-116.9-246.7c-16.1-6.7-34.1-10.6-53.5-11.6
					C1207.4,753.9,1165.3,752.8,1126.9,752.8z"/>
			</g>
		</g>
		<g opacity="0.3">
			<g>
				<path d="M1137.7,688.4c-87.4,0-158.5-71.1-158.5-158.5c0-87.4,71.1-158.5,158.5-158.5c87.4,0,158.5,71.1,158.5,158.5
					C1296.2,617.3,1225.1,688.4,1137.7,688.4z"/>
			</g>
		</g>
		<g opacity="0.9">
			<path d="M1453.2,379c-1.4,0-2.7-0.3-4-1c-111.8-55.5-285.9-60.5-465.6-13.5c-8.6,2.2-17.2,4.6-25.8,7.1
				c-4.8,1.4-9.9-1.4-11.3-6.2c-1.4-4.8,1.4-9.9,6.2-11.3c8.8-2.5,17.5-4.9,26.3-7.2c183.9-48.1,362.7-42.6,478.3,14.8
				c4.5,2.2,6.3,7.7,4.1,12.2C1459.8,377.1,1456.6,379,1453.2,379z"/>
		</g>
		<g opacity="0.9">
			<path d="M902.4,997.7c-4.5,0-8.4-3.3-9-7.8c-0.7-5,2.8-9.6,7.7-10.3c67.7-9.6,137-25.3,205.9-46.6
				c83.1-25.7,161.4-58.1,232.6-96.4c4.4-2.4,9.9-0.7,12.3,3.7c2.4,4.4,0.7,9.9-3.7,12.3c-72.3,38.8-151.6,71.7-235.9,97.7
				c-69.8,21.6-140.1,37.5-208.7,47.2C903.2,997.6,902.8,997.7,902.4,997.7z"/>
		</g>
		<path opacity="0.9" d="M1572.7,484.9c8.5-9.5,13.6-21.9,13.6-35.6c0-29.5-23.9-53.4-53.4-53.4c-29.5,0-53.4,23.9-53.4,53.4
			c0,29.5,23.9,53.4,53.4,53.4c8.8,0,17-2.1,24.3-5.9c22.1,84.9-31.5,189.1-144.8,280.1c-3.9,3.1-4.5,8.9-1.4,12.8
			c1.8,2.2,4.4,3.4,7.1,3.4c2,0,4-0.7,5.7-2c124-99.7,178.3-211.2,149-306C1572.8,485.1,1572.7,485,1572.7,484.9z"/>
		<path opacity="0.9" d="M767.5,967.7c-14.5,0-26.7,9.6-30.7,22.8c-175.2-2.8-298.2-57.3-325.7-146.3
			c-30.3-98,57.9-225.8,230.2-333.7c4.3-2.7,5.5-8.3,2.9-12.5c-2.7-4.3-8.3-5.6-12.5-2.9C452.1,607.5,360.9,743.4,393.7,849.6
			c30.4,98.4,157.2,156.5,343,159.2c3.9,13.3,16.2,23,30.7,23c17.7,0,32-14.3,32-32C799.5,982.1,785.2,967.7,767.5,967.7z"/>
	</g>
	<circle opacity="0.85" cx="168.2" cy="175.6" r="168.2"/>
	<circle opacity="0.3" cx="1724.8" cy="113.6" r="113.6"/>
	<circle opacity="0.6" cx="1824.2" cy="1098.7" r="70.6"/>
	<circle opacity="0.85" cx="1406.6" cy="1356.8" r="54"/>
	<circle opacity="0.6" cx="212.5" cy="1215.1" r="123.9"/>
	<circle opacity="0.6" cx="440" cy="218.8" r="31.1"/>
</g>
</svg>
