<?xml version="1.0" encoding="utf-8"?>
<!-- Generator: Adobe Illustrator 18.1.1, SVG Export Plug-In . SVG Version: 6.00 Build 0)  -->
<!DOCTYPE svg PUBLIC "-//W3C//DTD SVG 1.1//EN" "http://www.w3.org/Graphics/SVG/1.1/DTD/svg11.dtd">
<svg version="1.1" id="Layer_1" xmlns="http://www.w3.org/2000/svg" xmlns:xlink="http://www.w3.org/1999/xlink" x="0px" y="0px"
	 viewBox="0 0 1909.8 1173.9" enable-background="new 0 0 1909.8 1173.9" xml:space="preserve">
<g>
	<path opacity="0.6" fill="#FBB040" d="M569.8,302.5l-5.7,10.4c-6.3-1.9-12.7-2.7-19-2.3l-3.3-11.2c-0.9-3.2-4.3-5.1-7.6-4.1
		l-11.3,3.3c-3.2,0.9-5.1,4.3-4.1,7.6L522,317c-5.7,3-10.9,7.1-15.3,12.1l-10-5.4c-3-1.6-6.7-0.5-8.3,2.4l-5.6,10.3
		c-1.6,3-0.5,6.7,2.4,8.3l9.9,5.4c-1.9,6.4-2.5,12.9-2,19.4l-11,3.2c-3.2,0.9-5.1,4.3-4.1,7.6l3.3,11.3c0.9,3.2,4.3,5.1,7.6,4.1
		l11.1-3.3c3.1,5.5,7.2,10.6,12.1,14.8l-5.7,10.4c-1.6,3-0.5,6.7,2.4,8.3l10.3,5.6c3,1.6,6.7,0.5,8.3-2.4l5.8-10.7
		c6.2,1.7,12.5,2.3,18.7,1.9l3.5,12c0.9,3.2,4.3,5.1,7.6,4.1l11.3-3.3c3.2-0.9,5.1-4.3,4.1-7.6l-3.5-12.1c5.3-3,10.2-6.9,14.4-11.6
		l11.2,6.1c3,1.6,6.7,0.5,8.3-2.4l5.6-10.3c1.6-3,0.5-6.7-2.4-8.3l-11.2-6.1c1.8-6,2.5-12.2,2.1-18.3l12.2-3.6
		c3.2-0.9,5.1-4.3,4.1-7.6l-3.3-11.3c-0.9-3.2-4.3-5.1-7.6-4.1l-11.9,3.5c-2.9-5.5-6.8-10.5-11.5-14.8l5.9-10.7
		c1.6-3,0.5-6.7-2.4-8.3l-10.3-5.6C575.1,298.4,571.4,299.5,569.8,302.5z M564.3,337.1c15.8,8.7,21.6,28.5,13,44.3
		c-8.7,15.8-28.5,21.6-44.3,13c-15.8-8.7-21.6-28.5-13-44.3C528.7,334.3,548.5,328.5,564.3,337.1z"/>
	<path opacity="0.85" fill="#FBB040" d="M703.2,272.8l-5,7.7c-4.7-1.9-9.7-2.8-14.6-2.9l-1.9-8.9c-0.5-2.6-3.1-4.2-5.6-3.6l-8.9,1.9
		c-2.6,0.5-4.2,3.1-3.6,5.6l1.8,8.7c-4.6,2-8.8,4.9-12.5,8.5l-7.4-4.8c-2.2-1.4-5.1-0.8-6.6,1.4l-5,7.7c-1.4,2.2-0.8,5.1,1.4,6.6
		l7.4,4.8c-1.8,4.8-2.7,9.9-2.7,14.9l-8.7,1.9c-2.6,0.5-4.2,3.1-3.6,5.6l1.9,8.9c0.5,2.6,3.1,4.2,5.6,3.6l8.8-1.9
		c2.1,4.5,4.9,8.6,8.6,12.2l-5,7.8c-1.4,2.2-0.8,5.1,1.4,6.6l7.7,5c2.2,1.4,5.1,0.8,6.6-1.4l5.1-7.9c4.7,1.7,9.5,2.5,14.4,2.5l2,9.5
		c0.5,2.6,3.1,4.2,5.6,3.6l8.9-1.9c2.6-0.5,4.2-3.1,3.6-5.6l-2-9.6c4.3-2,8.3-4.7,11.8-8.2l8.3,5.4c2.2,1.4,5.1,0.8,6.6-1.4l5-7.7
		c1.4-2.2,0.8-5.1-1.4-6.6l-8.3-5.4c1.7-4.6,2.6-9.3,2.7-14.1l9.6-2.1c2.6-0.5,4.2-3.1,3.6-5.6l-1.9-8.9c-0.5-2.6-3.1-4.2-5.6-3.6
		l-9.4,2c-2-4.4-4.7-8.5-8.1-12.1l5.2-8c1.4-2.2,0.8-5.1-1.4-6.6l-7.7-5C707.6,270,704.7,270.6,703.2,272.8z M697,299.4
		c11.8,7.6,15.1,23.4,7.5,35.1c-7.6,11.8-23.4,15.1-35.1,7.5c-11.8-7.6-15.1-23.4-7.5-35.1C669.5,295.1,685.2,291.7,697,299.4z"/>
	<g opacity="0.9">
		<path d="M471.7,601.5c-4.1,0-7.6-3.1-8.1-7.3c-1.4-11.8-6.1-20.6-15.4-28.7c-16.2-14-30.6-29.3-43-45.6
			c-22-28.8-37.4-60.4-45.9-93.8c-8.2-32.4-9.6-66.8-4.1-99.5c5.6-33,18.6-66,37.6-95.2c9.8-15.1,21.3-29.5,34.2-42.9
			c14.1-14.6,29.5-29.5,47.3-39.9c38.2-22.4,83.2-35.6,126.6-36.9c2.2-0.1,4.5-0.1,6.9-0.1c41.3,0,83.9,11.6,123.2,33.5
			c5.6-4.9,12.8-7.6,20.3-7.6c17,0,30.9,13.9,30.9,30.9s-13.9,30.9-30.9,30.9s-30.9-13.9-30.9-30.9c0-3.3,0.5-6.5,1.5-9.6
			c-36.5-20.1-75.9-30.8-114-30.8c-2.1,0-4.3,0-6.5,0.1c-40.7,1.3-82.9,13.6-118.8,34.7c-16,9.4-30.5,23.4-43.8,37.2
			c-12.2,12.7-23.1,26.3-32.3,40.4c-17.8,27.4-29.9,58.2-35.2,89.1c-5.2,30.5-3.9,62.6,3.8,92.7c7.8,30.8,22.7,61.2,43.1,87.9
			c11.7,15.3,25.4,29.8,40.7,43.1c12.1,10.5,18.9,23.1,20.9,38.8c0.6,4.6-2.7,8.9-7,9.5C472.4,601.5,472,601.5,471.7,601.5z"/>
	</g>
	<g opacity="0.9">
		<path d="M715.3,794.3c-32.9-0.1-64.6-0.2-102.5-0.4l-106.4-0.3c-1.2,0-2.7,0.1-4.2,0.1l-0.5,0c-2.7,0.1-5.6,0.2-8.7,0.2
			c-15.8,0-24.7-3.7-27.8-11.7c-1.4-3.7-1.4-7.2-1.4-10c0.2-27.5,0.2-55.3,0.1-82.3l0-11c-8.6-3.5-14.3-11.9-14.3-21.2
			c0-12.6,10.3-22.9,22.9-22.9c12.6,0,22.9,10.3,22.9,22.9c0,9.5-6.1,18.2-15,21.5l0,11.2c0,26.8,0.1,54.5-0.1,81.8
			c0,0.5,0,2.2,0.1,3.1l0.1,0.4l0.4,0.2c1.9,1,6.1,1.4,12.4,1.4c3.2,0,6.3-0.1,7.7-0.2c2-0.1,3.9-0.2,5.5-0.2l1.2,0l105.2,0.3
			c37.9,0.1,69.5,0.2,102.6,0.4c2,0,3.4-0.1,4.5-0.2c1.3-0.2,1.9-0.5,2.1-0.6l0.1-0.1c0.4-0.5,0.8-1.3,1.2-3.1
			c0.8-4,0.6-8.5,0.3-13.2c-0.1-1.8-0.2-3.4-0.2-5.1L722,709c-0.1-2.2-0.2-4.5-0.3-6.6l0-0.5c-0.8-11.9-1.6-25.4,7-37
			c6.9-9.2,15.7-10.3,21.8-10.3c3.1,0,6.1,0.3,8.8,0.6c3,0.3,5.5,0.6,7.7,0.6l42.9,0.2l3.3-0.3c18.7-1.8,28-3.2,32.3-17.5
			c1.8-11.5,1.6-22.7,1.3-34.5l0-0.4c-0.1-5.1-0.2-9.9-0.2-14.8l0-0.7c0.3-47.4,2.9-51.2,45.6-67.5c5.9-2.2,9.4-4.7,10.7-7.8
			c1.5-3.6,0.7-8.8-2.6-16.2c-9-20.4-17.7-40.9-26-60.7l-0.6-1.5c-6.9-16.2-13.9-33-21.1-49.4c-4.5-10.3-7.1-21.2-8.1-34.1
			c-1.1-13.9-3.2-27.5-6.2-40.5c-0.6-2.5,0-5.1,1.6-7.1c1.6-2,3.9-3.1,6.4-3.1c3.9,0,7.2,2.6,8,6.4c3.1,13.8,5.3,28.2,6.5,43
			c0.9,11.1,3,20.3,6.8,28.9c7.7,17.6,15.2,35.4,21.8,51.1l0.3,0.7c8.3,19.6,16.9,40,25.7,59.9c5.2,11.7,6,21.3,2.7,29.2
			c-3.1,7.4-9.9,13-20.1,16.8c-17.7,6.8-27.5,10.5-31.1,15.9c-3.7,5.5-3.7,16.4-3.9,36.3l0,0.7c0,4.6,0.1,9.3,0.2,13.9l0,0.8
			c0.3,12.3,0.6,25-1.5,38l-0.2,1c-7.5,26.2-29.2,28.2-46.7,29.9l-4,0.4c-0.1,0-0.2,0-0.2,0l-42.5-0.2l-1.1,0
			c-3.2,0-6.6-0.4-9.2-0.6c-3.5-0.4-5.6-0.5-7.3-0.5c-4.3,0-6.4,0.9-8.5,3.7c-5,6.8-4.4,16.2-3.8,26.2c0.2,2.7,0.3,5.2,0.4,7.7
			l1.3,46.6c0,1.5,0.1,3,0.2,4.5c0.3,5.4,0.6,11.5-0.7,17.6c-2,9.9-7.7,15.4-17.2,16.7c-1.9,0.3-3.9,0.4-6.4,0.4H715.3z"/>
	</g>
	<path opacity="0.85" fill="#8F56A3" d="M1264,584.5l14.9,5.1c4.3,1.5,8.9-0.8,10.4-5.1l5.3-15.5c8.5,0.8,17,0.1,25-1.9l7.3,14.9
		c2,4,6.9,5.7,10.9,3.7l14.1-6.9c4-2,5.7-6.9,3.7-10.9l-7.5-15.2c6.3-5.2,11.8-11.4,16.2-18.7l16.1,5.5c4.3,1.5,8.9-0.8,10.4-5.1
		l5.1-14.9c1.5-4.3-0.8-8.9-5.1-10.4l-16.2-5.5c0.9-8.4,0.4-16.7-1.5-24.6l15.2-7.4c4-2,5.7-6.9,3.7-10.9l-6.9-14.1
		c-2-4-6.9-5.7-10.9-3.7l-15,7.3c-5.1-6.5-11.4-12.2-18.7-16.7l5.3-15.4c1.5-4.3-0.8-8.9-5.1-10.4l-14.9-5.1
		c-4.3-1.5-8.9,0.8-10.4,5.1l-5.1,15.1c-8.7-1.1-17.4-0.5-25.6,1.4l-6.8-13.9c-2-4-6.9-5.7-10.9-3.7l-14.1,6.9
		c-4,2-5.7,6.9-3.7,10.9l6.8,13.8c-6.8,5.3-12.6,11.9-17.3,19.5l-14.3-4.9c-4.3-1.5-8.9,0.8-10.4,5.1l-5.1,14.9
		c-1.5,4.3,0.8,8.9,5.1,10.4l14.4,4.9c-1,8.8-0.3,17.6,1.8,26l-13.7,6.7c-4,2-5.7,6.9-3.7,10.9l6.9,14.1c2,4,6.9,5.7,10.9,3.7
		l14-6.9c5.4,6.6,11.9,12.3,19.5,16.7l-5.1,15C1257.5,578.4,1259.7,583,1264,584.5z M1260.9,481.9c7.8-22.8,32.6-35,55.5-27.2
		c22.8,7.8,35,32.6,27.2,55.5c-7.8,22.8-32.6,35-55.5,27.2C1265.3,529.6,1253.1,504.8,1260.9,481.9z"/>
	<g opacity="0.9">
		<path d="M1430.7,741c-0.4,0-0.7,0-1.1-0.1c-4.4-0.6-7.6-4.9-7.1-9.5c1.9-15.6,8.8-28.3,20.9-38.8c15.3-13.3,29-27.8,40.7-43.1
			c20.3-26.7,35.2-57.1,43.1-87.9c7.7-30.1,9-62.2,3.8-92.7c-5.3-30.9-17.4-61.7-35.2-89.1c-9.2-14.2-20.1-27.8-32.3-40.4
			c-13.3-13.7-27.7-27.8-43.8-37.2c-35.9-21.1-78.1-33.4-118.8-34.7c-2.2-0.1-4.3-0.1-6.4-0.1c-38.1,0-77.5,10.6-114,30.8
			c1,3.1,1.5,6.3,1.5,9.6c0,17-13.9,30.9-30.9,30.9s-30.9-13.9-30.9-30.9c0-17,13.9-30.9,30.9-30.9c7.5,0,14.6,2.7,20.3,7.6
			c39.3-21.9,81.9-33.5,123.2-33.5c2.3,0,4.7,0,6.9,0.1c43.4,1.4,88.3,14.5,126.6,36.9c17.7,10.4,33.2,25.4,47.3,39.9
			c12.9,13.4,24.4,27.8,34.2,42.9c19,29.3,32,62.2,37.6,95.2c5.6,32.8,4.2,67.2-4.1,99.5c-8.5,33.4-23.9,64.9-45.9,93.8
			c-12.4,16.2-26.9,31.6-43,45.6c-9.3,8-14,16.9-15.4,28.7C1438.3,737.9,1434.8,741,1430.7,741z"/>
	</g>
	<g opacity="0.9">
		<path d="M1186.7,933.8c-2.5,0-4.6-0.1-6.4-0.4c-9.5-1.4-15.1-6.8-17.2-16.7c-1.3-6.1-0.9-12.1-0.7-17.5c0.1-1.6,0.2-3.1,0.2-4.6
			l1.3-46.6c0.1-2.5,0.2-5.1,0.4-7.7c0.6-10,1.2-19.5-3.8-26.2c-2-2.7-4.2-3.7-8.5-3.7c-1.7,0-3.9,0.2-7.3,0.5
			c-2.7,0.3-6,0.6-9.1,0.6l-1.2,0c-42.4,0.2-42.4,0.2-42.4,0.2c0,0-0.2,0-0.2,0l-4-0.4c-17.5-1.6-39.2-3.7-46.7-29.8l-0.2-0.9
			c-2.2-13.1-1.8-25.8-1.5-38.1l0-0.7c0.1-4.6,0.2-9.3,0.2-13.9l0-0.7c-0.1-19.9-0.2-30.9-3.9-36.3c-3.6-5.4-13.4-9.1-31.1-15.9
			c-10.2-3.7-16.9-9.4-20.1-16.8c-3.4-8-2.5-17.5,2.7-29.2c8.8-19.9,17.4-40.2,25.7-59.9l0.3-0.6c6.7-15.8,14.2-33.7,21.8-51.1
			c3.8-8.6,5.9-17.8,6.8-28.9c1.2-14.8,3.4-29.3,6.5-43c0.9-3.7,4.2-6.4,8-6.4c2.5,0,4.8,1.1,6.4,3.1c1.6,2,2.2,4.6,1.6,7.1
			c-3,13-5.1,26.7-6.2,40.5c-1,13-3.6,23.8-8.1,34.1c-7.2,16.5-14.3,33.3-21.2,49.5l-0.6,1.4c-8.4,19.9-17.1,40.4-26,60.7
			c-3.2,7.3-4.1,12.6-2.6,16.2c1.3,3.1,4.8,5.6,10.7,7.8c42.8,16.4,45.3,20.2,45.6,67.6l0,0.7c0,4.9-0.1,9.7-0.2,14.8l0,0.4
			c-0.3,11.8-0.6,23,1.3,34.5c4.3,14.3,13.5,15.7,32.3,17.5l3.4,0.3l42.7-0.2c2.2,0,4.7-0.2,7.6-0.6c2.7-0.3,5.7-0.6,8.8-0.6
			c6.1,0,14.9,1.1,21.8,10.3c8.6,11.6,7.7,25.1,7,37.1l0,0.4c-0.1,2.1-0.3,4.5-0.3,6.7l-1.3,46.6c0,1.6-0.1,3.3-0.2,5
			c-0.3,4.8-0.5,9.3,0.3,13.3c0.4,1.8,0.8,2.6,1.2,3.1l0.2,0.1c0.1,0.1,0.6,0.3,2,0.5c1.1,0.2,2.5,0.2,4.5,0.2
			c33.1-0.1,64.7-0.3,102.6-0.4l105.2-0.3l1.1,0c1.6,0,3.5,0.1,5.5,0.2c1.5,0.1,4.5,0.2,7.8,0.2c6.3,0,10.5-0.5,12.4-1.4l0.4-0.2
			l0-0.4c0.1-0.9,0.1-2.5,0.1-3.1c-0.2-27.6-0.2-55.4-0.1-82.4l0-10.7c-8.9-3.3-15-12-15-21.5c0-12.6,10.3-22.9,22.9-22.9
			c12.6,0,22.9,10.3,22.9,22.9c0,9.3-5.7,17.8-14.3,21.2l0,11c0,26.9-0.1,54.8,0.1,82.3c0,2.8,0.1,6.3-1.4,10
			c-3.1,8-11.9,11.7-27.8,11.7c-3.1,0-6.1-0.1-8.7-0.2l-0.6,0c-1.4-0.1-2.9-0.1-4.2-0.1l-106.4,0.3c-28,0.1-66.2,0.2-102.5,0.4
			H1186.7z"/>
	</g>
	<circle opacity="0.6" cx="111.6" cy="111.6" r="111.6"/>
	<circle fill="#8F56A3" cx="656.7" cy="1008.3" r="37.2"/>
	<circle opacity="0.2" cx="791.8" cy="1045.5" r="21.9"/>
	<circle opacity="0.2" cx="1769.3" cy="189.4" r="140.5"/>
	<circle opacity="0.85" cx="1812.4" cy="915.4" r="26.6"/>
	<circle opacity="0.6" fill="#FBB040" cx="1452.8" cy="79.2" r="26.6"/>
	<circle opacity="0.6" cx="1637.9" cy="1088" r="85.9"/>
	<circle opacity="0.1" cx="159.9" cy="962.1" r="156.4"/>
</g>
</svg>
