<?xml version="1.0" encoding="utf-8"?>
<!-- Generator: Adobe Illustrator 18.1.1, SVG Export Plug-In . SVG Version: 6.00 Build 0)  -->
<!DOCTYPE svg PUBLIC "-//W3C//DTD SVG 1.1//EN" "http://www.w3.org/Graphics/SVG/1.1/DTD/svg11.dtd">
<svg version="1.1" id="Layer_1" xmlns="http://www.w3.org/2000/svg" xmlns:xlink="http://www.w3.org/1999/xlink" x="0px" y="0px"
	 viewBox="0 0 1904.9 975.3" enable-background="new 0 0 1904.9 975.3" xml:space="preserve">
<g>
	<g opacity="5.000000e-02">
		<g>
			<circle cx="1697.1" cy="471.9" r="207.7"/>
		</g>
	</g>
	<g opacity="5.000000e-02">
		<g>
			<circle cx="851.2" cy="767.6" r="207.7"/>
		</g>
	</g>
	<g opacity="5.000000e-02">
		<g>
			<circle cx="207.7" cy="229.8" r="207.7"/>
		</g>
	</g>
	<g opacity="0.6">
		<g>
			<circle fill="#46C6E7" cx="739.7" cy="43.9" r="43.9"/>
		</g>
	</g>
	<g opacity="0.45">
		<g>
			<circle cx="1336" cy="807.3" r="28.6"/>
		</g>
	</g>
	<g opacity="0.45">
		<g>
			<circle fill="#46C6E7" cx="1518.7" cy="889.1" r="23.4"/>
		</g>
	</g>
	<g opacity="0.45">
		<g>
			<circle cx="769.8" cy="341.3" r="23.4"/>
		</g>
	</g>
	<g opacity="0.6">
		<g>
			<circle fill="#FBB040" cx="1252.9" cy="285.6" r="63.1"/>
		</g>
	</g>
	<g opacity="0.85">
		<g>
			<circle fill="#2D3336" cx="1133.7" cy="367" r="33.6"/>
		</g>
	</g>
	<g opacity="0.3">
		<g>
			<circle fill="#FBB040" cx="343.8" cy="649" r="42.3"/>
		</g>
	</g>
	<g opacity="0.7">
		<g>
			<circle fill="#2D3336" cx="304.7" cy="793.1" r="38.9"/>
		</g>
	</g>
	<g opacity="0.85">
		<g>
			<circle fill="#46C6E7" cx="140.8" cy="727.7" r="30.2"/>
		</g>
	</g>
	<g>
		<path d="M1067.2,695.1c-1.2,0-2.4-0.8-2.8-2c-0.5-1.6,0.3-3.3,1.8-3.8l416.5-145.6c1.6-0.5,3.3,0.3,3.8,1.8s-0.3,3.3-1.8,3.8
			l-416.5,145.6C1067.8,695,1067.5,695.1,1067.2,695.1z"/>
	</g>
	<g>
		<path d="M1336.2,767.6C1336.2,767.6,1336.2,767.6,1336.2,767.6c-1.7,0-3-1.4-3-3l0.6-166.3c0-1.7,1.3-3,3-3c0,0,0,0,0,0
			c1.7,0,3,1.4,3,3l-0.6,166.3C1339.2,766.3,1337.8,767.6,1336.2,767.6z"/>
	</g>
	<g>
		<path d="M421.8,158c-1.2,0-2.4-0.8-2.8-2c-0.5-1.6,0.3-3.3,1.8-3.8L679,61.9c1.6-0.5,3.3,0.3,3.8,1.8c0.5,1.6-0.3,3.3-1.8,3.8
			l-258.2,90.3C422.4,157.9,422.1,158,421.8,158z"/>
	</g>
	<g>
		<path d="M677.1,625.1c-0.7,0-1.4-0.2-1.9-0.7L379.3,377.1c-1.3-1.1-1.4-3-0.4-4.2c1.1-1.3,3-1.4,4.2-0.4L679,619.8
			c1.3,1.1,1.4,3,0.4,4.2C678.8,624.7,678,625.1,677.1,625.1z"/>
	</g>
	<g>
		<g>
			<g>
				<path d="M243,332.7c1.8,0,3.3-1.5,3.3-3.3c0-1.8-1.5-3.3-3.3-3.3h-21.2c-0.4,0-0.8-0.3-0.8-0.8v-22.2c0-0.4,0.3-0.8,0.8-0.8
					h96.8c10.1,0,18.4-8.2,18.4-18.4V132.8c0-10.1-8.2-18.4-18.4-18.4H117c-10.1,0-18.4,8.2-18.4,18.4v59.2c0,1.8,1.5,3.3,3.3,3.3
					c1.8,0,3.3-1.5,3.3-3.3v-59.2c0-6.5,5.3-11.9,11.9-11.9h201.7c6.5,0,11.9,5.3,11.9,11.9v122c0,0.4-0.3,0.8-0.8,0.8H170.9
					c-1.8,0-3.3,1.5-3.3,3.3s1.5,3.3,3.3,3.3h158.8c0.4,0,0.8,0.3,0.8,0.8V284c0,6.5-5.3,11.9-11.9,11.9H170.9
					c-1.8,0-3.3,1.5-3.3,3.3c0,1.8,1.5,3.3,3.3,3.3h42.9c0.4,0,0.8,0.3,0.8,0.8v22.2c0,0.4-0.3,0.8-0.8,0.8h-21.2
					c-1.8,0-3.3,1.5-3.3,3.3c0,1.8,1.5,3.3,3.3,3.3H243z"/>
			</g>
		</g>
		<g>
			<g>
				<path d="M217.8,283.3c2.4,0,4.3-1.9,4.3-4.3s-1.9-4.3-4.3-4.3s-4.3,1.9-4.3,4.3S215.4,283.3,217.8,283.3z"/>
			</g>
		</g>
		<g>
			<g>
				<path d="M115.9,328.1c2.4,0,4.3-1.9,4.3-4.3s-1.9-4.3-4.3-4.3c-2.4,0-4.3,1.9-4.3,4.3S113.6,328.1,115.9,328.1z"/>
			</g>
		</g>
		<g>
			<g>
				<path d="M312.7,196.4c0.8,0,1.5-0.3,2.1-0.9c0.6-0.6,0.9-1.3,0.9-2.1c0-0.8-0.3-1.5-0.9-2.1l-56.4-56.4
					c-0.6-0.6-1.3-0.9-2.1-0.9s-1.5,0.3-2.1,0.9s-0.9,1.3-0.9,2.1c0,0.8,0.3,1.5,0.9,2.1l56.4,56.4
					C311.2,196.1,311.9,196.4,312.7,196.4z"/>
			</g>
		</g>
		<g>
			<g>
				<path d="M312.1,165.5c0.8,0,1.5-0.3,2.1-0.9c0.6-0.6,0.9-1.3,0.9-2.1c0-0.8-0.3-1.5-0.9-2.1l-25.5-25.5
					c-0.6-0.6-1.3-0.9-2.1-0.9s-1.5,0.3-2.1,0.9s-0.9,1.3-0.9,2.1c0,0.8,0.3,1.5,0.9,2.1l25.5,25.5
					C310.6,165.2,311.3,165.5,312.1,165.5z"/>
			</g>
		</g>
		<g>
			<g>
				<path d="M87.6,341.3c-7.6,0-13.8-6.2-13.8-13.8V216.9c0-7.6,6.2-13.8,13.8-13.8h56.7c7.6,0,13.8,6.2,13.8,13.8v110.6
					c0,7.6-6.2,13.8-13.8,13.8H87.6z M80,311.8c-0.4,0-0.8,0.3-0.8,0.8v14.9c0,4.6,3.7,8.3,8.3,8.3h56.7c4.6,0,8.3-3.7,8.3-8.3
					v-14.9c0-0.4-0.3-0.8-0.8-0.8H80z M80,234.8c-0.4,0-0.8,0.3-0.8,0.8v70c0,0.4,0.3,0.8,0.8,0.8h71.8c0.4,0,0.8-0.3,0.8-0.8v-70
					c0-0.4-0.3-0.8-0.8-0.8H80z M87.6,208.6c-4.6,0-8.3,3.7-8.3,8.3v11.6c0,0.4,0.3,0.8,0.8,0.8h71.8c0.4,0,0.8-0.3,0.8-0.8v-11.6
					c0-4.6-3.7-8.3-8.3-8.3H87.6z"/>
			</g>
		</g>
	</g>
	<g>
		<g>
			<g>
				<path d="M808.6,732.2c0-24,19.5-43.5,43.5-43.5s43.5,19.5,43.5,43.5s-19.5,43.5-43.5,43.5S808.6,756.2,808.6,732.2z
					 M815.2,732.2c0,20.4,16.6,36.9,36.9,36.9s36.9-16.6,36.9-36.9c0-20.4-16.6-36.9-36.9-36.9S815.2,711.8,815.2,732.2z"/>
			</g>
		</g>
		<g>
			<g>
				<path d="M729.4,708.1c0-17.5,14.3-31.8,31.8-31.8s31.8,14.5,31.8,32.2c0,17.6-14,31.4-31.8,31.4
					C743.7,739.9,729.4,725.6,729.4,708.1z M736,708.5c0,14.2,11.1,25.3,25.3,25.3c13.9,0,25.3-11.3,25.3-25.3s-11.3-25.3-25.3-25.3
					S736,694.5,736,708.5z"/>
			</g>
		</g>
		<g>
			<g>
				<path d="M910.7,708.1c0-17.5,14.3-31.8,31.8-31.8s31.8,14.3,31.8,31.8s-14.3,31.8-31.8,31.8S910.7,725.6,910.7,708.1z
					 M917.3,708.5c0,14.2,11.1,25.3,25.3,25.3c14.2,0,25.3-11.1,25.3-25.3c0-13.9-11.3-25.3-25.3-25.3S917.3,694.5,917.3,708.5z"/>
			</g>
		</g>
		<g>
			<g>
				<path d="M770.5,809.9c1.8,0,3.3-1.5,3.3-3.3c0-1.8-1.5-3.3-3.3-3.3h-60.6l-0.1-0.7c-2.9-29.6,11.9-40.6,20.9-44.4
					c2.9-1.3,6.3-2,9.9-2.2c8.4-0.4,16.3-0.6,23.5-0.6c13.6,0,20.2,0.8,20.5,0.8c16.9,0.8,25.6,22.8,25.7,23
					c0.5,1.3,1.7,2.1,3.1,2.1c0.4,0,0.8-0.1,1.2-0.2c0.8-0.3,1.5-0.9,1.8-1.7c0.4-0.8,0.4-1.7,0.1-2.5c-0.4-1.1-10.3-26.3-31.2-27.2
					c-0.1,0-6.5-0.8-20.9-0.8c-7.3,0-15.4,0.2-24,0.6c-4.4,0.2-8.5,1.1-12.2,2.7c-10.8,4.6-28.4,17.4-24.8,51.6c0.4,3.4,3.3,6,6.7,6
					H770.5z"/>
			</g>
		</g>
		<g>
			<g>
				<path d="M992.2,809.9c3.5,0,6.4-2.6,6.7-6c3.6-34.2-14-47-24.8-51.6c-3.6-1.6-7.7-2.5-12.2-2.7c-8.6-0.4-16.6-0.6-23.9-0.6
					c-14.2,0-20.9,0.8-21.2,0.8c-20.6,0.9-30.5,26.1-31,27.2c-0.6,1.7,0.2,3.6,1.9,4.2c0.4,0.1,0.8,0.2,1.2,0.2
					c1.4,0,2.6-0.8,3.1-2.1c0.1-0.2,8.9-22.3,25.4-23c1.7-0.2,8.3-0.8,20.8-0.8c7.2,0,15.1,0.2,23.5,0.6c3.6,0.2,7,0.9,9.9,2.2
					c9.1,3.9,23.8,14.8,20.9,44.4l-0.1,0.7h-60.6c-1.8,0-3.3,1.5-3.3,3.3c0,1.8,1.5,3.3,3.3,3.3H992.2z"/>
			</g>
		</g>
		<g>
			<g>
				<path d="M778.7,869.8c-4.2,0-7.8-3.2-8.2-7.5c-4.9-47.6,19.6-65.3,34.6-71.6c4.9-2.1,10.3-3.2,16.2-3.5
					c12.2-0.6,23.7-0.9,34-0.9c20.2,0,29.4,1.1,29.8,1.2c20.2,2.6,34.7,14.3,42,33.9c6.2,16.7,5.7,34.2,5.1,40.9
					c-0.3,4.2-3.9,7.4-8.1,7.4H778.7z M821.5,793.8c-5.1,0.2-9.8,1.3-14,3c-13.4,5.6-35.1,21.5-30.6,64.9c0.1,0.9,0.8,1.6,1.7,1.6
					h145.4c0.8,0,1.5-0.6,1.5-1.4c0.8-10.4,2.6-62.3-41.4-67.9c-0.4,0-9.7-1.1-29.2-1.1C844.7,792.9,833.5,793.2,821.5,793.8z"/>
			</g>
		</g>
	</g>
	<g>
		<g>
			<path d="M1601.4,584.3h-13.7c-6.2,0-11.3-5.1-11.3-11.3v-53.9c0-6.2,5.1-11.3,11.3-11.3h13.7c6.2,0,11.3,5.1,11.3,11.3V573
				C1612.7,579.3,1607.6,584.3,1601.4,584.3z M1587.7,513.8c-2.9,0-5.3,2.4-5.3,5.3V573c0,2.9,2.4,5.3,5.3,5.3h13.7
				c2.9,0,5.3-2.4,5.3-5.3v-53.9c0-2.9-2.4-5.3-5.3-5.3H1587.7z"/>
		</g>
		<g>
			<path d="M1666.9,584.3h-13.7c-1.7,0-3-1.3-3-3s1.3-3,3-3h13.7c2.9,0,5.3-2.4,5.3-5.3V467.4c0-2.9-2.4-5.3-5.3-5.3h-13.7
				c-2.9,0-5.3,2.4-5.3,5.3V565c0,1.7-1.3,3-3,3s-3-1.3-3-3v-97.6c0-6.2,5.1-11.3,11.3-11.3h13.7c6.2,0,11.3,5.1,11.3,11.3V573
				C1678.2,579.3,1673.1,584.3,1666.9,584.3z"/>
		</g>
		<g>
			<path d="M1732.3,584.3h-13.7c-6.2,0-11.3-5.1-11.3-11.3v-83c0-6.2,5.1-11.3,11.3-11.3h13.7c6.2,0,11.3,5.1,11.3,11.3v83
				C1743.6,579.3,1738.6,584.3,1732.3,584.3z M1718.7,484.8c-2.9,0-5.3,2.4-5.3,5.3v83c0,2.9,2.4,5.3,5.3,5.3h13.7
				c2.9,0,5.3-2.4,5.3-5.3v-83c0-2.9-2.4-5.3-5.3-5.3H1718.7z"/>
		</g>
		<g>
			<path d="M1797.8,584.3h-13.7c-6.2,0-11.3-5.1-11.3-11.3v-91.3c0-1.7,1.3-3,3-3s3,1.3,3,3V573c0,2.9,2.4,5.3,5.3,5.3h13.7
				c2.9,0,5.3-2.4,5.3-5.3V438.3c0-2.9-2.4-5.3-5.3-5.3h-13.7c-2.9,0-5.3,2.4-5.3,5.3v19.2c0,1.7-1.3,3-3,3s-3-1.3-3-3v-19.2
				c0-6.2,5.1-11.3,11.3-11.3h13.7c6.2,0,11.3,5.1,11.3,11.3V573C1809.1,579.3,1804,584.3,1797.8,584.3z"/>
		</g>
		<g>
			<path d="M1736.1,409.6c-0.9,0-1.8-0.4-2.4-1.1c-1-1.3-0.8-3.2,0.5-4.2l44.3-35c1.3-1,3.2-0.8,4.2,0.5c1,1.3,0.8,3.2-0.5,4.2
				l-44.3,35C1737.4,409.4,1736.8,409.6,1736.1,409.6z"/>
		</g>
		<g>
			<path d="M1696.6,408c-0.3,0-0.7-0.1-1-0.2l-23.4-8.1c-1.6-0.5-2.4-2.3-1.9-3.8c0.5-1.6,2.2-2.4,3.8-1.9l23.4,8.1
				c1.6,0.5,2.4,2.3,1.9,3.8C1699,407.2,1697.8,408,1696.6,408z"/>
		</g>
		<g>
			<path d="M1605.2,438.6c-0.9,0-1.8-0.4-2.4-1.1c-1-1.3-0.8-3.2,0.5-4.2l43.7-34.5c1.3-1,3.2-0.8,4.2,0.5c1,1.3,0.8,3.2-0.5,4.2
				L1607,438C1606.5,438.4,1605.8,438.6,1605.2,438.6z"/>
		</g>
		<g>
			<path d="M1594.6,460.5c-9.1,0-16.5-7.4-16.5-16.5s7.4-16.5,16.5-16.5s16.5,7.4,16.5,16.5S1603.7,460.5,1594.6,460.5z
				 M1594.6,433.5c-5.8,0-10.5,4.7-10.5,10.5s4.7,10.5,10.5,10.5s10.5-4.7,10.5-10.5S1600.4,433.5,1594.6,433.5z"/>
		</g>
		<g>
			<path d="M1660,410.1c-9.1,0-16.5-7.4-16.5-16.5s7.4-16.5,16.5-16.5s16.5,7.4,16.5,16.5S1669.1,410.1,1660,410.1z M1660,383.1
				c-5.8,0-10.5,4.7-10.5,10.5s4.7,10.5,10.5,10.5s10.5-4.7,10.5-10.5S1665.8,383.1,1660,383.1z"/>
		</g>
		<g>
			<path d="M1725.5,431.4c-9.1,0-16.5-7.4-16.5-16.5s7.4-16.5,16.5-16.5s16.5,7.4,16.5,16.5S1734.6,431.4,1725.5,431.4z
				 M1725.5,404.4c-5.8,0-10.5,4.7-10.5,10.5s4.7,10.5,10.5,10.5s10.5-4.7,10.5-10.5S1731.3,404.4,1725.5,404.4z"/>
		</g>
		<g>
			<path d="M1791,379.7c-9.1,0-16.5-7.4-16.5-16.5s7.4-16.5,16.5-16.5s16.5,7.4,16.5,16.5S1800.1,379.7,1791,379.7z M1791,352.7
				c-5.8,0-10.5,4.7-10.5,10.5s4.7,10.5,10.5,10.5s10.5-4.7,10.5-10.5S1796.8,352.7,1791,352.7z"/>
		</g>
	</g>
</g>
</svg>
