<?xml version="1.0" encoding="utf-8"?>
<!-- Generator: Adobe Illustrator 18.1.1, SVG Export Plug-In . SVG Version: 6.00 Build 0)  -->
<!DOCTYPE svg PUBLIC "-//W3C//DTD SVG 1.1//EN" "http://www.w3.org/Graphics/SVG/1.1/DTD/svg11.dtd">
<svg version="1.1" id="Layer_1" xmlns="http://www.w3.org/2000/svg" xmlns:xlink="http://www.w3.org/1999/xlink" x="0px" y="0px"
	 viewBox="0 0 1920 767" enable-background="new 0 0 1920 767" xml:space="preserve">
<rect x="0" y="0" opacity="0.85" fill="#FBB040" width="1920" height="767"/>
<g>
	<g>
		<path fill="#FFFFFF" d="M474.7,397.9c-0.5,0-1.1-0.1-1.6-0.3L169.8,296.5c-2-0.7-3.4-2.6-3.4-4.7s1.4-4,3.4-4.7l303.3-101.2
			c2.6-0.9,5.4,0.5,6.2,3.1c0.9,2.6-0.5,5.4-3.1,6.2L187,291.8l287.7,96l287.7-96l-229.3-76.5c-2.6-0.9-4-3.7-3.1-6.2
			c0.9-2.6,3.7-4,6.2-3.1l243.4,81.2c2,0.7,3.4,2.6,3.4,4.7s-1.4,4-3.4,4.7L476.3,397.7C475.8,397.8,475.2,397.9,474.7,397.9z"/>
	</g>
	<g>
		<circle fill="#FFFFFF" cx="760.7" cy="521.7" r="17.5"/>
	</g>
	<g>
		<circle fill="#FFFFFF" cx="537.7" cy="211.6" r="33.8"/>
	</g>
	<g>
		<circle fill="#FFFFFF" cx="297.8" cy="400.9" r="30.8"/>
	</g>
	<g>
		<path fill="#FFFFFF" d="M651.6,589.2H297.8c-2.7,0-4.9-2.2-4.9-4.9v-159c0-2.7,2.2-4.9,4.9-4.9c2.7,0,4.9,2.2,4.9,4.9v154.1h344
			V373.7c0-2.7,2.2-4.9,4.9-4.9s4.9,2.2,4.9,4.9v210.5C656.6,587,654.3,589.2,651.6,589.2z"/>
	</g>
	<g>
		<path fill="#FFFFFF" d="M760.7,524c-2.7,0-4.9-2.2-4.9-4.9V336.5c0-2.7,2.2-4.9,4.9-4.9s4.9,2.2,4.9,4.9v182.6
			C765.7,521.8,763.5,524,760.7,524z"/>
	</g>
</g>
<g>
	<g>
		
			<rect x="1634.1" y="388" transform="matrix(-0.8472 0.5313 -0.5313 -0.8472 3387.573 -197.7348)" fill="#FFFFFF" width="176.3" height="0.7"/>
	</g>
	<g opacity="0.3">
		<circle fill="#FFFFFF" cx="64.5" cy="452.7" r="18.3"/>
	</g>
	<g>
		
			<rect x="1757.1" y="368.2" transform="matrix(-0.4566 0.8897 -0.8897 -0.4566 2997.5583 -847.1426)" fill="#FFFFFF" width="0.7" height="247.5"/>
	</g>
	<g>
		
			<rect x="1831.8" y="335.7" transform="matrix(-0.9459 0.3244 -0.3244 -0.9459 3709.6709 271.6692)" fill="#FFFFFF" width="0.7" height="218.8"/>
	</g>
	<g>
		<path fill="#FFFFFF" d="M1867.2,548.4l0.5,0.5l57.9-51.4c0-0.3,0-0.7,0-1L1867.2,548.4z"/>
	</g>
	<g>
		
			<rect x="1250.3" y="441" transform="matrix(-0.9995 3.092336e-02 -3.092336e-02 -0.9995 2910.9368 837.6611)" fill="#FFFFFF" width="397.3" height="0.7"/>
	</g>
	<g>
		
			<rect x="1063.4" y="236.1" transform="matrix(-0.125 0.9922 -0.9922 -0.125 1617.5942 -578.1801)" fill="#FFFFFF" width="0.7" height="376.3"/>
	</g>
	<g>
		
			<rect x="947.8" y="358.9" transform="matrix(-0.4813 0.8765 -0.8765 -0.4813 1790.1088 -179.401)" fill="#FFFFFF" width="0.7" height="162.1"/>
	</g>
	<g>
		<path fill="#FFFFFF" d="M120.4,395.5L-4,426.2c0,0.2,0,0.5,0,0.7l124.5-30.7L120.4,395.5z"/>
	</g>
	<g>
		<path fill="#FFFFFF" d="M64.5,452H-2.8c0,0.2,0,0.5,0,0.7h67.3V452z"/>
	</g>
	<g>
		
			<rect x="1245.3" y="394.1" transform="matrix(-0.9817 0.1904 -0.1904 -0.9817 3094.5845 491.7225)" fill="#FFFFFF" width="556.6" height="0.7"/>
	</g>
	<g>
		<path fill="#FFFFFF" d="M1647.5,434.8l0.1,0.7l277.3-31.4c0-0.2,0-0.5,0-0.7L1647.5,434.8z"/>
	</g>
	<g>
		
			<rect x="1018.1" y="462.8" transform="matrix(-0.9909 0.1348 -0.1348 -0.9909 2321.7246 769.222)" fill="#FFFFFF" width="233.4" height="0.7"/>
	</g>
	<g>
		<path fill="#FFFFFF" d="M64.5,452l-0.1,0.7l92.7,18.7c0.1-0.2,0.1-0.5,0.2-0.7L64.5,452z"/>
		<path fill="#FFFFFF" d="M157.3,470.7c-0.1,0.2-0.1,0.5-0.2,0.7"/>
	</g>
	<g>
		<circle fill="#FFFFFF" cx="1019.2" cy="478.9" r="24.4"/>
	</g>
	<g opacity="0.3">
		<circle fill="#FFFFFF" cx="1250.4" cy="442.4" r="67.5"/>
	</g>
	<g opacity="0.3">
		<circle fill="#FFFFFF" cx="877.1" cy="400.9" r="17.7"/>
	</g>
	<g opacity="0.3">
		<circle fill="#FFFFFF" cx="1647.5" cy="432.5" r="24.4"/>
	</g>
	<g>
		<circle fill="#FFFFFF" cx="1796.9" cy="330.3" r="18.3"/>
	</g>
	<g opacity="0.6">
		<circle fill="#FFFFFF" cx="1870.6" cy="537" r="18.3"/>
	</g>
	<g>
		<circle fill="#FFFFFF" cx="120.6" cy="395.9" r="12.8"/>
	</g>
</g>
</svg>
