<?xml version="1.0" encoding="utf-8"?>
<!-- Generator: Adobe Illustrator 18.1.1, SVG Export Plug-In . SVG Version: 6.00 Build 0)  -->
<!DOCTYPE svg PUBLIC "-//W3C//DTD SVG 1.1//EN" "http://www.w3.org/Graphics/SVG/1.1/DTD/svg11.dtd">
<svg version="1.1" id="Layer_1" xmlns="http://www.w3.org/2000/svg" xmlns:xlink="http://www.w3.org/1999/xlink" x="0px" y="0px"
	 viewBox="0 0 1900.3 1406" enable-background="new 0 0 1900.3 1406" xml:space="preserve">
<g>
	<g>
		<path opacity="0.6" d="M1085.5,579.5l-5.1-15.1c7.6-4.5,14.2-10.2,19.6-16.8l14.1,6.9c4.1,2,9,0.3,11-3.7l7-14.2
			c2-4.1,0.3-9-3.7-11l-13.8-6.7c2.1-8.4,2.8-17.2,1.9-26.1l14.4-4.9c4.3-1.5,6.6-6.1,5.1-10.4l-5.1-14.9c-1.5-4.3-6.1-6.6-10.4-5.1
			l-14.4,4.9c-4.6-7.6-10.5-14.2-17.3-19.6l6.8-13.8c2-4.1,0.3-9-3.7-11l-14.2-7c-4.1-2-9-0.3-11,3.7l-6.9,14
			c-8.3-2-17-2.5-25.7-1.4l-5.2-15.1c-1.5-4.3-6.1-6.6-10.4-5.1l-14.9,5.1c-4.3,1.5-6.6,6.1-5.1,10.4l5.3,15.5
			c-7.3,4.6-13.6,10.3-18.8,16.8l-15-7.4c-4.1-2-9-0.3-11,3.7l-7,14.2c-2,4.1-0.3,9,3.7,11l15.2,7.5c-1.9,8-2.4,16.4-1.5,24.8
			l-16.3,5.6c-4.3,1.5-6.6,6.1-5.1,10.4l5.1,14.9c1.5,4.3,6.1,6.6,10.4,5.1l16.2-5.5c4.4,7.2,9.9,13.5,16.3,18.7l-7.5,15.3
			c-2,4.1-0.3,9,3.7,11l14.2,7c4.1,2,9,0.3,11-3.7l7.3-15c8.1,2.1,16.6,2.8,25.1,2l5.3,15.6c1.5,4.3,6.1,6.6,10.4,5.1l14.9-5.1
			C1084.6,588.5,1086.9,583.8,1085.5,579.5z M1056.1,542.6c-23,7.8-47.9-4.4-55.8-27.4c-7.8-23,4.4-47.9,27.4-55.8
			c23-7.8,47.9,4.4,55.8,27.4C1091.3,509.8,1079,534.8,1056.1,542.6z"/>
		<path opacity="0.85" d="M993.7,738.8l-3.1-12c6.1-3,11.6-7.1,16.2-11.9l10.5,6.2c3,1.8,6.9,0.8,8.7-2.3l6.2-10.6
			c1.8-3,0.8-6.9-2.3-8.7l-10.3-6c2.1-6.4,3.2-13.2,3-20.1l11.5-3c3.4-0.9,5.5-4.4,4.6-7.8l-3.1-11.9c-0.9-3.4-4.4-5.5-7.8-4.6
			l-11.4,3c-3.2-6.2-7.3-11.7-12.3-16.2l6.1-10.3c1.8-3,0.8-6.9-2.3-8.7l-10.6-6.2c-3-1.8-6.9-0.8-8.7,2.3l-6.1,10.5
			c-6.3-2-13-2.9-19.9-2.6l-3.1-12c-0.9-3.4-4.4-5.5-7.8-4.6l-11.9,3.1c-3.4,0.9-5.5,4.4-4.6,7.8l3.2,12.3
			c-5.9,3.1-11.1,7.2-15.5,12l-11.2-6.6c-3-1.8-6.9-0.8-8.7,2.3l-6.2,10.6c-1.8,3-0.8,6.9,2.3,8.7l11.4,6.7
			c-1.9,6.1-2.8,12.5-2.6,19.1l-12.9,3.4c-3.4,0.9-5.5,4.4-4.6,7.8l3.1,11.9c0.9,3.4,4.4,5.5,7.8,4.6l12.9-3.3
			c3,5.9,6.9,11.1,11.5,15.5l-6.7,11.4c-1.8,3-0.8,6.9,2.3,8.7l10.6,6.2c3,1.8,6.9,0.8,8.7-2.3l6.6-11.2c6.2,2.1,12.7,3.1,19.4,3
			l3.2,12.4c0.9,3.4,4.4,5.5,7.8,4.6l11.9-3.1C992.6,745.7,994.6,742.2,993.7,738.8z M973.1,708.5c-18.3,4.7-36.9-6.2-41.7-24.5
			c-4.7-18.3,6.2-36.9,24.5-41.7c18.3-4.7,36.9,6.2,41.7,24.5C1002.3,685.1,991.3,703.7,973.1,708.5z"/>
		<path opacity="0.3" d="M870.4,627.5l-6.9-20.1c10.2-6,19-13.6,26.2-22.4l18.9,9.3c5.4,2.7,12,0.4,14.7-5l9.3-18.9
			c2.7-5.4,0.4-12-5-14.7l-18.4-9c2.9-11.2,3.8-23,2.5-34.9L931,505c5.7-2,8.8-8.2,6.8-13.9l-6.8-20c-2-5.7-8.2-8.8-13.9-6.8
			l-19.2,6.6c-6.2-10.2-14.1-19.1-23.2-26.2l9.1-18.5c2.7-5.4,0.4-12-5-14.7l-19-9.3c-5.4-2.7-12-0.4-14.7,5l-9.2,18.8
			c-11.1-2.6-22.7-3.3-34.4-1.9l-6.9-20.3c-2-5.7-8.2-8.8-13.9-6.8l-20,6.8c-5.7,2-8.8,8.2-6.8,13.9l7.1,20.7
			c-9.8,6.1-18.2,13.7-25.1,22.5l-20.1-9.9c-5.4-2.7-12-0.4-14.7,5l-9.3,18.9c-2.7,5.4-0.4,12,5,14.7l20.4,10
			c-2.5,10.7-3.3,21.9-2,33.1l-21.8,7.4c-5.7,2-8.8,8.2-6.8,13.9l6.8,20c2,5.7,8.2,8.8,13.9,6.8l21.6-7.4
			c5.9,9.7,13.3,18.1,21.8,25.1l-10.1,20.5c-2.7,5.4-0.4,12,5,14.7l19,9.3c5.4,2.7,12,0.4,14.7-5l9.8-20c10.8,2.8,22.2,3.7,33.6,2.6
			l7.1,20.8c2,5.7,8.2,8.8,13.9,6.8l20-6.8C869.3,639.5,872.4,633.3,870.4,627.5z M831.1,578.2c-30.7,10.5-64.1-5.9-74.6-36.6
			c-10.5-30.7,5.9-64.1,36.6-74.6c30.7-10.5,64.1,5.9,74.6,36.6C878.2,534.3,861.8,567.7,831.1,578.2z"/>
		<g>
			<path opacity="0.85" d="M725.3,862.8c0.5,4.5,4.6,7.9,9.3,7.3c4.6-0.6,7.7-5.2,7.2-9.7c-2.5-20.4-11.3-36.7-27.1-50.4
				c-20.7-18-39.3-37.6-55.1-58.4c-27.6-36.2-47.8-77.4-58.4-119.1C590.7,591.6,589,548,596,506.6c7.1-41.9,23.6-83.6,47.7-120.8
				c12.5-19.2,27.2-37.7,43.7-54.8c18-18.6,37.6-37.6,59.4-50.4c48.7-28.6,105.8-45.3,161-47c2.9-0.1,5.8-0.1,8.8-0.1
				c52.4,0,106.5,14.8,156.6,42.9c-1.7,4.4-2.7,9.2-2.7,14.1c0,21.5,17.4,38.9,38.9,38.9s38.9-17.4,38.9-38.9
				c0-21.5-17.4-38.9-38.9-38.9c-10.4,0-19.9,4.1-26.9,10.8c-0.1-0.1-0.2-0.1-0.3-0.2c-52.8-29.7-110.1-45.4-165.7-45.4
				c-3.1,0-6.1,0-9.2,0.1c-57.9,1.8-117.9,19.3-168.9,49.3c-23.6,13.8-44.2,33.8-63,53.3c-17.3,17.9-32.6,37.2-45.7,57.3
				c-25.3,39-42.7,83-50.2,127.1c-7.4,43.7-5.6,89.6,5.4,132.7c11.3,44.6,32,86.7,61.3,125.1c16.6,21.7,35.9,42.2,57.5,60.9
				C716.7,833.7,723.4,846.2,725.3,862.8z"/>
			<path opacity="0.85" d="M1327.4,723.4c-11.9-27-23.6-54.6-34.9-81.4c-9.5-22.5-19.3-45.8-29.3-68.7c-5.2-11.9-8.2-24.5-9.4-39.7
				c-1.6-20-4.5-39.1-8.7-57.4c-0.9-3.8-4.3-6.5-8.2-6.5c-5.4,0-9.3,5.1-8.1,10.3c4,17.5,6.9,35.8,8.4,54.9
				c1.4,17.1,4.8,31.4,10.7,45c9.8,22.5,19.5,45.5,28.9,67.6l0.4,0.9c11.3,26.7,22.9,54.3,35,81.6c4.7,10.6,5.8,18.4,3.5,23.9
				c-2.1,4.9-7.3,8.8-15.9,12c-57,21.8-59.2,25.1-59.6,88.3l0,0.9c0,6.7,0.1,13.4,0.3,20.4c0.4,16.1,0.8,31.4-1.8,47.1
				c-6.3,20.9-20.7,23.2-45.8,25.6l-4.6,0.4l-57.6-0.2c-3.2,0-6.5-0.3-10.5-0.8c-3.5-0.4-7.6-0.8-11.6-0.8
				c-7.6,0-18.6,1.3-27.2,12.8c-11,14.8-9.9,32.5-8.9,48.1l0,0.6c0.2,3.1,0.4,6.1,0.5,9l1.8,62.6c0.1,2.2,0.2,4.4,0.3,6.7
				c0.3,6.6,0.7,12.8-0.5,18.6c-0.6,3-1.4,4.5-2.3,5.6l-0.6,0.4c-0.8,0.6-2.1,1-3.9,1.2c-1.6,0.2-3.6,0.3-6.4,0.3
				c-46-0.2-92-0.4-137.9-0.5l-141.5-0.4l-1.6,0c-2,0-4.4,0.1-7.2,0.2c-2.2,0.1-6.3,0.3-10.6,0.3c-12,0-16-1.3-17.9-2.2l-1.9-0.9
				l-0.2-2.1c-0.1-1.2-0.1-3.1-0.1-4.5c0.3-37.2,0.2-75.1,0.2-111.7l0-2.4c0-4.3,0-8.7,0-13c11.7-3.4,20.2-14.2,20.2-27
				c0-15.5-12.6-28.1-28.1-28.1s-28.1,12.6-28.1,28.1c0,12.4,8.1,23,19.3,26.7c0,4.5,0,9.1,0,13.6l0,2.1
				c0.1,36.6,0.1,74.4-0.2,111.6c0,3.5-0.1,7.9,1.7,12.4c3.7,9.6,14.8,14.1,34.8,14.1c4,0,7.9-0.2,11.6-0.3l0.7,0
				c2.1-0.1,4-0.2,5.7-0.2l143.1,0.5c46,0.1,91.9,0.3,137.9,0.5h0.6c3.3,0,5.9-0.2,8.3-0.5c11.5-1.6,18.3-8.3,20.8-20.4
				c1.6-7.9,1.2-15.8,0.8-22.9c-0.1-2.1-0.2-4.1-0.3-6.2l-1.8-62.6c-0.1-3.4-0.3-6.8-0.5-10.2c-0.9-14-1.7-27.1,5.6-37
				c3.3-4.4,6.9-6,13.5-6c2.5,0,5.4,0.2,10.1,0.7c3.5,0.4,7.9,0.8,12,0.8l1.6,0l57.1,0.3l5.4-0.5c22.7-2.1,50.9-4.8,60.4-38.1
				l0.3-1.1c2.8-17.1,2.4-34.1,2-50.6l0-1c-0.2-6.3-0.3-12.5-0.3-18.8l0-0.9c0.2-27.3,0.3-42.3,5.7-50.4
				c5.3-7.9,18.8-13.1,43.1-22.4c13-4.7,21.5-11.8,25.4-21.1C1335.2,750.5,1334.1,738.4,1327.4,723.4z"/>
		</g>
	</g>
	<circle opacity="0.6" cx="136.1" cy="111.6" r="111.6"/>
	<circle opacity="0.3" cx="376.3" cy="1339.3" r="53.4"/>
	<circle opacity="0.3" cx="1689.9" cy="251.6" r="210.4"/>
	<circle opacity="0.85" cx="1629.8" cy="764.1" r="31.1"/>
	<circle opacity="0.85" cx="278.8" cy="298.2" r="31.1"/>
	<circle opacity="0.6" cx="1555.4" cy="1280.5" r="125.5"/>
	<circle opacity="0.85" cx="156.4" cy="1105" r="156.4"/>
</g>
</svg>
